<svg width="65" height="64" viewBox="0 0 65 64" fill="none" xmlns="http://www.w3.org/2000/svg">
<g id="icon-placeholder">
<g id="Group">
<g id="Vector">
<path fill-rule="evenodd" clip-rule="evenodd" d="M40.9662 49.0628H42.8672C51.7127 48.3529 56.0624 44.0325 57.2163 42.7536L57.6763 42.3282L58.5403 41.1903C59.4044 39.5951 59.8378 37.1836 59.6038 35.5937L57.2695 25.7033C56.8361 28.4311 55.6849 32.0124 53.0634 35.7346C50.0378 40.0258 46.1188 42.8972 43.3537 44.4871C40.2962 46.1887 38.1426 46.9066 37.9937 46.9066C36.5127 47.473 34.9399 47.7614 33.3543 47.7574C35.9173 48.781 38.3952 49.0654 40.9901 49.0654L40.9662 49.0628Z" fill="#101010"/>
<path fill-rule="evenodd" clip-rule="evenodd" d="M47.2163 55.2257L53.6132 47.324C51.1353 48.6321 47.6497 50.0518 42.9783 50.3363C42.2605 50.3363 41.6809 50.4799 40.9311 50.4799C31.7984 50.4799 24.6517 45.9069 24.6517 45.7633H24.5374C23.24 44.9125 22.0595 43.9155 21.0545 42.751C22.3519 45.9335 24.0801 48.6347 26.2656 50.9398C32.3727 57.3899 38.4532 58.1024 40.2106 58.1024H41.9653C43.7201 57.818 46.0598 56.6534 47.2083 55.231L47.2163 55.2257ZM21.8362 22.2868C23.1336 21.1489 24.2822 20.1279 25.6115 19.4154C22.8465 19.8674 19.6773 20.8644 16.4788 22.5979C8.78449 27.0353 6.74259 32.7436 6.30656 34.3361L6.01942 35.4741C5.58605 37.3511 6.30656 40.1906 7.48969 41.7832L13.8866 49.653C12.9136 46.109 12.707 42.3984 13.2804 38.7682C13.9982 33.6236 16.3379 29.3298 18.2362 26.7508C19.9378 24.0229 21.6926 22.2895 21.8388 22.2895L21.8362 22.2868ZM21.666 10.8064C24.9076 10.8134 28.1169 11.4509 31.1151 12.6835C36.071 14.5313 39.6709 17.6819 42.0052 19.987C44.4512 22.4064 45.6078 24.56 45.6078 24.56L45.7514 24.6743C46.6154 25.9824 47.2216 27.4022 47.6231 28.8219C47.7667 26.0941 47.6231 22.6537 46.4719 19.2426C43.8504 10.7719 38.6366 7.61863 37.0228 6.76784L35.8715 6.19888C35.0048 5.77348 33.8217 5.63257 32.6704 5.63257C31.5697 5.63363 30.4775 5.82616 29.4428 6.20153L20.3101 10.5193C20.6557 10.8038 21.2619 10.8064 21.666 10.8064ZM9.76556 18.9953L7.43386 28.7103C9.48108 25.8654 12.2196 23.4247 15.7291 21.4068C21.6633 17.9956 27.9167 17.5436 31.1124 17.5436L34.1381 17.6846C35.7519 17.8281 37.1956 18.2535 38.6579 18.8225C36.2068 16.6815 33.398 14.9886 30.36 13.8214C27.5949 12.7978 24.5693 12.0879 21.658 12.0879C18.316 12.0879 15.9817 12.9387 14.974 13.3641L14.3971 13.6486L13.3336 14.074C11.7782 15.1269 10.1644 17.2857 9.731 18.9926L9.76556 18.9953ZM51.8584 35.1656C56.9579 27.8621 56.2374 21.8375 55.921 20.1013L55.7774 19.5324L55.4903 18.538C54.9133 16.6902 53.1559 14.6722 51.5713 13.8214L42.4386 9.53025C44.8957 12.2555 46.7253 15.4864 47.7986 18.9953C49.4124 24.0256 49.096 28.7156 48.6627 31.8981C48.2293 35.3358 47.3652 37.4681 47.3652 37.6143V37.7552C46.7883 39.2042 46.0677 40.6267 45.1744 41.7619C47.2216 40.3395 49.8405 38.0397 51.8584 35.1683V35.1656ZM23.9711 58.0679H34.2604C31.6389 57.0735 28.4697 55.223 25.2739 51.788C21.6447 47.9222 19.7437 43.4609 18.7334 40.4778C17.7231 37.181 17.436 34.8785 17.436 34.7349V34.6206C17.2924 34.0251 17.2924 33.4561 17.2924 32.8871C17.2924 31.8928 17.436 31.0393 17.5795 30.0423C15.9657 33.0254 14.958 36.0377 14.3811 39.0554C13.0836 47.8079 16.2528 52.9525 17.2632 54.2313L17.7231 54.6567L18.3001 55.2549C19.4805 56.789 22.0754 58.0679 23.9764 58.0679H23.9711ZM32.6704 21.7497C39.0673 21.7497 44.2518 26.8385 44.2518 33.1743C44.2518 39.4834 39.0939 44.5988 32.6704 44.5988C26.2736 44.5988 21.0891 39.51 21.0891 33.1743C21.0891 26.8625 26.2736 21.7497 32.6704 21.7497ZM38.493 33.1743C38.493 29.9918 35.8715 27.4314 32.7024 27.4314C29.4747 27.4314 26.8798 30.0184 26.8798 33.1743C26.8798 36.3568 29.5012 38.8852 32.7024 38.8852C35.8715 38.8852 38.493 36.3275 38.493 33.1743Z" fill="#101010"/>
</g>
</g>
</g>
</svg>
