<svg width="49" height="48" viewBox="0 0 49 48" fill="none" xmlns="http://www.w3.org/2000/svg">
<g id="Group">
<g id="Group_2">
<path id="Path" d="M20.3334 26.346V35.5L24.3334 33.5L28.3334 35.5V26.346" stroke="#6F4CCE" stroke-width="3" stroke-linecap="round" stroke-linejoin="round"/>
<path id="Path_2" fill-rule="evenodd" clip-rule="evenodd" d="M36.3334 42H12.3334C9.01937 42 6.33337 39.314 6.33337 36V12C6.33337 8.686 9.01937 6 12.3334 6H36.3334C39.6474 6 42.3334 8.686 42.3334 12V36C42.3334 39.314 39.6474 42 36.3334 42Z" stroke="#6F4CCE" stroke-width="3" stroke-linecap="round" stroke-linejoin="round"/>
<path id="Oval" fill-rule="evenodd" clip-rule="evenodd" d="M24.3334 27.5C28.4755 27.5 31.8334 24.1421 31.8334 20C31.8334 15.8579 28.4755 12.5 24.3334 12.5C20.1912 12.5 16.8334 15.8579 16.8334 20C16.8334 24.1421 20.1912 27.5 24.3334 27.5Z" stroke="#6F4CCE" stroke-width="3" stroke-linecap="round" stroke-linejoin="round"/>
</g>
</g>
</svg>
