<svg width="48" height="48" viewBox="0 0 48 48" fill="none" xmlns="http://www.w3.org/2000/svg">
<g id="Group">
<path id="Path" fill-rule="evenodd" clip-rule="evenodd" d="M22.3433 16.3748C22.6552 15.745 23.2972 15.3466 24 15.3466C24.7028 15.3466 25.3448 15.745 25.6567 16.3748L27.0012 19.1139C27.2719 19.6619 27.7964 20.0403 28.4018 20.1243L31.4251 20.5645C32.1202 20.6661 32.6975 21.1534 32.9145 21.8216C33.1314 22.4898 32.9504 23.2232 32.4475 23.7138L30.2606 25.8467C29.8266 26.2717 29.6284 26.8825 29.7304 27.4814L30.2466 30.4826C30.3646 31.1752 30.0798 31.8749 29.5116 32.2882C28.9434 32.7015 28.1901 32.757 27.5675 32.4314L24.8623 31.0089C24.3249 30.7267 23.6831 30.7267 23.1456 31.0089L20.4405 32.4314C19.8179 32.757 19.0645 32.7015 18.4964 32.2882C17.9282 31.8749 17.6434 31.1752 17.7614 30.4826L18.2776 27.4814C18.3795 26.8825 18.1814 26.2717 17.7474 25.8467L15.5565 23.7138C15.0536 23.2232 14.8726 22.4898 15.0895 21.8216C15.3064 21.1534 15.8837 20.6661 16.5789 20.5645L19.6022 20.1243C20.2076 20.0403 20.7321 19.6619 21.0027 19.1139L22.3433 16.3748Z" stroke="#6F4CCE" stroke-width="3" stroke-linecap="round" stroke-linejoin="round"/>
<rect id="Rectangle" x="5.99249" y="5.99243" width="36.015" height="36.015" rx="10" stroke="#6F4CCE" stroke-width="3" stroke-linecap="round" stroke-linejoin="round"/>
</g>
</svg>
