<svg width="160" height="160" viewBox="0 0 160 160" fill="none" xmlns="http://www.w3.org/2000/svg">
<path d="M80.2607 14.2942C80.5585 15.1265 80.8678 15.9741 81.1885 16.8369C81.6996 18.2184 82.5813 19.4324 83.7371 20.3457C84.8928 21.2589 86.2778 21.8362 87.74 22.014C88.049 22.0311 88.3587 22.0311 88.6677 22.014C89.9901 22.0135 91.2918 21.6858 92.4568 21.0603C93.6219 20.4348 94.6142 19.5309 95.3452 18.429C95.9179 17.5585 96.4906 16.7339 96.9717 15.9206L97.1893 15.5885V15.8634C97.1893 16.8255 97.2466 17.9136 97.3153 19.0819C97.4017 20.5968 97.9163 22.056 98.7992 23.2901C99.6821 24.5241 100.897 25.4823 102.303 26.0533C103.709 26.6243 105.248 26.7846 106.741 26.5156C108.234 26.2466 109.621 25.5594 110.739 24.5338C111.461 23.881 112.113 23.251 112.72 22.6669L112.961 22.4378C112.36 24.8947 112.561 27.4793 113.534 29.814C113.948 30.7978 114.556 31.6889 115.319 32.4349C116.083 33.1809 116.988 33.7669 117.981 34.1585C118.975 34.55 120.036 34.7392 121.103 34.715C122.171 34.6908 123.223 34.4537 124.197 34.0175L126.9 32.7919L127.175 32.6659C127.175 32.7232 127.118 32.7919 127.083 32.8492C126.625 33.8113 126.156 34.8078 125.675 35.873C125.073 37.2019 124.846 38.6698 125.017 40.1184C125.188 41.567 125.751 42.9415 126.645 44.0939C127.54 45.2463 128.731 46.1328 130.092 46.6581C131.453 47.1833 132.931 47.3274 134.368 47.0747L137.804 46.4448H137.884L137.678 46.6967C137.071 47.4412 136.453 48.1857 135.857 48.9875C135.119 49.9033 134.591 50.9702 134.312 52.1127C134.032 53.2552 134.007 54.4453 134.239 55.5984C134.471 56.7516 134.953 57.8397 135.652 58.7854C136.352 59.7312 137.251 60.5116 138.285 61.0711C140.098 62.0336 142.083 62.6291 144.127 62.8235L143.955 62.9381C143.038 63.5795 142.099 64.2323 141.16 64.9081C139.935 65.7859 138.982 66.9913 138.41 68.386C137.839 69.7806 137.672 71.3082 137.929 72.7933C138.186 74.2784 138.857 75.661 139.864 76.7824C140.871 77.9039 142.174 78.7188 143.623 79.1336L145.65 79.6948L146.623 79.9583C145.478 80.3477 144.333 80.76 143.187 81.2182C141.829 81.7428 140.639 82.6275 139.745 83.7773C138.852 84.9271 138.288 86.2985 138.115 87.7444C137.942 89.1902 138.166 90.6559 138.763 91.9841C139.36 93.3123 140.307 94.4529 141.504 95.2833L144.012 96.9899L144.333 97.1961H144.104L141.126 97.3679C139.674 97.4722 138.277 97.97 137.087 98.8077C135.896 99.6455 134.956 100.792 134.367 102.123C133.779 103.455 133.564 104.921 133.745 106.366C133.927 107.81 134.499 109.178 135.399 110.322C136.246 111.387 137.06 112.361 137.838 113.3H137.758C136.521 113.071 135.25 112.83 133.898 112.624C133.496 112.565 133.091 112.535 132.684 112.533C131.293 112.519 129.922 112.868 128.706 113.546C127.49 114.223 126.472 115.205 125.75 116.395C125.029 117.586 124.63 118.943 124.593 120.334C124.556 121.726 124.881 123.103 125.537 124.33C125.904 125.006 126.247 125.636 126.591 126.231C126.694 126.426 126.809 126.621 126.9 126.804C125.591 126.125 124.156 125.721 122.685 125.617C121.214 125.512 119.737 125.71 118.344 126.197C116.61 126.797 115.133 127.973 114.162 129.531C113.191 131.088 112.783 132.931 113.007 134.753C113.133 135.818 113.282 136.837 113.442 137.834L113.316 137.731C112.411 136.952 111.483 136.162 110.464 135.337C109.338 134.426 107.986 133.837 106.552 133.633C105.118 133.429 103.656 133.617 102.32 134.177C100.984 134.737 99.8255 135.649 98.9665 136.815C98.1075 137.982 97.5804 139.359 97.4413 140.8C97.3267 142.049 97.2695 143.217 97.2351 144.236L97.1664 144.122C96.5479 143.24 95.9179 142.335 95.2651 141.43C94.5238 140.393 93.5459 139.548 92.4125 138.964C91.2791 138.38 90.0228 138.075 88.7479 138.074C88.407 138.074 88.0664 138.097 87.7285 138.143C86.2943 138.328 84.9366 138.897 83.7994 139.79C82.6622 140.683 81.7877 141.867 81.2686 143.217C80.8334 144.362 80.4325 145.416 80.0431 146.458V146.31C79.6842 145.286 79.3024 144.256 78.8977 143.217C78.3964 141.848 77.5311 140.641 76.3948 139.726C75.2585 138.812 73.8944 138.225 72.4493 138.029C72.0931 137.974 71.7331 137.947 71.3726 137.948C70.0948 137.949 68.8356 138.255 67.7 138.84C66.5644 139.426 65.5852 140.275 64.844 141.316C64.1912 142.221 63.5612 143.125 62.9542 144.019L62.8167 144.202V144.099C62.748 143.057 62.6793 142.003 62.5877 140.915C62.4709 139.461 61.9601 138.067 61.11 136.883C60.26 135.698 59.1029 134.767 57.7635 134.191C56.424 133.615 54.9527 133.415 53.5081 133.613C52.0635 133.811 50.7001 134.399 49.5648 135.314C48.6256 136.07 47.7437 136.803 46.8846 137.513L47.297 135.497C47.564 134.127 47.4688 132.712 47.0209 131.39C46.5729 130.068 45.7877 128.886 44.7428 127.961L44.5481 127.766C43.4122 126.592 41.9446 125.792 40.3418 125.475C38.739 125.158 37.0775 125.338 35.5798 125.991C34.6559 126.388 33.7625 126.77 32.8997 127.136C33.4265 125.991 34.045 124.845 34.549 123.62C35.1002 122.399 35.3366 121.059 35.2367 119.723C35.1367 118.387 34.7035 117.097 33.9768 115.972C33.25 114.846 32.2528 113.921 31.0762 113.28C29.8996 112.639 28.5813 112.304 27.2415 112.304C26.5972 112.306 25.9553 112.382 25.3288 112.533L23.3129 113.059L22.2592 113.323C23.0609 112.372 23.8856 111.376 24.7217 110.299C25.6222 109.148 26.1909 107.772 26.3663 106.321C26.5417 104.87 26.3171 103.399 25.7168 102.067C25.1166 100.734 24.1635 99.5907 22.9605 98.7606C21.7576 97.9304 20.3507 97.4449 18.8918 97.3565C17.8609 97.3565 16.853 97.2648 15.8565 97.2419H15.6618L16.0284 97.0014C16.8759 96.4402 17.7579 95.856 18.6513 95.2375C19.8675 94.3992 20.8285 93.2413 21.4282 91.8914C22.0279 90.5415 22.2431 89.0522 22.05 87.5878C21.8569 86.1234 21.263 84.7408 20.3338 83.5925C19.4046 82.4443 18.1762 81.5751 16.7843 81.0807C15.6389 80.6799 14.5737 80.3363 13.5773 80.0385C14.8508 79.643 16.1012 79.1765 17.3226 78.6411C18.6254 78.0575 19.7488 77.1367 20.5767 75.9737C21.4046 74.8107 21.907 73.4478 22.0319 72.0257C22.1568 70.6036 21.8998 69.1739 21.2874 67.8844C20.6749 66.5949 19.7293 65.4923 18.5482 64.6905L16.12 63.0755C17.1508 63.0755 18.2504 63.0755 19.4759 63.0755C21.0596 63.0802 22.6091 62.6158 23.9292 61.7409C25.2492 60.8659 26.2806 59.6197 26.8931 58.1593C27.5057 56.6989 27.6721 55.0898 27.3713 53.535C27.0704 51.9801 26.3159 50.5492 25.2028 49.4227L23.5993 47.8307L22.4539 46.6853C23.0151 46.7769 23.5992 46.88 24.2063 46.9602C24.5855 47.0159 24.9684 47.0427 25.3517 47.0403C27.3302 47.0418 29.2394 46.3115 30.712 44.9901L31.342 44.4174L31.9146 43.902C33.1844 42.7591 34.0559 41.2404 34.402 39.5674C34.7482 37.8944 34.5509 36.1546 33.8389 34.6016C33.5754 34.0175 33.3005 33.4563 33.0257 32.8492L33.3578 32.9981L36.7939 34.4756C37.8004 34.9056 38.8835 35.1277 39.978 35.1285C41.2279 35.1306 42.461 34.8405 43.5788 34.2813C44.6965 33.722 45.6681 32.9092 46.4159 31.9078C47.1637 30.9063 47.667 29.7438 47.8856 28.5132C48.1042 27.2826 48.032 26.0179 47.6749 24.8202L47.171 23.0907C47.0793 22.8158 47.0106 22.5523 46.9304 22.3004C47.7322 22.9761 48.5569 23.6633 49.4273 24.362C50.5446 25.2512 51.8791 25.8259 53.2928 26.0266C54.7065 26.2274 56.1482 26.047 57.4688 25.504C58.7894 24.961 59.9411 24.0752 60.8048 22.9382C61.6684 21.8011 62.2128 20.4539 62.3815 19.0361C62.5304 17.7532 62.6449 16.5391 62.748 15.3594L62.8396 15.4854C63.5612 16.5277 64.2943 17.6043 65.1304 18.7268C65.863 19.726 66.8173 20.5418 67.9182 21.1101C69.0192 21.6785 70.2369 21.984 71.4757 22.0026H71.6017C72.8185 22.0016 74.0191 21.7236 75.1125 21.1898C76.2059 20.656 77.1635 19.8803 77.9127 18.9215C79.0119 17.5119 79.8427 15.9124 80.3638 14.2026M80.1118 0C77.2255 0 76.0687 2.59999 74.5682 4.6502C72.5638 7.38764 73.755 11.1788 71.4986 14.0766C69.1163 10.8352 67.2149 7.61671 64.7066 4.97091C64.1486 4.2735 63.4548 3.69666 62.6673 3.27534C61.8798 2.85401 61.0149 2.59698 60.1251 2.51981C58.0863 2.51981 56.4141 4.20351 55.6353 7.422C54.9784 10.9781 54.5272 14.569 54.2837 18.177C51.3745 15.8863 48.7172 13.2748 45.6247 11.3964C44.4918 10.6321 43.1748 10.1852 41.8106 10.1022C39.4168 10.1022 37.9164 12.0951 37.6415 15.7488C37.3666 19.4026 38.6151 22.9418 39.8406 27.2025C36.0494 25.5647 32.9684 24.1444 29.7155 22.8501C28.7627 22.4225 27.7356 22.1852 26.6917 22.1515C25.5502 22.1232 24.442 22.5378 23.5993 23.3083C21.4803 25.244 21.9385 27.6492 22.8204 29.9056C23.897 32.6545 25.2486 35.2888 26.4741 37.9232L25.3288 39.0113C24.5041 38.8968 23.668 38.7479 22.8433 38.599C20.512 38.124 18.1434 37.8557 15.7649 37.7972H15.3755C10.6909 37.9003 9.20195 40.7866 11.1147 45.0818C12.7411 48.724 15.6962 51.3469 19.4759 55.1381C17.1165 55.1381 15.2037 55.0694 13.4742 55.0694C12.3288 55.0694 11.3552 55.0694 10.3359 55.1954C7.39226 55.4474 4.08214 55.791 2.98259 59.1125C1.88303 62.4341 4.52884 64.576 6.83103 66.4086C9.13323 68.2411 11.3438 69.5354 14.0354 71.368C10.313 73.0402 6.34998 73.3724 3.18875 75.5601C-1.01475 78.4578 -1.07202 81.4587 3.07422 84.4023C6.18963 86.6243 9.94644 87.2199 14.1041 88.6745C11.3438 90.5759 8.82398 92.1107 6.54469 93.9433C4.2654 95.7758 1.96321 97.5168 2.92532 100.815C3.88743 104.114 6.95702 104.412 9.60283 104.87C12.5335 105.225 15.4817 105.416 18.4336 105.443C15.9367 108.638 13.3596 111.341 11.4927 114.468C8.7438 119.05 10.5306 122.051 15.9253 122.314H16.5667C18.3253 122.25 20.0759 122.043 21.801 121.696C23.5076 121.421 25.1684 120.905 27.2644 120.39C25.6179 123.636 24.1422 126.966 22.8433 130.366C21.3314 134.948 22.8433 137.696 26.5429 137.696C27.5506 137.677 28.5516 137.527 29.5208 137.25C32.6537 136.163 35.7142 134.877 38.6838 133.401C38.9062 133.641 39.1434 133.867 39.3939 134.077C38.8212 136.986 38.1111 139.873 37.7331 142.793C37.4353 145.187 37.7331 147.604 39.9666 149.15C40.656 149.641 41.4795 149.909 42.326 149.917C43.8772 149.752 45.3383 149.107 46.5067 148.073C49.1868 146.161 51.6723 143.973 54.6044 141.602C54.8793 145.038 54.9824 148.108 55.4062 151.154C55.7727 153.709 56.4256 156.4 59.3577 157.202C59.7492 157.312 60.1536 157.37 60.5603 157.374C62.622 157.374 64.1454 155.828 65.4053 154.293C67.5127 151.727 69.311 148.91 71.3841 146.012C72.5867 149.333 73.6061 152.586 74.9691 155.69C75.9083 157.809 77.2598 159.882 79.9973 159.882H80.1576C82.7118 159.813 84.0175 157.901 84.9224 155.954C86.3197 152.941 87.362 149.769 88.7594 146.149C90.8325 149.058 92.6765 151.876 94.7611 154.465C95.9866 155.988 97.4985 157.397 99.4571 157.397C99.9364 157.391 100.412 157.31 100.866 157.156C103.157 156.4 103.787 154.201 104.451 152.071C105.47 148.818 105.069 145.451 105.436 141.591C108.08 143.94 110.848 146.146 113.728 148.199C115.037 149.158 116.589 149.73 118.207 149.849C120.704 149.849 122.147 147.707 122.113 143.664C121.921 140.353 121.538 137.057 120.967 133.791C121.281 133.683 121.609 133.625 121.941 133.619C123.464 133.619 124.495 134.936 125.789 135.429C128.08 136.299 130.577 137.903 132.936 137.903C133.554 137.905 134.165 137.782 134.734 137.542C135.303 137.302 135.817 136.949 136.246 136.505C139.683 133.149 136.865 129.14 135.296 125.601C134.597 123.986 133.646 122.474 132.604 120.539C136.533 121.146 140.141 122.062 143.76 122.165H144.149C149.475 122.165 151.251 118.844 148.399 114.079C146.601 111.078 144.104 108.501 141.618 105.351C144.711 105.145 147.746 105.145 150.712 104.675C153.415 104.24 156.497 103.69 157.252 100.449C157.928 97.5397 155.741 95.6613 153.736 94.0692C151.308 92.1565 148.685 90.5071 146.028 88.6745C149.624 87.2772 153.278 86.2807 156.519 84.5169C161.17 81.9741 161.101 78.3089 156.668 75.4226C154.97 74.4258 153.169 73.6155 151.297 73.0059C149.636 72.3874 147.86 71.998 145.799 71.4024C148.811 69.2491 151.72 67.3707 154.389 65.183C156.21 63.694 158.043 61.8156 157.161 59.124C156.279 56.4324 153.862 55.9513 151.571 55.287C150.586 55.0492 149.573 54.9451 148.559 54.9778H147.059C145.355 55.0986 143.648 54.7832 142.099 54.0615C144.046 51.6447 146.097 49.3082 147.895 46.7884C149.281 44.8527 150.529 42.5849 149.223 40.1796C148.078 38.1065 146.165 37.6025 144.149 37.6025C143.575 37.608 143.002 37.6424 142.431 37.7056C139.534 37.9919 136.705 38.6562 133.028 39.2976C134.494 36.0677 135.914 33.399 136.911 30.5814C137.758 28.199 138.56 25.5188 136.327 23.377C135.917 22.968 135.428 22.6457 134.891 22.4293C134.354 22.2129 133.779 22.1067 133.2 22.1171C131.968 22.1762 130.758 22.4717 129.638 22.9876C126.74 24.1329 123.911 25.5074 120.967 26.8246C120.028 24.5338 121.757 22.7356 121.826 20.6625C121.952 17.2264 123.624 13.0801 119.879 10.8581C119.131 10.3844 118.267 10.1268 117.382 10.1136C114.794 10.1136 112.652 12.4044 110.51 14.0651C108.849 15.325 107.406 16.8598 105.344 18.7612C105.316 15.8671 105.132 12.9766 104.795 10.1022C104.302 7.26165 104.187 3.81408 100.66 2.86343C100.215 2.74444 99.757 2.68285 99.2968 2.68017C96.6395 2.68017 95.0016 4.97091 93.4554 6.99821C91.9091 9.02552 90.4202 11.4881 88.6792 14.1224C87.4193 10.6863 86.3884 7.62816 85.1171 4.66166C84.1664 2.474 82.8951 0.0801755 80.192 0.0801755L80.1118 0Z" fill="#101010"/>
</svg>
