<svg width="28" height="27" viewBox="0 0 28 27" fill="none" xmlns="http://www.w3.org/2000/svg">
<rect x="0.933197" y="0.266602" width="26.5093" height="26.5093" rx="5.92971" fill="#101010"/>
<path fill-rule="evenodd" clip-rule="evenodd" d="M16.476 7.17497C14.5806 6.48479 12.4756 6.68073 10.7401 7.70889C10.3837 7.92001 10.266 8.38006 10.4771 8.73643C10.6882 9.0928 11.1483 9.21054 11.5046 8.99942C12.8535 8.2003 14.4896 8.04801 15.9628 8.58444C17.436 9.12087 18.5911 10.2895 19.1103 11.7689C19.2475 12.1597 19.6755 12.3653 20.0664 12.2281C20.4572 12.091 20.6628 11.6629 20.5257 11.2721C19.8576 9.36874 18.3715 7.86515 16.476 7.17497ZM9.38211 9.83188C9.73836 10.0432 9.85585 10.5033 9.64452 10.8596C9.16664 11.6652 8.91435 12.5845 8.91412 13.5212V15.522C8.91412 15.9362 8.57834 16.272 8.16412 16.272C7.74991 16.272 7.41412 15.9362 7.41412 15.522V13.5212C7.41438 12.3153 7.73917 11.1315 8.35442 10.0943C8.56575 9.73803 9.02586 9.62055 9.38211 9.83188ZM14.9166 13.5212C14.9166 13.107 14.5808 12.7712 14.1666 12.7712C13.7524 12.7712 13.4166 13.107 13.4166 13.5212V19.5237C13.4166 19.938 13.7524 20.2737 14.1666 20.2737C14.5808 20.2737 14.9166 19.938 14.9166 19.5237V13.5212ZM20.9191 14.5217C20.9191 14.1075 20.5833 13.7717 20.1691 13.7717C19.7549 13.7717 19.4191 14.1075 19.4191 14.5217V15.5221C19.4191 15.9364 19.7549 16.2721 20.1691 16.2721C20.5833 16.2721 20.9191 15.9364 20.9191 15.5221V14.5217ZM11.5843 10.796C12.3319 10.0864 13.3387 9.71572 14.3679 9.77104C14.3766 9.7715 14.3853 9.77212 14.394 9.77289C16.4181 9.95247 17.9573 11.6682 17.9179 13.6989V18.5233C17.9179 18.9375 17.5821 19.2733 17.1679 19.2733C16.7537 19.2733 16.4179 18.9375 16.4179 18.5233V13.6913L16.418 13.6751C16.4448 12.4343 15.5086 11.3845 14.2745 11.2682C13.6613 11.2388 13.0624 11.4611 12.6169 11.884C12.1682 12.3098 11.9145 12.9015 11.9154 13.5201L11.9154 13.5212L11.9154 14.5216C11.9154 14.9358 11.5796 15.2716 11.1654 15.2716C10.7512 15.2716 10.4154 14.9358 10.4154 14.5216C10.4154 14.5216 10.376 13.9102 10.4154 13.5217L11.5843 10.796ZM11.9154 17.5229C11.9154 17.1087 11.5796 16.7729 11.1654 16.7729C10.7512 16.7729 10.4154 17.1087 10.4154 17.5229V18.5234C10.4154 18.9376 10.7512 19.2734 11.1654 19.2734C11.5796 19.2734 11.9154 18.9376 11.9154 18.5234V17.5229Z" fill="#E8F507"/>
</svg>
