<svg width="23" height="16" viewBox="0 0 23 16" fill="none" xmlns="http://www.w3.org/2000/svg">
<path d="M22.3738 8.70711C22.7643 8.31658 22.7643 7.68342 22.3738 7.29289L16.0098 0.928932C15.6193 0.538408 14.9861 0.538408 14.5956 0.928932C14.2051 1.31946 14.2051 1.95262 14.5956 2.34315L20.2524 8L14.5956 13.6569C14.2051 14.0474 14.2051 14.6805 14.5956 15.0711C14.9861 15.4616 15.6193 15.4616 16.0098 15.0711L22.3738 8.70711ZM1.66666 7C1.11437 7 0.666656 7.44772 0.666656 8C0.666656 8.55228 1.11437 9 1.66666 9V7ZM21.6667 7L1.66666 7V9L21.6667 9V7Z" fill="#E8F507"/>
</svg>
