<svg width="14" height="62" viewBox="0 0 14 62" fill="none" xmlns="http://www.w3.org/2000/svg">
<path d="M1.70711 0.292893C1.31658 -0.0976311 0.683417 -0.0976311 0.292893 0.292893C-0.0976311 0.683417 -0.0976311 1.31658 0.292893 1.70711L1.70711 0.292893ZM0 61C0 61.5523 0.447715 62 1 62H10C10.5523 62 11 61.5523 11 61C11 60.4477 10.5523 60 10 60H2V52C2 51.4477 1.55228 51 1 51C0.447715 51 0 51.4477 0 52V61ZM0.292893 1.70711C7.31676 8.73097 11.1272 19.5825 11.2501 30.6361C11.3728 41.6854 7.80919 52.7766 0.292893 60.2929L1.70711 61.7071C9.69081 53.7234 13.3772 42.0646 13.2499 30.6139C13.1228 19.1675 9.18324 7.76903 1.70711 0.292893L0.292893 1.70711Z" fill="white"/>
</svg>
