<svg width="161" height="162" viewBox="0 0 161 162" fill="none" xmlns="http://www.w3.org/2000/svg">
<path d="M133 106C133 121.47 120.456 134 105 134C108.678 133.998 112.319 134.721 115.717 136.128C119.115 137.534 122.203 139.597 124.803 142.197C127.403 144.797 129.466 147.885 130.872 151.283C132.279 154.681 133.002 158.322 133 162C132.998 158.322 133.721 154.681 135.128 151.283C136.534 147.885 138.597 144.797 141.197 142.197C143.797 139.597 146.885 137.534 150.283 136.128C153.681 134.721 157.322 133.998 161 134C145.53 134 133 121.47 133 106Z" fill="white"/>
<path d="M49.5 0C49.5 27.6257 27.3248 50 0 50C6.50134 49.9967 12.9396 51.2878 18.9466 53.7994C24.9537 56.3109 30.4119 59.9938 35.009 64.6374C39.6061 69.281 43.2522 74.7942 45.7386 80.862C48.2251 86.9297 49.5032 93.433 49.5 100C49.4968 93.433 50.7749 86.9297 53.2614 80.862C55.7478 74.7942 59.3938 69.281 63.991 64.6374C68.5881 59.9938 74.0463 56.3109 80.0533 53.7994C86.0604 51.2878 92.4987 49.9967 99 50C71.6506 50 49.5 27.6257 49.5 0Z" fill="white"/>
</svg>
