<svg width="308" height="157" viewBox="0 0 308 157" fill="none" xmlns="http://www.w3.org/2000/svg">
<g clip-path="url(#clip0_406_509)">
<path d="M276.94 94.152C253.557 130.782 210.053 150.087 179.767 137.272C149.481 124.456 143.875 84.3912 167.258 47.7716C190.64 11.1521 234.133 -8.15227 264.419 4.65207C294.706 17.4564 300.257 57.5325 276.94 94.152Z" fill="#E8F507"/>
<path d="M200.107 141.924C193 141.998 185.952 140.641 179.385 137.935C167.159 132.761 158.544 123.152 154.487 110.152C148.641 91.4239 153.036 68.5435 166.549 47.3804C190.073 10.5435 234.057 -8.92395 264.605 3.98909C276.841 9.16301 285.446 18.7717 289.503 31.7717C295.349 50.5 290.954 73.3804 277.507 94.5326C258.901 123.663 227.524 141.924 200.107 141.924ZM243.916 1.41301C217 1.41301 186.114 19.4456 167.803 48.1521C154.519 68.9565 150.19 91.4021 155.904 109.728C157.646 115.721 160.715 121.248 164.884 125.902C169.054 130.556 174.218 134.219 179.996 136.62C209.922 149.283 253.066 130.098 276.274 93.7717C289.558 72.9674 293.898 50.5217 288.173 32.1956C284.247 19.6087 275.914 10.3152 264.092 5.31518C257.699 2.6754 250.836 1.34821 243.916 1.41301Z" fill="#101010"/>
<path d="M166.887 128.978L182.875 144.054C186.614 147.558 190.955 150.364 195.69 152.337C225.976 165.152 269.491 145.815 292.862 109.217C312.428 78.5651 311.697 45.489 293.168 28.0216L277.19 12.9456C295.731 30.4129 296.451 63.489 276.885 94.1412C253.503 130.772 209.998 150.076 179.712 137.261C174.974 135.288 170.63 132.482 166.887 128.978Z" fill="#E8F507"/>
<path d="M216.084 157C208.978 157.077 201.929 155.72 195.362 153.011C190.528 151.003 186.096 148.146 182.275 144.576L166.396 129.511C166.262 129.377 166.187 129.195 166.187 129.005C166.187 128.816 166.262 128.634 166.396 128.5C166.462 128.433 166.541 128.379 166.628 128.343C166.715 128.306 166.809 128.287 166.903 128.287C166.998 128.287 167.091 128.306 167.178 128.343C167.265 128.379 167.344 128.433 167.41 128.5C171.086 131.954 175.357 134.719 180.018 136.663C209.944 149.326 253.088 130.141 276.296 93.8152C295.229 64.163 295.404 31.1413 276.721 13.5109C276.654 13.4451 276.6 13.3665 276.564 13.2797C276.527 13.1929 276.508 13.0996 276.508 13.0055C276.508 12.9113 276.527 12.818 276.564 12.7312C276.6 12.6444 276.654 12.5658 276.721 12.5C276.856 12.3666 277.039 12.2917 277.229 12.2917C277.419 12.2917 277.601 12.3666 277.736 12.5L293.713 27.5761C312.908 45.6739 312.831 79.4457 293.528 109.674C274.878 138.739 243.502 157 216.084 157ZM175.339 135.967L183.366 143.576C187.046 147.025 191.316 149.79 195.973 151.739C225.91 164.402 269.044 145.217 292.263 108.891C311.185 79.2392 311.359 46.2174 292.677 28.587L284.661 21.0326C296.461 40.0435 294.062 68.6087 277.496 94.5761C253.971 131.424 209.987 150.902 179.429 137.978C178.022 137.337 176.659 136.685 175.339 135.967Z" fill="#101010"/>
</g>
<g clip-path="url(#clip1_406_509)">
<path d="M200.94 94.152C177.557 130.782 134.053 150.087 103.767 137.272C73.4807 124.456 67.875 84.3912 91.2575 47.7716C114.64 11.1521 158.133 -8.15227 188.419 4.65207C218.706 17.4564 224.257 57.5325 200.94 94.152Z" fill="#E8F507"/>
<path d="M124.107 141.924C117 141.998 109.952 140.641 103.385 137.935C91.1594 132.761 82.5436 123.152 78.4866 110.152C72.6409 91.4239 77.0361 68.5435 90.5487 47.3804C114.073 10.5435 158.057 -8.92395 188.605 3.98909C200.841 9.16301 209.446 18.7717 213.503 31.7717C219.349 50.5 214.954 73.3804 201.507 94.5326C182.901 123.663 151.524 141.924 124.107 141.924ZM167.916 1.41301C141 1.41301 110.114 19.4456 91.8029 48.1521C78.5193 68.9565 74.1896 91.4021 79.9044 109.728C81.6461 115.721 84.7147 121.248 88.8842 125.902C93.0536 130.556 98.2177 134.219 103.996 136.62C133.922 149.283 177.066 130.098 200.274 93.7717C213.558 72.9674 217.898 50.5217 212.173 32.1956C208.247 19.6087 199.914 10.3152 188.092 5.31518C181.699 2.6754 174.836 1.34821 167.916 1.41301Z" fill="#101010"/>
<path d="M90.8868 128.978L106.875 144.054C110.614 147.558 114.955 150.364 119.69 152.337C149.976 165.152 193.491 145.815 216.862 109.217C236.428 78.5651 235.697 45.489 217.168 28.0216L201.19 12.9456C219.731 30.4129 220.451 63.489 200.885 94.1412C177.503 130.772 133.998 150.076 103.712 137.261C98.9738 135.288 94.6297 132.482 90.8868 128.978Z" fill="#E8F507"/>
<path d="M140.084 157C132.978 157.077 125.929 155.72 119.362 153.011C114.528 151.003 110.096 148.146 106.275 144.576L90.396 129.511C90.2621 129.377 90.187 129.195 90.187 129.005C90.187 128.816 90.2621 128.634 90.396 128.5C90.462 128.433 90.5409 128.379 90.628 128.343C90.7151 128.306 90.8086 128.287 90.9031 128.287C90.9976 128.287 91.0912 128.306 91.1783 128.343C91.2654 128.379 91.3442 128.433 91.4102 128.5C95.0865 131.954 99.3572 134.719 104.018 136.663C133.944 149.326 177.088 130.141 200.296 93.8152C219.229 64.163 219.404 31.1413 200.721 13.5109C200.654 13.4451 200.6 13.3665 200.564 13.2797C200.527 13.1929 200.508 13.0996 200.508 13.0055C200.508 12.9113 200.527 12.818 200.564 12.7312C200.6 12.6444 200.654 12.5658 200.721 12.5C200.856 12.3666 201.039 12.2917 201.229 12.2917C201.419 12.2917 201.601 12.3666 201.736 12.5L217.713 27.5761C236.908 45.6739 236.831 79.4457 217.528 109.674C198.878 138.739 167.502 157 140.084 157ZM99.339 135.967L107.366 143.576C111.046 147.025 115.316 149.79 119.973 151.739C149.91 164.402 193.044 145.217 216.263 108.891C235.185 79.2392 235.359 46.2174 216.677 28.587L208.661 21.0326C220.461 40.0435 218.062 68.6087 201.496 94.5761C177.971 131.424 133.987 150.902 103.429 137.978C102.022 137.337 100.659 136.685 99.339 135.967Z" fill="#101010"/>
</g>
<g clip-path="url(#clip2_406_509)">
<path d="M124.94 94.152C101.557 130.782 58.0529 150.087 27.7668 137.272C-2.51928 124.456 -8.12502 84.3912 15.2575 47.7716C38.6401 11.1521 82.1334 -8.15227 112.419 4.65207C142.706 17.4564 148.257 57.5325 124.94 94.152Z" fill="#E8F507"/>
<path d="M48.1065 141.924C41.0003 141.998 33.9523 140.641 27.3851 137.935C15.1594 132.761 6.5436 123.152 2.48656 110.152C-3.35908 91.4239 1.03612 68.5435 14.5487 47.3804C38.073 10.5435 82.0571 -8.92395 112.605 3.98909C124.841 9.16301 133.446 18.7717 137.503 31.7717C143.349 50.5 138.954 73.3804 125.507 94.5326C106.901 123.663 75.5243 141.924 48.1065 141.924ZM91.9161 1.41301C65 1.41301 34.1141 19.4456 15.8029 48.1521C2.5193 68.9565 -1.81037 91.4021 3.90439 109.728C5.64612 115.721 8.71471 121.248 12.8842 125.902C17.0536 130.556 22.2177 134.219 27.9958 136.62C57.922 149.283 101.066 130.098 124.274 93.7717C137.558 72.9674 141.898 50.5217 136.173 32.1956C132.247 19.6087 123.914 10.3152 112.092 5.31518C105.699 2.6754 98.8363 1.34821 91.9161 1.41301Z" fill="#101010"/>
<path d="M14.8868 128.978L30.875 144.054C34.614 147.558 38.9545 150.364 43.6896 152.337C73.9757 165.152 117.491 145.815 140.862 109.217C160.428 78.5651 159.697 45.489 141.168 28.0216L125.19 12.9456C143.731 30.4129 144.451 63.489 124.885 94.1412C101.503 130.772 57.9983 150.076 27.7122 137.261C22.9738 135.288 18.6297 132.482 14.8868 128.978Z" fill="#E8F507"/>
<path d="M64.0839 157C56.9775 157.077 49.929 155.72 43.3624 153.011C38.5284 151.003 34.0956 148.146 30.2752 144.576L14.396 129.511C14.2621 129.377 14.187 129.195 14.187 129.005C14.187 128.816 14.2621 128.634 14.396 128.5C14.462 128.433 14.5409 128.379 14.628 128.343C14.7151 128.306 14.8086 128.287 14.9031 128.287C14.9976 128.287 15.0912 128.306 15.1783 128.343C15.2654 128.379 15.3442 128.433 15.4102 128.5C19.0865 131.954 23.3572 134.719 28.0176 136.663C57.9438 149.326 101.088 130.141 124.296 93.8152C143.229 64.163 143.404 31.1413 124.721 13.5109C124.654 13.4451 124.6 13.3665 124.564 13.2797C124.527 13.1929 124.508 13.0996 124.508 13.0055C124.508 12.9113 124.527 12.818 124.564 12.7312C124.6 12.6444 124.654 12.5658 124.721 12.5C124.856 12.3666 125.039 12.2917 125.229 12.2917C125.419 12.2917 125.601 12.3666 125.736 12.5L141.713 27.5761C160.908 45.6739 160.831 79.4457 141.528 109.674C122.878 138.739 91.5017 157 64.0839 157ZM23.339 135.967L31.3658 143.576C35.0457 147.025 39.3155 149.79 43.9732 151.739C73.9103 164.402 117.044 145.217 140.263 108.891C159.185 79.2392 159.359 46.2174 140.677 28.587L132.661 21.0326C144.461 40.0435 142.062 68.6087 125.496 94.5761C101.971 131.424 57.9875 150.902 27.4287 137.978C26.0218 137.337 24.6586 136.685 23.339 135.967Z" fill="#101010"/>
</g>
<defs>
<clipPath id="clip0_406_509">
<rect width="156" height="157" fill="white" transform="translate(152)"/>
</clipPath>
<clipPath id="clip1_406_509">
<rect width="156" height="157" fill="white" transform="translate(76)"/>
</clipPath>
<clipPath id="clip2_406_509">
<rect width="156" height="157" fill="white"/>
</clipPath>
</defs>
</svg>
