<svg width="561" height="474" viewBox="0 0 561 474" fill="none" xmlns="http://www.w3.org/2000/svg">
<path d="M535.71 232.46C535.71 231.61 535.6 230.77 535.53 229.92L535.47 229.31L536.47 229.22C536.47 229.42 536.47 229.62 536.52 229.81C536.59 230.67 536.66 231.53 536.71 232.39L535.71 232.46Z" fill="#101010"/>
<path d="M536.85 237.8H535.85C535.85 236.41 535.85 235.03 535.77 233.87H536.77V234.24V234.92C536.77 235.92 536.77 236.86 536.77 237.83L536.85 237.8Z" fill="#101010"/>
<path d="M535.27 227.3L535.21 226.79L536.21 226.69L536.26 227.19L535.27 227.3Z" fill="#101010"/>
<path d="M535.81 234.88C535.81 234.66 535.81 234.44 535.81 234.22V233.8L535.75 232.42C535.69 231.37 535.61 230.32 535.51 229.28C535.45 228.6 535.38 227.93 535.3 227.28V227.02C533.781 214.266 529.443 202.01 522.6 191.14L522.52 191.01V190.87C522.495 184.453 520.938 178.134 517.98 172.44L518.85 171.96C520.19 174.18 521.48 176.38 522.57 178.31C524.2 181.2 526 185.44 526.97 187.72C529.67 194.157 531.844 200.802 533.47 207.59C533.65 208.52 533.88 209.54 534.11 210.59C534.64 212.97 535.18 215.44 535.42 217.52C535.58 218.9 535.73 220.4 535.87 221.95C536.446 226.224 536.78 230.528 536.87 234.84L535.81 234.88ZM523.46 190.8C528.103 198.24 531.614 206.328 533.88 214.8C533.64 213.53 533.35 212.21 533.06 210.92C532.83 209.86 532.6 208.83 532.42 207.92C530.804 201.201 528.65 194.624 525.98 188.25C524.98 185.99 523.23 181.78 521.63 178.95L521.52 178.75C522.786 182.642 523.441 186.707 523.46 190.8Z" fill="#101010"/>
<path d="M536.85 237.8H535.85C535.85 236.8 535.85 235.86 535.85 234.9H536.85C536.84 235.8 536.85 236.8 536.85 237.8Z" fill="#101010"/>
<path d="M517.93 172.49C516.17 169.58 514.35 166.67 512.66 164.08L513.48 163.51C515.5 166.182 517.28 169.026 518.8 172.01L517.93 172.49Z" fill="#101010"/>
<path d="M536.78 239.62H535.78V239.54V239.13C535.78 239.05 535.78 238.98 535.78 238.9C535.78 238.54 535.78 238.18 535.78 237.82H536.78C536.78 238.24 536.78 238.66 536.78 239.08V239.16C536.79 239.3 536.79 239.46 536.78 239.62Z" fill="#101010"/>
<path d="M536.85 237.8H535.85C535.85 236.8 535.85 235.8 535.7 234.54C535.58 232.11 535.42 229.6 535.23 227.06L536.23 226.96V227.23C536.3 227.91 536.38 228.58 536.44 229.23C536.53 230.29 536.62 231.35 536.68 232.41C536.68 232.74 536.68 233.07 536.68 233.41V233.82C536.68 234.99 536.76 236.38 536.76 237.82L536.85 237.8Z" fill="#101010"/>
<path d="M535.47 229.31C535.41 228.643 535.34 227.977 535.26 227.31L536.26 227.2C536.33 227.87 536.41 228.55 536.47 229.2L535.47 229.31Z" fill="#101010"/>
<path d="M535.77 233.8V233.39C535.77 233.22 535.77 233.04 535.77 232.87C535.77 232.7 535.77 232.57 535.77 232.42L536.77 232.36C536.77 232.52 536.77 232.67 536.77 232.82C536.77 233.13 536.77 233.45 536.77 233.76L535.77 233.8Z" fill="#101010"/>
<path d="M535.85 237.78V237.77H536.85L535.85 237.78Z" fill="#101010"/>
<path d="M536.79 239.4H535.79C535.79 238.853 535.81 238.323 535.85 237.81H536.85C536.85 238.24 536.85 238.66 536.85 239.07L536.79 239.4Z" fill="#101010"/>
<path d="M535.85 237.8C535.85 236.75 535.76 235.62 535.7 234.47L536.7 234.41C536.8 235.69 536.85 236.76 536.85 237.78L535.85 237.8Z" fill="#101010"/>
<path d="M24.23 232.46L23.23 232.4C23.28 231.4 23.36 230.47 23.44 229.52V229.22L24.44 229.31C24.445 229.403 24.445 229.497 24.44 229.59C24.33 230.55 24.33 231.5 24.23 232.46Z" fill="#101010"/>
<path d="M23.09 237.8V237.71V236.71V235.03V234.92V234.27V233.87H24.09C24.09 234.71 24.03 235.65 24.01 236.63V237.69V237.8H23.01H23.09Z" fill="#101010"/>
<path d="M24.67 227.3L23.68 227.19L23.73 226.69L24.73 226.79L24.67 227.3Z" fill="#101010"/>
<path d="M24.12 234.88H23.12C23.21 230.568 23.5438 226.264 24.12 221.99C24.27 220.44 24.42 218.94 24.58 217.56C24.82 215.47 25.36 213.01 25.89 210.63C26.12 209.57 26.35 208.56 26.53 207.63C28.1555 200.842 30.3293 194.197 33.03 187.76C34.03 185.48 35.8 181.23 37.42 178.35C38.51 176.43 39.79 174.24 41.14 172L42.02 172.48C39.0821 178.143 37.5264 184.421 37.48 190.8V190.95L37.41 191.12C30.5589 201.986 26.22 214.244 24.71 227V227.26L24.5 229.26C24.41 230.31 24.33 231.36 24.27 232.41L24.21 233.65V234.2L24.12 234.88ZM38.41 178.63L38.33 178.8C36.74 181.62 34.95 185.8 33.99 188.1C31.3012 194.48 29.1374 201.068 27.52 207.8C27.33 208.73 27.11 209.75 26.87 210.8C26.59 212.1 26.29 213.42 26.05 214.69C28.3148 206.216 31.8301 198.127 36.48 190.69C36.4976 186.595 37.1486 182.526 38.41 178.63Z" fill="#101010"/>
<path d="M23.09 237.8C23.09 236.8 23.09 235.8 23.09 234.87H24.09C24.09 235.87 24.09 236.87 24.09 237.76H23.09V237.8Z" fill="#101010"/>
<path d="M42.01 172.49L41.13 172.01C42.6502 169.026 44.4304 166.182 46.45 163.51L47.27 164.08C45.58 166.67 43.76 169.58 42.01 172.49Z" fill="#101010"/>
<path d="M23.15 239.62C23.155 239.54 23.155 239.46 23.15 239.38V239.06C23.15 238.64 23.15 238.22 23.15 237.8H24.15C24.15 238.16 24.15 238.52 24.15 238.87C24.15 238.97 24.15 239.07 24.15 239.17V239.59L23.15 239.62Z" fill="#101010"/>
<path d="M23.09 237.8C23.09 236.41 23.09 235.02 23.17 233.8V233.39C23.17 233.06 23.17 232.73 23.17 232.39C23.23 231.33 23.31 230.27 23.41 229.21C23.47 228.53 23.54 227.86 23.62 227.21V226.94L24.62 227.04C24.43 229.58 24.27 232.04 24.14 234.5C24.04 235.76 24 236.8 24 237.78H23L23.09 237.8Z" fill="#101010"/>
<path d="M23.09 237.79V237.75L24.09 237.78L23.09 237.79Z" fill="#101010"/>
<path d="M24.46 229.31L23.46 229.22C23.52 228.55 23.59 227.88 23.67 227.22L24.67 227.33L24.46 229.33V229.31Z" fill="#101010"/>
<path d="M24.17 233.8H23.17V233.66V233.1V232.4L24.17 232.46V233.14C24.1648 233.236 24.1648 233.333 24.17 233.43V233.8Z" fill="#101010"/>
<path d="M23.09 237.78V237.77H24.09L23.09 237.78Z" fill="#101010"/>
<path d="M23.15 239.4V239.06C23.15 238.64 23.15 238.22 23.15 237.8H24.15C24.15 238.307 24.17 238.837 24.21 239.39L23.15 239.4Z" fill="#101010"/>
<path d="M24.09 237.8H23.09C23.09 236.8 23.09 235.71 23.24 234.43L24.24 234.49C24.18 235.63 24.12 236.8 24.09 237.8Z" fill="#101010"/>
<path d="M59.16 288.98L58.37 288.46C51.4225 283.971 44.9992 278.718 39.22 272.8C29.05 262.17 23.65 250.93 23.15 239.39C23.15 238.84 23.15 238.31 23.09 237.81C23.09 236.71 23.18 235.58 23.23 234.42C23.36 232 23.52 229.48 23.71 226.93C25.2455 214.023 29.635 201.62 36.56 190.62L37.47 189.15V190.88C37.5025 195.008 38.198 199.103 39.53 203.01C43.62 215.14 53.62 226.63 69.24 237.19L70.03 237.71L70.81 238.22L70.62 238.61C63.1146 254.007 59.19 270.902 59.14 288.03L59.16 288.98ZM24.23 234.48C24.23 235.63 24.12 236.76 24.09 237.81C24.09 238.28 24.09 238.81 24.15 239.36C24.63 250.65 29.95 261.67 39.94 272.12C45.4484 277.765 51.5542 282.795 58.15 287.12C58.3416 270.307 62.2302 253.742 69.54 238.6L68.73 238.07C52.92 227.39 42.79 215.72 38.64 203.38C37.4569 199.91 36.7603 196.292 36.57 192.63C30.223 203.141 26.1932 214.886 24.75 227.08C24.56 229.6 24.4 232.08 24.27 234.52L24.23 234.48Z" fill="#101010"/>
<path d="M72.57 333.85L70.57 332.55C60.57 325.92 52.57 318.78 46.98 311.33L46.57 310.84C44.9 308.51 43.57 306.52 42.57 304.75C39.0481 298.819 35.8728 292.688 33.06 286.39C30.7095 280.459 28.6767 274.407 26.97 268.26C25.42 262.93 24.51 255.74 23.78 249.96L23.56 248.17C23.29 246.05 23.23 243.5 23.17 241.03V239.46V239.39H24.17C24.65 250.68 29.97 261.7 39.96 272.15C45.6987 278.008 52.0712 283.21 58.96 287.66L59.19 287.81V288.08C59.2179 295.303 60.1075 302.497 61.84 309.51C63.7786 317.426 66.9832 324.976 71.33 331.87L72.57 333.85ZM47.12 309.8L47.45 310.19C52.65 317.25 59.98 324.04 69.25 330.39C65.449 323.934 62.6123 316.957 60.83 309.68C59.1027 302.676 58.2032 295.494 58.15 288.28C51.2906 283.831 44.9423 278.64 39.22 272.8C31.85 265.1 26.98 257.07 24.67 248.85L24.8 249.85C25.52 255.6 26.42 262.75 27.95 268C29.65 274.102 31.6694 280.11 34 286C36.7969 292.256 39.9521 298.347 43.45 304.24C44.41 305.88 45.61 307.72 47.12 309.8Z" fill="#101010"/>
<path d="M279.97 75.01C279.837 75.01 279.71 74.9573 279.616 74.8636C279.523 74.7698 279.47 74.6426 279.47 74.51C279.47 74.3774 279.523 74.2502 279.616 74.1564C279.71 74.0627 279.837 74.01 279.97 74.01C280.102 74.0126 280.227 74.0661 280.321 74.1593C280.414 74.2525 280.467 74.3782 280.47 74.51C280.47 74.6426 280.417 74.7698 280.324 74.8636C280.23 74.9573 280.103 75.01 279.97 75.01Z" fill="#101010"/>
<path d="M286.58 75.07L280.63 75.02H279.97V74.02H280.63L286.63 74.07L286.58 75.07Z" fill="#101010"/>
<path d="M466.54 120.59C465.25 119.85 463.85 119.13 462.27 118.38C460.58 117.16 458.87 115.98 457.09 114.82L457.62 113.97C460.71 115.79 463.97 117.78 467.06 119.73L466.54 120.59Z" fill="#101010"/>
<path d="M291.06 75.1601L288.57 75.1101H287.81V74.1101H288.61L291.07 74.1601L291.06 75.1601Z" fill="#101010"/>
<path d="M383.52 387.31L383.34 386.74H382.52L383.24 386.41V386.36C383.65 386.2 384.05 386.03 384.45 385.85L384.59 385.79C390.44 383.06 395.68 377.49 399.72 369.68C400.21 368.77 400.6 367.99 400.95 367.21C401.3 366.43 401.51 365.95 401.78 365.3L401.88 365.06L402.14 365L407.24 363.84C411.13 362.92 414.99 361.95 418.72 360.95C442.21 354.67 462.44 346.86 478.82 337.75C482.34 335.75 485.7 333.75 488.82 331.75L490.82 330.45L489.55 332.45C484.371 340.594 477.469 347.503 469.33 352.69L469.06 352.87C464.6 355.65 457.86 359.87 452.7 362.49C445.78 366.03 436.5 370.29 429.6 373.09C425.6 374.73 419.05 377.21 413.88 378.83L411.42 379.6L410.72 379.82C407.48 380.82 403.86 381.99 400.96 382.82C396.7 384.02 391.14 385.48 386.78 386.53L387.28 386.74H385.87L383.52 387.31ZM402.59 365.92C402.34 366.5 402.1 367.07 401.84 367.62C401.48 368.42 401.08 369.22 400.59 370.14C397.03 377.02 392.54 382.22 387.51 385.33C391.69 384.33 396.76 382.97 400.71 381.85C403.59 381.04 407.21 379.85 410.39 378.85L411.13 378.62L413.6 377.84C418.74 376.24 425.24 373.77 429.24 372.14C436.11 369.34 445.37 365.09 452.24 361.57C457.35 358.96 464.04 354.79 468.49 352.02H468.55C475.981 347.308 482.371 341.128 487.33 333.86C484.79 335.47 482.1 337.07 479.33 338.63C462.88 347.78 442.58 355.63 419 361.92C415.27 362.92 411.4 363.92 407.5 364.81C405.86 365.19 404.223 365.56 402.59 365.92Z" fill="#101010"/>
<path d="M279.97 75.01H279.48L279.46 74.03L279.96 74.01L279.97 74.33V74.01V74.05V74.01V74.44V74.01H280.46L280.48 74.99L279.98 75.01L279.97 74.69V75.01V74.97V75.01V74.58V75.01Z" fill="#101010"/>
<path d="M287.277 74.4736L287.257 75.4734L288.487 75.498L288.507 74.4982L287.277 74.4736Z" fill="#101010"/>
<path d="M457.11 114.8C455.89 114.08 454.7 113.39 453.58 112.8C450.3 110.93 446 108.88 442.2 107.08L439.33 105.69C430.911 101.853 422.303 98.4457 413.54 95.4799C412.35 95.0999 411.05 94.6699 409.7 94.2199C406.47 93.1599 402.8 91.9599 399.86 91.1599L395.92 90.0799C392.67 89.1799 389.3 88.2499 386.5 87.5499C382.83 86.6399 376.93 85.2399 372.35 84.3099C363.65 82.5499 351.91 80.6399 343.6 79.3599C339.02 78.6499 332.82 77.9899 328.6 77.5499C316.01 76.2599 303.74 75.4799 291.1 75.1599V74.1599C359.63 75.8299 421.89 90.7099 457.64 113.98L457.11 114.8Z" fill="#101010"/>
<path d="M334.38 121.63L334.02 121.54C318.67 117.91 299.02 115.75 280.02 115.62H279.46V82.04H279.99C308.34 82.24 336.75 85.38 359.99 90.88L361.11 91.14L360.11 91.78C356.852 93.9825 353.815 96.4941 351.04 99.28C344.591 105.861 339.031 113.257 334.5 121.28L334.38 121.63ZM280.47 114.63C299.22 114.79 318.64 116.92 333.89 120.49C338.431 112.509 343.983 105.148 350.41 98.59C352.962 96.0253 355.729 93.6835 358.68 91.59C335.83 86.3 308.13 83.27 280.47 83.05V114.63Z" fill="#101010"/>
<path d="M315.99 167.04L315.51 166.92C303.854 164.375 291.96 163.081 280.03 163.06H279.46V114.62H279.96C299.01 114.75 318.8 116.92 334.24 120.57L334.9 120.72L334.56 121.31C331.426 126.712 328.602 132.288 326.1 138.01C322.068 147.271 318.726 156.817 316.1 166.57L315.99 167.04ZM280.47 162.04C292.17 162.093 303.832 163.36 315.27 165.82C317.891 156.182 321.209 146.747 325.2 137.59C327.611 132.045 330.325 126.637 333.33 121.39C318.2 117.88 298.99 115.78 280.44 115.62L280.47 162.04Z" fill="#101010"/>
<path d="M281.81 197.16H279.48V196.16V162.06H279.98C292.012 162.072 304.007 163.376 315.76 165.95L316.26 166.07L316.12 166.57C314.099 174.032 312.476 181.596 311.26 189.23C310.97 191.1 310.69 193.1 310.4 195.35L310.35 195.74H309.96C300.606 196.684 291.211 197.158 281.81 197.16ZM280.47 196.16C290.153 196.21 299.832 195.766 309.47 194.83C309.74 192.73 310.01 190.83 310.29 189.08C311.468 181.575 313.043 174.138 315.01 166.8C303.657 164.361 292.082 163.104 280.47 163.05V196.16Z" fill="#101010"/>
<path d="M500.78 288.98V288.04C500.739 270.914 496.825 254.019 489.33 238.62L489.14 238.23L489.9 237.73L490.7 237.2C506.33 226.64 516.33 215.2 520.41 203.02C521.748 199.114 522.443 195.018 522.47 190.89V189.16L523.39 190.63C530.313 201.622 534.699 214.02 536.23 226.92C536.43 229.49 536.59 232.01 536.71 234.43C536.77 235.59 536.82 236.72 536.86 237.78C536.86 238.32 536.86 238.85 536.8 239.39C536.3 250.94 530.89 262.18 520.73 272.81C514.946 278.724 508.52 283.974 501.57 288.46L500.78 288.98ZM490.4 238.59C497.701 253.735 501.589 270.298 501.79 287.11C508.382 282.78 514.487 277.75 520 272.11C530 261.66 535.3 250.64 535.79 239.35C535.79 238.803 535.81 238.273 535.85 237.76C535.85 236.76 535.76 235.62 535.7 234.47C535.58 232.06 535.42 229.55 535.23 227.01C533.779 214.824 529.75 203.087 523.41 192.58C523.213 196.245 522.513 199.865 521.33 203.34C517.17 215.68 507.05 227.34 491.23 238.03C490.97 238.21 490.7 238.39 490.42 238.56L490.4 238.59Z" fill="#101010"/>
<path d="M401.39 366.19L401.76 365.3C402.795 362.818 403.693 360.281 404.45 357.7C407.276 347.604 408.782 337.184 408.93 326.7V326.27C408.93 325.27 408.98 324.27 408.99 323.27V322.87L409.38 322.77C417.08 321.06 424.62 319.17 431.79 317.15C448.556 312.571 464.885 306.524 480.59 299.08C487.632 295.689 494.447 291.845 500.99 287.57L501.77 287.06V288C501.732 295.3 500.833 302.571 499.09 309.66C497.123 317.691 493.868 325.351 489.45 332.34L489.31 332.49C486.19 334.55 482.81 336.59 479.26 338.57C462.81 347.72 442.51 355.57 418.93 361.86C415.2 362.86 411.33 363.86 407.43 364.75C405.743 365.15 404.037 365.54 402.31 365.92L401.39 366.19ZM410 323.72C410 324.6 410 325.45 409.95 326.3V326.73C409.799 337.301 408.279 347.809 405.43 357.99C404.72 360.37 403.93 362.65 403.07 364.8L407.24 363.8C411.13 362.88 414.99 361.91 418.72 360.91C442.21 354.63 462.44 346.82 478.82 337.71C482.31 335.77 485.64 333.76 488.71 331.71C493.039 324.833 496.23 317.303 498.16 309.41C499.813 302.699 500.699 295.821 500.8 288.91C494.457 292.999 487.868 296.693 481.07 299.97C465.301 307.44 448.904 313.507 432.07 318.1C425.01 320.16 417.58 322.03 410 323.72Z" fill="#101010"/>
<path d="M472.39 124.36C470.51 123.12 468.54 121.84 466.52 120.57L467.04 119.72C469.082 120.883 471.059 122.158 472.96 123.54L472.39 124.36Z" fill="#101010"/>
<path d="M523.45 192.58L522.53 191.16C516.313 181.239 508.311 172.555 498.93 165.55C495.098 162.665 491.065 160.058 486.86 157.75L486.59 157.61V156.96C486.59 156.79 486.59 156.63 486.59 156.46C486.513 149.771 484.548 143.24 480.92 137.62C476.81 130.91 470.49 124.43 462.15 118.34L462.66 117.48C464.26 118.23 465.66 118.97 467 119.72C469 121 471 122.28 472.9 123.53L473.19 123.72L474.53 124.61C478.82 127.51 484.01 131.82 488.53 135.61C490.31 137.11 492.31 139.05 494.25 140.92C495.1 141.74 495.92 142.53 496.67 143.23C502.125 148.661 507.14 154.516 511.67 160.74C512.26 161.61 512.88 162.56 513.51 163.52C515.21 166.12 517.03 169.04 518.79 171.97C521.812 177.793 523.409 184.25 523.45 190.81V192.58ZM487.61 157.03C491.761 159.337 495.744 161.934 499.53 164.8C508.526 171.523 516.273 179.771 522.42 189.17C522.116 183.367 520.582 177.695 517.92 172.53C516.16 169.62 514.35 166.71 512.66 164.13C512.04 163.13 511.42 162.23 510.83 161.36C506.349 155.205 501.398 149.408 496.02 144.02L493.6 141.7C491.67 139.84 489.68 137.91 487.93 136.44C483.42 132.65 478.26 128.36 474.01 125.49L472.68 124.61L472.39 124.41C470.82 123.41 469.18 122.31 467.51 121.25C473.117 125.729 477.949 131.101 481.81 137.15C485.537 142.925 487.555 149.637 487.63 156.51C487.63 156.7 487.63 156.88 487.63 157.06L487.61 157.03Z" fill="#101010"/>
<path d="M487.58 158.15L486.86 157.75C471.385 149.309 454.057 144.842 436.43 144.75H435.93V144.25C435.93 133.65 428.76 123.16 415.1 113.91L414.1 113.2L415.33 113C416.85 112.66 418.43 112.36 420.14 112.08C435.3 109.6 450.03 111.46 462.73 117.46C471.26 123.68 477.66 130.26 481.84 137.08C485.567 142.855 487.585 149.567 487.66 156.44C487.66 156.63 487.66 156.81 487.66 156.99L487.58 158.15ZM436.93 143.8C454.281 143.966 471.333 148.33 486.63 156.52C486.553 149.831 484.588 143.3 480.96 137.68C476.85 130.97 470.53 124.49 462.19 118.4C449.75 112.53 435.19 110.69 420.27 113.15C419 113.35 417.79 113.58 416.62 113.82C429.75 122.9 436.75 133.25 436.93 143.8Z" fill="#101010"/>
<path d="M458.33 197.92L458.05 197.68C445.05 186.55 430.2 178.79 415.11 175.23L413.77 175.06L414.94 174.32C423.37 168.76 429.36 162.74 432.74 156.42C434.809 152.7 435.922 148.526 435.98 144.27V143.8H436.48C454.251 143.885 471.724 148.379 487.33 156.88L487.6 157.02V157.33C487.323 163.816 485.317 170.11 481.79 175.56C476.95 183.39 469.14 190.84 458.6 197.72L458.33 197.92ZM416.44 174.52C431.17 178.19 445.66 185.83 458.44 196.67C468.71 189.93 476.31 182.67 481.03 175.04C484.397 169.821 486.342 163.812 486.67 157.61C471.381 149.343 454.3 144.945 436.92 144.8C436.78 149.047 435.635 153.201 433.58 156.92C430.24 163.11 424.46 169.04 416.39 174.52H416.44Z" fill="#101010"/>
<path d="M489.56 239.14L489.05 238.08C488.93 237.82 488.82 237.57 488.69 237.31L488.36 236.66L488.13 236.22C480.708 221.524 470.471 208.429 458 197.68L457.49 197.24L458.05 196.88C468.47 190.08 476.18 182.73 480.95 175.04C484.374 169.733 486.324 163.61 486.6 157.3V156.48L487.31 156.88C491.566 159.226 495.65 161.873 499.53 164.8C509.009 171.88 517.096 180.655 523.38 190.68L523.46 190.8V190.94C523.416 195.16 522.696 199.347 521.33 203.34C517.17 215.68 507.05 227.34 491.23 238.03C490.97 238.21 490.7 238.39 490.42 238.56L489.56 239.14ZM459.15 197.35C471.498 208.116 481.642 221.173 489.02 235.8L489.25 236.24L489.59 236.91C489.72 237.17 489.84 237.43 489.96 237.7L490.67 237.23C506.3 226.67 516.3 215.23 520.38 203.05C521.704 199.186 522.399 195.134 522.44 191.05C516.232 181.184 508.259 172.546 498.92 165.57C495.304 162.851 491.509 160.378 487.56 158.17C487.135 164.368 485.147 170.358 481.78 175.58C477.04 183.25 469.42 190.58 459.15 197.35Z" fill="#101010"/>
<path d="M409 323.95V323.32C409.036 315.634 408.605 307.953 407.71 300.32C407.51 298.63 407.3 296.95 407.06 295.27C405.95 287.404 404.404 279.605 402.43 271.91L402.3 271.41L402.8 271.3C413.58 268.9 423.95 266.15 433.63 263.12C455.05 256.42 473.18 248.4 487.51 239.29L489.13 238.23L489.95 237.68L490.2 238.2C497.768 253.735 501.727 270.78 501.78 288.06V288.33L501.55 288.47C494.972 292.772 488.121 296.64 481.04 300.05C465.271 307.52 448.874 313.587 432.04 318.18C424.85 320.18 417.29 322.1 409.58 323.82L409 323.95ZM403.54 272.15C405.464 279.729 406.973 287.407 408.06 295.15C408.3 296.84 408.52 298.53 408.71 300.22C409.589 307.691 410.023 315.207 410.01 322.73C417.5 321.05 424.83 319.21 431.81 317.24C448.576 312.661 464.905 306.614 480.61 299.17C487.574 295.817 494.314 292.019 500.79 287.8C500.697 270.955 496.861 254.341 489.56 239.16C489.06 239.49 488.56 239.82 488.05 240.16C473.65 249.32 455.45 257.38 433.94 264.11C424.39 267.06 414.16 269.8 403.54 272.15Z" fill="#101010"/>
<path d="M371.46 136.57L371.14 136.36C362.19 130.29 349.36 125.17 334.02 121.54L333.36 121.39L333.7 120.8C338.277 112.696 343.894 105.226 350.41 98.5801C353.228 95.7464 356.316 93.1943 359.63 90.9601L359.81 90.8401L360.02 90.8901C376.47 94.7801 390.87 99.7601 402.82 105.69C405.13 106.83 407.37 108.03 409.47 109.24C411.57 110.45 413.73 111.79 415.66 113.1L416.66 113.75L415.53 114C412.415 114.7 409.338 115.557 406.31 116.57C393.658 120.916 381.944 127.621 371.79 136.33L371.46 136.57ZM334.91 120.73C349.91 124.33 362.49 129.37 371.39 135.32C381.572 126.641 393.301 119.961 405.96 115.63C408.7 114.71 411.45 113.92 414.14 113.28C412.51 112.21 410.77 111.14 408.97 110.11C406.89 108.91 404.67 107.72 402.37 106.58C390.55 100.71 376.29 95.7801 360 91.9101C356.81 94.0833 353.833 96.5544 351.11 99.2901C344.818 105.717 339.374 112.922 334.91 120.73Z" fill="#101010"/>
<path d="M340.19 176.91L339.72 176.59C333.89 172.59 325.52 169.29 315.51 166.92L315.01 166.81L315.15 166.31C317.779 156.506 321.138 146.912 325.2 137.61C327.711 131.849 330.549 126.237 333.7 120.8L333.89 120.48L334.25 120.57C349.7 124.22 362.65 129.4 371.7 135.57L372.25 135.94L371.75 136.37C369.49 138.27 367.25 140.31 365.08 142.44C355.046 152.336 346.721 163.824 340.44 176.44L340.19 176.91ZM316.25 166.07C325.88 168.39 334 171.63 339.8 175.44C346.098 162.922 354.401 151.518 364.38 141.68C366.38 139.68 368.49 137.79 370.59 135.99C361.74 130.14 349.25 125.18 334.38 121.63C331.323 126.933 328.562 132.402 326.11 138.01C322.149 147.112 318.853 156.49 316.25 166.07Z" fill="#101010"/>
<path d="M309.33 195.85L309.41 195.22C309.7 192.96 309.98 190.95 310.28 189.08C311.491 181.407 313.12 173.806 315.16 166.31L315.28 165.84L315.76 165.95C325.87 168.35 334.36 171.74 340.29 175.76L340.65 176L340.45 176.39C338.1 181.138 336.055 186.031 334.33 191.04L334.03 191.91L333.76 191.97C325.902 193.697 317.953 194.975 309.95 195.8L309.33 195.85ZM316 167.04C314.033 174.349 312.451 181.756 311.26 189.23C311 190.92 310.74 192.72 310.48 194.72C318.14 193.908 325.751 192.687 333.28 191.06L333.4 190.72C335.095 185.805 337.099 181.002 339.4 176.34C333.63 172.56 325.58 169.35 315.99 167.04H316Z" fill="#101010"/>
<path d="M348.58 187.99L348.47 187.44C347.64 183.62 344.7 179.96 339.72 176.59L339.35 176.34L339.55 175.95C345.878 163.235 354.269 151.655 364.38 141.68C366.56 139.54 368.82 137.49 371.1 135.56L371.39 135.32L371.7 135.53C375.38 137.93 378.662 140.889 381.43 144.3C384.323 147.757 385.956 152.094 386.06 156.6V156.9L385.79 157.07C372.289 164.2 360.645 174.392 351.79 186.83L351.69 186.96H351.54C350.92 187.18 350.29 187.38 349.65 187.59L348.58 187.99ZM340.64 175.99C345.39 179.29 348.31 182.88 349.32 186.67L351.04 186.1C359.922 173.679 371.559 163.482 385.04 156.31C384.87 152.121 383.32 148.106 380.63 144.89C378.012 141.659 374.917 138.847 371.45 136.55C369.29 138.39 367.14 140.35 365.07 142.38C355.139 152.176 346.885 163.537 340.64 176.01V175.99Z" fill="#101010"/>
<path d="M385.06 157.46V156.63C384.96 152.335 383.401 148.202 380.64 144.91C377.939 141.582 374.733 138.697 371.14 136.36L370.6 135.99L371.1 135.56C381.353 126.768 393.182 120.005 405.96 115.63C409.019 114.597 412.13 113.726 415.28 113.02H415.49L415.66 113.14C429.61 122.58 436.97 133.36 436.93 144.31V144.81H436.42C427.593 144.731 418.79 145.738 410.21 147.81C408.16 148.31 406.03 148.9 403.88 149.56C397.626 151.49 391.569 154.008 385.79 157.08L385.06 157.46ZM372.25 135.91C375.718 138.225 378.813 141.054 381.43 144.3C384.135 147.555 385.747 151.578 386.04 155.8C391.662 152.879 397.536 150.469 403.59 148.6C405.75 147.93 407.9 147.33 409.98 146.83C418.476 144.794 427.184 143.776 435.92 143.8C435.74 133.41 428.61 123.15 415.28 114.08C412.239 114.768 409.236 115.609 406.28 116.6C393.831 120.857 382.289 127.406 372.25 135.91Z" fill="#101010"/>
<path d="M366.81 179.39L370.81 176.75C380.08 170.67 385 163.75 385.04 156.62V156.32L385.3 156.18C391.139 153.086 397.256 150.549 403.57 148.6C405.73 147.93 407.88 147.33 409.96 146.83C418.627 144.744 427.516 143.727 436.43 143.8H436.93V144.3C436.872 148.719 435.722 153.055 433.58 156.92C430.11 163.39 424.01 169.53 415.44 175.19L415.26 175.3L415.05 175.25C413.05 174.78 410.93 174.38 408.43 173.99C395.21 171.99 382.72 173.18 371.29 177.66L366.81 179.39ZM386.05 156.93C385.9 163.43 381.9 169.77 374.43 175.44C385.458 171.909 397.169 171.062 408.59 172.97C411.03 173.35 413.09 173.74 415.07 174.2C423.4 168.67 429.33 162.69 432.69 156.42C434.667 152.855 435.774 148.874 435.92 144.8C427.261 144.77 418.629 145.777 410.21 147.8C408.16 148.3 406.03 148.89 403.88 149.55C397.722 151.454 391.753 153.925 386.05 156.93Z" fill="#101010"/>
<path d="M350.05 187.52L350.95 186.25C359.91 173.684 371.683 163.387 385.33 156.18L386.07 155.79V156.63C386.07 164.07 380.95 171.31 371.39 177.63C367.391 180.206 363.171 182.422 358.78 184.25C356.47 185.25 354.03 186.18 351.53 187.05L350.05 187.52ZM385.05 157.52C372.338 164.374 361.298 173.952 352.72 185.57C354.67 184.86 356.57 184.11 358.4 183.33C362.73 181.528 366.89 179.343 370.83 176.8C379.73 170.91 384.62 164.27 385.03 157.48L385.05 157.52Z" fill="#101010"/>
<path d="M402.56 272.37L402.44 271.9C400.591 264.682 398.358 257.569 395.75 250.59C393.9 245.68 391.89 240.91 389.75 236.42C387.98 232.7 386.09 229.08 384.13 225.66L383.79 225.07L384.46 224.92C388.4 224.05 392.26 223.13 395.92 222.19C408.535 219.024 420.901 214.939 432.92 209.97C441.678 206.361 450.098 201.981 458.08 196.88L458.39 196.67L458.68 196.92C471.244 207.766 481.553 220.977 489.02 235.8L489.25 236.24L489.59 236.91C489.72 237.17 489.84 237.43 489.96 237.7L490.4 238.63L489.69 239.09C489.15 239.45 488.61 239.81 488.05 240.16C473.65 249.32 455.45 257.38 433.94 264.11C424.24 267.11 413.84 269.9 403.03 272.3L402.56 272.37ZM385.33 225.8C387.19 229.07 388.98 232.51 390.65 236.04C392.8 240.56 394.82 245.35 396.65 250.29C399.242 257.131 401.471 264.104 403.33 271.18C413.94 268.81 424.15 266.1 433.68 263.11C455.1 256.41 473.23 248.39 487.56 239.28L489.16 238.23L489.09 238.08C488.97 237.82 488.86 237.57 488.73 237.31L488.4 236.66L488.17 236.22C480.807 221.635 470.671 208.626 458.33 197.92C450.394 202.978 442.029 207.329 433.33 210.92C421.279 215.909 408.879 220.01 396.23 223.19C392.71 224.05 389.07 224.92 385.33 225.8Z" fill="#101010"/>
<path d="M359.43 196.65L359.25 196.53C357.7 195.471 356.08 194.519 354.4 193.68C352.792 192.862 351.12 192.176 349.4 191.63L349.01 191.51L348.66 191.42L348.37 191.35C345.575 190.565 342.661 190.294 339.77 190.55L339.6 189.55C342.68 188.76 345.78 187.85 348.82 186.85L349.34 186.68L351.21 186.06C353.69 185.19 356.1 184.26 358.4 183.28C362.728 181.494 366.888 179.326 370.83 176.8L370.92 176.75C382.52 172.21 395.19 170.95 408.59 173.02C411.11 173.41 413.24 173.82 415.28 174.3L416.41 174.57L415.41 175.21C413.05 176.76 410.52 178.28 407.9 179.7C396.38 185.95 382.09 191.19 365.43 195.29C363.58 195.75 361.62 196.21 359.61 196.66L359.43 196.65ZM343.58 189.51C345.271 189.64 346.946 189.934 348.58 190.39L348.84 190.45L349.24 190.55L349.56 190.65C351.369 191.214 353.128 191.927 354.82 192.78C356.469 193.615 358.065 194.55 359.6 195.58C361.54 195.15 363.42 194.71 365.19 194.27C381.77 190.19 395.98 184.98 407.42 178.77C409.66 177.56 411.82 176.28 413.87 174.96C412.2 174.6 410.43 174.28 408.4 173.96C395.2 171.96 382.72 173.15 371.31 177.61C367.323 180.178 363.117 182.386 358.74 184.21C356.43 185.21 353.99 186.14 351.49 187.01C350.87 187.23 350.24 187.43 349.6 187.64L349.08 187.81C347.33 188.41 345.43 188.98 343.58 189.51Z" fill="#101010"/>
<path d="M384.33 225.98L384.15 225.66C376.63 212.57 368.05 202.51 359.32 196.57L357.67 196.02L359.43 195.63C361.43 195.18 363.43 194.73 365.23 194.27C381.81 190.19 396.02 184.98 407.46 178.77C410.06 177.36 412.56 175.86 414.9 174.32L415.05 174.22H415.32C430.55 177.82 445.54 185.65 458.66 196.88L459.17 197.31L458.61 197.68C450.59 202.821 442.13 207.241 433.33 210.89C421.279 215.879 408.879 219.98 396.23 223.16C392.55 224.1 388.69 225.02 384.73 225.9L384.33 225.98ZM360.76 196.36C369.25 202.41 377.54 212.22 384.83 224.84C388.65 223.99 392.39 223.1 395.94 222.19C408.555 219.024 420.921 214.939 432.94 209.97C441.493 206.447 449.724 202.188 457.54 197.24C444.72 186.4 430.13 178.81 415.31 175.24C413 176.76 410.54 178.24 407.98 179.62C396.46 185.87 382.17 191.11 365.51 195.21C363.95 195.62 362.33 195.99 360.75 196.36H360.76Z" fill="#101010"/>
<path d="M376.99 388.42L376.86 387.42C379.12 386.97 381.36 386.49 383.57 386L383.86 386.95C381.663 387.803 379.344 388.299 376.99 388.42Z" fill="#101010"/>
<path d="M284.27 378.1H279.47V377.1V335.6H280.33C295.01 335.69 310.23 335.29 324.39 334.42C337.62 333.62 350.77 332.42 363.47 330.77C376.94 329.05 390.1 326.87 402.59 324.29C404.883 323.81 407.147 323.32 409.38 322.82L409.99 322.69V323.31C409.99 324.31 409.99 325.31 409.93 326.31V326.74C409.779 337.311 408.259 347.819 405.41 358C404.637 360.612 403.729 363.182 402.69 365.7L402.59 365.93L402.33 365.99C384.784 369.846 367.041 372.74 349.18 374.66C327.621 376.977 305.953 378.126 284.27 378.1ZM280.47 377.1C303.384 377.266 326.288 376.118 349.07 373.66C366.81 371.76 384.433 368.893 401.86 365.07C402.85 362.663 403.714 360.206 404.45 357.71C407.276 347.614 408.782 337.193 408.93 326.71V326.28C408.93 325.5 408.93 324.73 408.98 323.95C406.94 324.403 404.88 324.843 402.8 325.27C390.28 327.86 377.09 330.04 363.6 331.77C350.88 333.39 337.71 334.62 324.45 335.43C310.31 336.29 295.1 336.7 280.45 336.61L280.47 377.1Z" fill="#101010"/>
<path d="M332.9 192.16L333.39 190.72C335.117 185.667 337.174 180.733 339.55 175.95L339.8 175.44L340.28 175.76C345.48 179.29 348.56 183.15 349.44 187.23L349.54 187.67L349.11 187.81C346.05 188.81 342.93 189.73 339.83 190.53C338.49 190.88 337.12 191.21 335.74 191.53L334.74 191.75L332.9 192.16ZM340.19 176.91C337.983 181.42 336.056 186.063 334.42 190.81H334.57L335.52 190.6C336.89 190.28 338.25 189.95 339.58 189.6C342.51 188.85 345.46 187.99 348.36 187.04C347.44 183.46 344.7 180.07 340.19 176.91Z" fill="#101010"/>
<path d="M284.42 336.63H279.96H279.47V335.63V284.29V283.39H280.47C290.29 283.46 300.83 283.28 310.21 282.9C317.91 282.58 325.66 282.12 333.27 281.51L334.36 281.43C338.67 281.08 342.89 280.69 346.91 280.27L347.52 280.2C349.42 280 351.32 279.79 353.2 279.57C357.01 279.13 360.86 278.64 364.67 278.12C377.82 276.31 390.67 274.01 402.82 271.31L403.3 271.2L403.42 271.67C405.406 279.4 406.959 287.236 408.07 295.14C408.31 296.83 408.53 298.52 408.72 300.21C409.618 307.89 410.052 315.617 410.02 323.35V323.74L409.64 323.83C407.39 324.33 405.13 324.83 402.84 325.29C390.32 327.88 377.13 330.06 363.64 331.79C350.92 333.41 337.75 334.64 324.49 335.45C311.59 336.22 297.84 336.63 284.42 336.63ZM280.47 335.63C295.1 335.72 310.29 335.31 324.41 334.45C337.64 333.65 350.79 332.45 363.49 330.8C376.96 329.08 390.12 326.9 402.61 324.32C404.77 323.87 406.89 323.41 409.01 322.94C409.026 315.384 408.595 307.835 407.72 300.33C407.52 298.64 407.31 296.96 407.07 295.28C405.982 287.574 404.476 279.933 402.56 272.39C390.5 275.05 377.8 277.32 364.79 279.11C360.98 279.63 357.12 280.11 353.31 280.57C351.417 280.79 349.52 281 347.62 281.2L347 281.26C343 281.68 338.75 282.07 334.44 282.42L333.34 282.51C325.72 283.12 317.95 283.58 310.24 283.9C300.84 284.28 290.24 284.46 280.47 284.39V335.63Z" fill="#101010"/>
<path d="M284.19 284.39H279.96H279.47V283.39V235.11H280.47C289.91 235.17 300.32 234.97 309.12 234.56H309.57C315.83 234.26 322.04 233.85 328.04 233.35L328.69 233.29C330.877 233.097 333.05 232.897 335.21 232.69C351.768 231.08 368.216 228.495 384.47 224.95L384.83 224.87L385.02 225.19C387.02 228.63 388.9 232.27 390.67 236.02C392.82 240.54 394.84 245.33 396.67 250.27C399.296 257.281 401.543 264.428 403.4 271.68L403.53 272.18L403.02 272.29C390.83 275.01 377.96 277.29 364.78 279.12C360.97 279.64 357.11 280.12 353.3 280.58C351.407 280.8 349.51 281.01 347.61 281.21L346.99 281.27C342.99 281.69 338.74 282.08 334.43 282.43L333.33 282.52C325.71 283.13 317.94 283.59 310.23 283.91C302.02 284.21 292.92 284.39 284.19 284.39ZM280.47 283.39C290.28 283.46 300.82 283.28 310.2 282.9C317.9 282.58 325.65 282.12 333.26 281.51L334.35 281.43C338.66 281.08 342.88 280.69 346.9 280.27L347.51 280.2C349.41 280 351.31 279.79 353.19 279.57C357 279.13 360.85 278.64 364.66 278.12C377.66 276.33 390.29 274.12 402.31 271.42C400.488 264.374 398.298 257.428 395.75 250.61C393.9 245.7 391.89 240.93 389.75 236.44C388.04 232.83 386.21 229.32 384.31 226C368.139 229.503 351.778 232.064 335.31 233.67C333.15 233.89 330.973 234.093 328.78 234.28L328.12 234.34C322.12 234.84 315.89 235.25 309.62 235.55H309.17C300.35 235.96 289.93 236.16 280.48 236.1L280.47 283.39Z" fill="#101010"/>
<path d="M282.76 204.38H279.47V203.38V196.15H280.47C290.277 196.199 300.079 195.748 309.84 194.8C317.804 193.98 325.717 192.714 333.54 191.01L334.54 190.78L335.49 190.57C336.86 190.25 338.22 189.92 339.55 189.57C342.576 189.295 345.626 189.577 348.55 190.4L348.81 190.46L349.21 190.56L349.53 190.66C351.339 191.224 353.098 191.937 354.79 192.79C356.517 193.656 358.187 194.632 359.79 195.71L360.79 196.36L359.66 196.62C354.88 197.68 349.94 198.62 344.96 199.49L342.5 199.89C338.68 200.51 334.8 201.06 330.96 201.54C327.81 201.94 324.51 202.3 321.16 202.63C317.16 203.02 313.09 203.34 309.1 203.63C301.11 204.1 291.66 204.38 282.76 204.38ZM280.47 203.38C290.01 203.44 300.38 203.15 309.01 202.6C313.01 202.35 317.01 202.02 321.01 201.6C324.36 201.28 327.65 200.92 330.79 200.52C334.62 200.04 338.49 199.52 342.3 198.87L344.75 198.47C349.3 197.7 353.84 196.82 358.24 195.86C356.99 195.058 355.698 194.324 354.37 193.66C352.762 192.842 351.09 192.156 349.37 191.61L348.98 191.49L348.63 191.4L348.34 191.33C345.545 190.545 342.631 190.274 339.74 190.53C338.48 190.86 337.11 191.19 335.74 191.53L334.74 191.75L333.74 191.97C325.889 193.696 317.946 194.975 309.95 195.8C300.154 196.773 290.314 197.234 280.47 197.18V203.38Z" fill="#101010"/>
<path d="M283.58 236.11H279.47V235.11V203.36H280.47C290.02 203.41 300.39 203.13 309.02 202.58C313.02 202.33 317.02 202 321.02 201.58C324.37 201.26 327.66 200.9 330.8 200.5C334.63 200.02 338.5 199.5 342.31 198.85L344.76 198.45C349.71 197.61 354.64 196.65 359.4 195.59H359.54L359.8 195.7C368.67 201.7 377.38 211.9 384.99 225.15L385.33 225.74L384.66 225.89C368.383 229.44 351.911 232.031 335.33 233.65C333.17 233.87 330.993 234.073 328.8 234.26L328.14 234.32C322.14 234.82 315.91 235.23 309.64 235.53H309.19C301.33 235.91 292.16 236.11 283.58 236.11ZM280.47 235.11C289.91 235.17 300.31 234.97 309.11 234.56H309.56C315.82 234.26 322.03 233.85 328.03 233.35L328.68 233.29C330.867 233.097 333.04 232.897 335.2 232.69C351.532 231.095 367.759 228.561 383.8 225.1C376.4 212.35 367.98 202.54 359.43 196.68C354.72 197.68 349.84 198.68 344.94 199.51L342.48 199.91C338.66 200.53 334.78 201.08 330.94 201.56C327.79 201.96 324.49 202.32 321.14 202.65C317.14 203.04 313.07 203.36 309.08 203.65C300.42 204.2 290.02 204.49 280.47 204.43V235.11Z" fill="#101010"/>
<path d="M462.27 118.38C449.76 112.47 435.27 110.63 420.27 113.09C418.58 113.36 417.02 113.66 415.5 114H415.29L415.1 113.89C413.19 112.59 411.1 111.31 408.97 110.07C406.84 108.83 404.67 107.68 402.37 106.54C390.5 100.65 376.17 95.6901 359.79 91.8201L358.79 91.5801L359.69 90.8801C367.58 85.6601 375.18 83.8301 382.24 85.4701L382.5 85.5201L386.74 86.5201C389.55 87.2201 392.93 88.1501 396.19 89.0501L400.12 90.1301C403.12 90.9401 406.77 92.1301 410.01 93.2101C411.36 93.6601 412.66 94.0901 413.85 94.4701C422.657 97.4772 431.308 100.925 439.77 104.8L442.63 106.16C446.44 107.98 450.77 110.04 454.07 111.92C455.2 112.56 456.4 113.26 457.62 113.98C459.41 115.15 461.14 116.34 462.76 117.53L462.27 118.38ZM433.05 111.03C441.647 110.985 450.179 112.52 458.22 115.56L457.1 114.83C455.89 114.11 454.69 113.42 453.58 112.83C450.3 110.96 446 108.91 442.2 107.11L439.33 105.69C430.911 101.854 422.303 98.4459 413.54 95.4801C412.35 95.1001 411.05 94.6701 409.7 94.2201C406.47 93.1601 402.8 91.9601 399.86 91.1601L395.92 90.0801C392.67 89.1801 389.3 88.2501 386.5 87.5501L382.67 86.6201C375.99 84.8401 368.76 86.3601 361.17 91.1301C377.17 94.9801 391.17 99.8601 402.83 105.66C405.14 106.8 407.38 108 409.48 109.21C411.58 110.42 413.62 111.68 415.48 112.95C416.94 112.63 418.48 112.34 420.1 112.07C424.381 111.37 428.712 111.023 433.05 111.03Z" fill="#101010"/>
<path d="M360 91.91L359.79 91.86C336.59 86.37 308.24 83.25 279.96 83.05H279.46V74.05H280.62L286.62 74.1001H287.85L291.11 74.17C303.77 74.49 316.06 75.2701 328.69 76.5701C332.96 77.0101 339.17 77.6701 343.77 78.3801C352.1 79.6701 363.85 81.5701 372.57 83.3801C375.27 83.9301 378.8 84.7201 382.52 85.6001L383.47 85.83L382.54 86.64L382.28 86.58C375.42 84.91 368 86.68 360.2 91.84L360 91.91ZM280.47 82.06C308.57 82.28 336.72 85.4 359.81 90.84C365.2 87.29 370.46 85.33 375.5 84.98L372.35 84.31C363.65 82.55 351.91 80.64 343.6 79.36C339.02 78.65 332.82 77.99 328.6 77.55C316.01 76.26 303.74 75.48 291.1 75.16L287.85 75.09H286.62L280.62 75.0401H280.47V82.06Z" fill="#101010"/>
<path d="M487.33 333.85L488.59 331.85C492.947 324.948 496.158 317.387 498.1 309.46C499.823 302.449 500.712 295.259 500.75 288.04V287.8L500.97 287.64C507.858 283.19 514.231 277.988 519.97 272.13C529.97 261.68 535.27 250.66 535.76 239.37H536.76V241.02C536.7 243.49 536.64 246.02 536.37 248.16L536.14 249.95C535.41 255.73 534.5 262.95 532.95 268.25C531.243 274.397 529.21 280.449 526.86 286.38C524.043 292.7 520.861 298.85 517.33 304.8C516.33 306.58 514.97 308.57 513.33 310.89L512.96 311.42V311.37C507.33 318.8 499.33 325.92 489.33 332.55L487.33 333.85ZM501.75 288.32C501.692 295.533 500.793 302.715 499.07 309.72C497.281 316.995 494.445 323.971 490.65 330.43C499.91 324.08 507.24 317.29 512.44 310.23L512.82 309.71C514.29 307.64 515.48 305.84 516.43 304.22C519.924 298.327 523.076 292.236 525.87 285.98C528.19 280.091 530.192 274.083 531.87 267.98C533.4 262.73 534.3 255.58 535.03 249.83L535.15 248.83C532.84 257.06 527.97 265.08 520.61 272.78C514.925 278.634 508.614 283.846 501.79 288.32H501.75Z" fill="#101010"/>
<path d="M468.42 353.28L468.28 352.19L468.55 352.01C476.646 346.859 483.503 339.981 488.63 331.87L488.78 331.72C498.95 325 506.93 317.77 512.48 310.23L512.86 309.71L513.52 310.5L513.32 310.85C510.59 314.67 507.47 318.6 505.19 321.47C502.61 324.581 499.873 327.558 496.99 330.39C491.79 335.58 484.25 341.81 480.22 345.06C476.65 347.861 472.931 350.469 469.08 352.87L468.42 353.28ZM489.42 332.49C486.999 336.279 484.208 339.82 481.09 343.06C485.29 339.64 491.71 334.25 496.29 329.68C499.143 326.878 501.85 323.931 504.4 320.85L504.7 320.48C499.971 324.927 494.858 328.946 489.42 332.49Z" fill="#101010"/>
<path d="M382.21 388.09L383.09 386.33H383.4V386.83L383.64 387.26L382.21 388.09Z" fill="#101010"/>
<path d="M283.73 398.11C281.67 398.11 280.36 398.11 279.96 398.11H279.47V377.11H280.47C303.387 377.276 326.295 376.128 349.08 373.67C366.909 371.762 384.619 368.874 402.13 365.02L403.07 364.82L402.7 365.71C402.42 366.36 402.14 367.01 401.85 367.64C397.65 376.84 391.66 383.64 385 386.72C384.53 386.93 384.06 387.13 383.59 387.31H383.47C378.4 388.49 374.28 389.37 371.21 389.92L366.95 390.69C363.51 391.32 359.95 391.97 356.95 392.44C352.7 393.11 346.53 394.07 341.95 394.56L337.39 395.06C333.8 395.46 330.08 395.87 326.99 396.15C322.31 396.57 316.1 397.03 311.54 397.28C299.33 398 289.03 398.11 283.73 398.11ZM280.47 397.11C283.33 397.11 295.74 397.22 311.47 396.33C316.02 396.07 322.21 395.61 326.88 395.19C329.96 394.92 333.67 394.5 337.26 394.1L341.82 393.6C346.39 393.11 352.55 392.16 356.82 391.49C359.77 391.02 363.32 390.37 366.76 389.74L371.02 388.97C374.08 388.43 378.2 387.55 383.26 386.37C383.7 386.2 384.13 386.01 384.57 385.81C391.01 382.81 396.83 376.21 400.93 367.23C401.08 366.89 401.24 366.55 401.38 366.23C384.143 369.975 366.718 372.799 349.18 374.69C326.361 377.142 303.42 378.291 280.47 378.13V397.11Z" fill="#101010"/>
<path d="M280 398.08L279.97 397.6L279.47 397.56V396.76H279.97H280.47V398.06L280 398.08Z" fill="#101010"/>
<path d="M93.39 120.59L92.88 119.73C95.96 117.79 99.22 115.8 102.32 113.97L102.85 114.82C101.07 115.98 99.35 117.16 97.74 118.34C96.09 119.13 94.69 119.85 93.39 120.59Z" fill="#101010"/>
<path d="M176.42 387.31L174.05 386.75C169.58 385.69 163.51 384.1 158.96 382.82C156.06 381.99 152.44 380.82 149.24 379.82L148.64 379.63L146.04 378.81C140.87 377.19 134.34 374.71 130.32 373.07C123.42 370.27 114.13 366 107.22 362.47C102.07 359.83 95.32 355.63 90.86 352.85L90.58 352.68C82.4747 347.468 75.6075 340.547 70.46 332.4L69.2 330.4L71.2 331.7C74.29 333.7 77.65 335.77 81.2 337.7C97.58 346.81 117.8 354.62 141.3 360.9C145.02 361.9 148.89 362.9 152.77 363.79C154.457 364.177 156.16 364.563 157.88 364.95L158.13 365.01L158.23 365.25C158.5 365.9 158.78 366.53 159.06 367.16C159.34 367.79 159.8 368.71 160.29 369.62C164.29 377.44 169.57 383.01 175.42 385.74L175.68 385.85C176.06 386.02 176.41 386.17 176.77 386.31L176.42 387.31ZM91.42 352.06C95.87 354.84 102.55 358.99 107.63 361.6C114.52 365.12 123.78 369.37 130.63 372.17C134.63 373.8 141.13 376.27 146.26 377.87L148.83 378.68L149.43 378.87C152.66 379.87 156.27 381.04 159.16 381.87C163.1 382.99 168.16 384.32 172.36 385.35C167.36 382.24 162.84 377.04 159.27 370.16C158.78 369.23 158.38 368.43 158.02 367.64C157.77 367.09 157.52 366.52 157.28 365.94C155.64 365.58 154.02 365.21 152.41 364.83C148.52 363.91 144.65 362.94 140.91 361.94C117.33 355.64 97.03 347.8 80.58 338.65C77.79 337.09 75.1 335.49 72.58 333.88C77.5321 341.138 83.9121 347.311 91.33 352.02L91.41 352.08L91.42 352.06Z" fill="#101010"/>
<path d="M102.83 114.8L102.3 113.95C138.04 90.6801 200.3 75.8001 268.84 74.1301V75.1301C256.21 75.4501 243.94 76.2301 231.34 77.5201C227.08 77.9601 220.89 78.6201 216.34 79.3301C208.02 80.6101 196.34 82.5101 187.58 84.2801C183.02 85.2101 177.28 86.5601 173.44 87.5201C170.63 88.2201 167.27 89.1501 164.02 90.0501L160.07 91.1301C157.13 91.9301 153.47 93.1301 150.24 94.1901L146.39 95.4501C137.627 98.4177 129.02 101.825 120.6 105.66L117.73 107.03C113.93 108.84 109.63 110.89 106.36 112.75C105.24 113.42 104.04 114.11 102.83 114.8Z" fill="#101010"/>
<path d="M225.56 121.63L225.37 121.31C220.836 113.287 215.272 105.89 208.82 99.3101C206.05 96.5221 203.016 94.0102 199.76 91.8101L198.76 91.1701L199.89 90.9101C223.15 85.4101 251.56 82.2701 279.89 82.0701H280.43V115.65H279.86C260.86 115.78 241.23 117.94 225.86 121.57L225.56 121.63ZM201.26 91.6301C204.208 93.7238 206.971 96.0656 209.52 98.6301C215.951 105.187 221.507 112.548 226.05 120.53C241.3 116.96 260.71 114.83 279.47 114.67V83.0601C251.8 83.2801 224.11 86.3101 201.26 91.6001V91.6301Z" fill="#101010"/>
<path d="M243.95 167.04L243.82 166.57C241.202 156.815 237.859 147.268 233.82 138.01C231.322 132.288 228.501 126.712 225.37 121.31L225.03 120.72L225.69 120.57C241.13 116.92 260.91 114.75 279.96 114.62H280.46V115.62V163.07H279.89C267.96 163.093 256.066 164.387 244.41 166.93L243.95 167.04ZM226.57 121.39C229.586 126.645 232.313 132.059 234.74 137.61C238.73 146.752 242.045 156.174 244.66 165.8C256.101 163.34 267.767 162.074 279.47 162.02V115.62C260.91 115.8 241.71 117.88 226.57 121.39Z" fill="#101010"/>
<path d="M278.13 197.16C268.733 197.178 259.341 196.724 249.99 195.8H249.6V195.41C249.31 193.16 249.03 191.16 248.73 189.29C247.519 181.655 245.896 174.091 243.87 166.63L243.74 166.13L244.24 166.01C255.99 163.437 267.982 162.133 280.01 162.12H280.52V163.12V197.23H278.13V197.16ZM250.49 194.8C260.127 195.742 269.807 196.185 279.49 196.13V163.03C267.867 163.089 256.282 164.353 244.92 166.8C246.896 174.134 248.482 181.568 249.67 189.07C249.95 190.8 250.22 192.73 250.49 194.8Z" fill="#101010"/>
<path d="M158.54 366.19L157.6 365.98C155.88 365.6 154.18 365.21 152.48 364.81C148.59 363.89 144.72 362.92 140.98 361.92C117.4 355.62 97.1 347.78 80.65 338.63C77.1 336.63 73.72 334.63 70.65 332.55L70.5 332.4C66.0814 325.412 62.8289 317.752 60.87 309.72C59.1225 302.632 58.2229 295.361 58.19 288.06V287.13L58.97 287.63C65.5007 291.903 72.3017 295.748 79.33 299.14C95.0306 306.586 111.357 312.633 128.12 317.21C135.3 319.21 142.84 321.12 150.54 322.83L150.93 322.92V323.32C150.93 324.37 150.93 325.38 150.99 326.4V326.71C151.141 337.194 152.65 347.614 155.48 357.71C156.233 360.291 157.128 362.828 158.16 365.31L158.54 366.19ZM71.25 331.8C74.32 333.8 77.65 335.8 81.14 337.8C97.52 346.91 117.74 354.72 141.24 361C144.96 362 148.83 363 152.71 363.89L156.88 364.89C156.02 362.74 155.23 360.46 154.53 358.08C151.677 347.899 150.154 337.392 150 326.82V326.52C150 325.62 150 324.73 149.94 323.81C142.36 322.12 134.94 320.25 127.86 318.26C111.025 313.669 94.6285 307.602 78.86 300.13C72.0608 296.855 65.4715 293.161 59.13 289.07C59.2278 295.982 60.1135 302.859 61.77 309.57C63.7167 317.441 66.9176 324.947 71.25 331.8Z" fill="#101010"/>
<path d="M87.55 124.36L86.98 123.54C88.8813 122.158 90.8577 120.883 92.9 119.72L93.41 120.57C91.39 121.85 89.42 123.12 87.55 124.36Z" fill="#101010"/>
<path d="M36.48 192.64V190.89C36.5111 184.317 38.1049 177.846 41.13 172.01C42.89 169.08 44.72 166.16 46.41 163.56C47.05 162.56 47.67 161.65 48.26 160.78C52.7891 154.556 57.8048 148.701 63.26 143.27L65.68 140.95C67.62 139.08 69.62 137.15 71.39 135.65C75.92 131.85 81.1 127.54 85.39 124.65L86.83 123.65L87.01 123.53C88.89 122.28 90.87 121 92.9 119.73C94.24 118.97 95.66 118.23 97.25 117.48L97.76 118.34C89.42 124.43 83.11 130.91 78.99 137.62C75.3742 143.245 73.4129 149.774 73.33 156.46C73.33 156.63 73.33 156.8 73.33 156.97V157.61L73.06 157.75C68.86 160.061 64.8298 162.667 61 165.55C51.6187 172.555 43.617 181.239 37.4 191.16L36.48 192.64ZM42.02 172.48C39.3529 177.647 37.8156 183.323 37.51 189.13C43.6592 179.741 51.4104 171.506 60.41 164.8C64.196 161.933 68.1792 159.337 72.33 157.03C72.33 156.84 72.33 156.66 72.33 156.47C72.4134 149.598 74.4304 142.889 78.15 137.11C82.0205 131.062 86.8543 125.687 92.46 121.2C90.79 122.27 89.15 123.33 87.58 124.37L87.39 124.49L85.96 125.49C81.7 128.36 76.54 132.65 72.04 136.44C70.29 137.91 68.3 139.83 66.37 141.69C65.52 142.52 64.7 143.31 63.94 144.02C58.5652 149.408 53.617 155.206 49.14 161.36C48.55 162.23 47.93 163.17 47.3 164.13C45.59 166.67 43.77 169.57 42.02 172.48Z" fill="#101010"/>
<path d="M72.33 158.15V157.02C72.33 156.83 72.33 156.65 72.33 156.46C72.4134 149.588 74.4304 142.879 78.15 137.1C82.33 130.28 88.74 123.7 97.15 117.53C109.94 111.47 124.66 109.61 139.83 112.1C141.53 112.38 143.11 112.68 144.65 113.02L145.79 113.27L144.79 113.93C131.13 123.18 123.93 133.67 123.97 144.27V144.77H123.47C105.84 144.863 88.5087 149.33 73.03 157.77L72.33 158.15ZM78.94 137.62C75.3418 143.25 73.398 149.779 73.33 156.46C88.6272 148.297 105.672 143.953 123.01 143.8C123.19 133.28 130.19 122.93 143.31 113.8C142.13 113.55 140.94 113.33 139.66 113.13C124.66 110.67 110.18 112.51 97.66 118.42C89.4 124.43 83.09 130.91 78.97 137.62H78.94Z" fill="#101010"/>
<path d="M101.65 197.92L101.34 197.72C90.79 190.84 82.98 183.39 78.14 175.56C74.6176 170.108 72.6121 163.815 72.33 157.33V157.02L72.59 156.88C88.2142 148.369 105.708 143.875 123.5 143.8H124V144.3C124.055 148.555 125.164 152.73 127.23 156.45C130.62 162.77 136.61 168.79 145.03 174.35L146.13 175.08L144.83 175.26C129.71 178.85 114.9 186.61 101.93 197.71L101.65 197.92ZM73.33 157.61C73.6667 163.812 75.6141 169.82 78.98 175.04C83.7 182.66 91.3 189.93 101.56 196.67C114.3 185.84 128.78 178.2 143.56 174.52C135.49 169.04 129.71 163.11 126.37 156.89C124.313 153.181 123.162 149.038 123.01 144.8C105.654 144.959 88.5992 149.357 73.33 157.61Z" fill="#101010"/>
<path d="M70.38 239.14L69.5 238.56L68.69 238.03C52.88 227.35 42.75 215.68 38.6 203.34C37.2273 199.331 36.5114 195.127 36.48 190.89V190.8L36.56 190.68C42.8412 180.653 50.928 171.878 60.41 164.8C64.2785 161.892 68.3487 159.262 72.59 156.93L73.31 156.53V157.35C73.5898 163.661 75.5433 169.783 78.97 175.09C83.74 182.78 91.44 190.09 101.87 196.93L102.42 197.29L101.92 197.73C89.446 208.476 79.2083 221.571 71.79 236.27L71.55 236.72L71.22 237.36L70.87 238.11L70.38 239.14ZM37.48 191.03C37.5314 195.113 38.2266 199.163 39.54 203.03C43.63 215.16 53.63 226.65 69.25 237.21L69.97 237.68C70.09 237.42 70.21 237.16 70.34 236.91L70.67 236.25L70.9 235.8C78.288 221.191 88.4308 208.149 100.77 197.39C90.51 190.61 82.89 183.29 78.13 175.6C74.7491 170.369 72.7533 164.364 72.33 158.15C68.3799 160.356 64.5844 162.829 60.97 165.55C51.6426 172.53 43.6799 181.167 37.48 191.03Z" fill="#101010"/>
<path d="M150.93 323.95L150.33 323.8C142.61 322.08 135.05 320.19 127.86 318.16C111.025 313.569 94.6285 307.502 78.86 300.03C71.7725 296.624 64.9146 292.759 58.33 288.46L58.11 288.32V288.05C58.16 270.77 62.1153 253.726 69.68 238.19L69.93 237.67L70.73 238.2L72.38 239.28C86.7 248.39 104.83 256.41 126.26 263.11C135.93 266.11 146.26 268.89 157.08 271.29L157.59 271.4L157.46 271.9C155.485 279.595 153.936 287.394 152.82 295.26C152.59 296.94 152.37 298.62 152.18 300.31C151.281 307.943 150.85 315.624 150.89 323.31L150.93 323.95ZM59.15 287.8C65.6251 292.011 72.3658 295.799 79.33 299.14C95.0306 306.586 111.357 312.632 128.12 317.21C135.12 319.21 142.44 321.02 149.92 322.7C149.917 315.178 150.351 307.662 151.22 300.19C151.42 298.5 151.63 296.81 151.87 295.12C152.963 287.377 154.475 279.699 156.4 272.12C145.77 269.74 135.55 267.03 126 264.04C104.49 257.31 86.28 249.25 71.88 240.09C71.37 239.77 70.88 239.44 70.38 239.09C63.0607 254.289 59.2242 270.93 59.15 287.8Z" fill="#101010"/>
<path d="M188.48 136.57L188.19 136.33C178.034 127.618 166.316 120.913 153.66 116.57C150.633 115.555 147.556 114.697 144.44 114L143.33 113.8L144.33 113.15C146.26 111.84 148.33 110.54 150.52 109.29C152.63 108.08 154.87 106.88 157.18 105.74C169.12 99.8099 183.52 94.8299 199.98 90.9399L200.19 90.8899L200.37 91.0099C203.681 93.2438 206.766 95.796 209.58 98.6299C216.069 105.266 221.666 112.719 226.23 120.8L226.57 121.39L225.92 121.54C210.58 125.17 197.74 130.29 188.79 136.36L188.48 136.57ZM145.79 113.28C148.49 113.92 151.24 114.71 153.98 115.63C166.638 119.963 178.366 126.643 188.55 135.32C197.45 129.37 210.04 124.32 225.03 120.73C220.566 112.919 215.118 105.713 208.82 99.2899C206.1 96.5547 203.127 94.0836 199.94 91.9099C183.64 95.7799 169.39 100.71 157.56 106.58C155.27 107.72 153.05 108.9 150.96 110.11C149.16 111.14 147.43 112.21 145.79 113.28Z" fill="#101010"/>
<path d="M219.75 176.91L219.49 176.39C213.216 163.77 204.89 152.28 194.85 142.39C192.69 140.27 190.45 138.23 188.19 136.32L187.69 135.89L188.23 135.52C197.23 129.39 210.23 124.21 225.69 120.52L226.05 120.43L226.23 120.75C229.381 126.189 232.222 131.801 234.74 137.56C238.776 146.867 242.118 156.46 244.74 166.26L244.87 166.76L244.37 166.87C234.37 169.24 226 172.58 220.17 176.54L219.75 176.91ZM189.33 135.99C191.44 137.79 193.53 139.7 195.54 141.68C205.525 151.513 213.829 162.918 220.12 175.44C225.93 171.63 234.05 168.39 243.68 166.07C241.078 156.489 237.779 147.11 233.81 138.01C231.365 132.4 228.607 126.931 225.55 121.63C210.69 125.18 198.19 130.14 189.33 135.99Z" fill="#101010"/>
<path d="M250.62 195.85L249.99 195.78C241.988 194.962 234.038 193.69 226.18 191.97L225.9 191.91L225.6 191.04C223.886 186.028 221.845 181.134 219.49 176.39L219.3 176L219.66 175.76C225.59 171.76 234.07 168.35 244.19 165.95L244.66 165.84L244.79 166.31C246.825 173.807 248.454 181.408 249.67 189.08C249.97 190.95 250.25 192.96 250.54 195.22L250.62 195.85ZM226.62 191.06C234.149 192.687 241.76 193.909 249.42 194.72C249.16 192.72 248.9 190.92 248.63 189.23C247.448 181.755 245.869 174.348 243.9 167.04C234.31 169.35 226.25 172.56 220.53 176.34C222.831 181.002 224.835 185.805 226.53 190.72L226.62 191.06Z" fill="#101010"/>
<path d="M211.33 187.99L210.28 187.64C209.64 187.43 209.01 187.23 208.39 187.01H208.24L208.15 186.88C199.294 174.443 187.65 164.252 174.15 157.12L173.89 156.98V156.68C173.985 152.165 175.614 147.816 178.51 144.35C181.278 140.939 184.56 137.98 188.24 135.58L188.56 135.37L188.84 135.61C191.12 137.54 193.38 139.61 195.56 141.73C205.677 151.702 214.071 163.282 220.4 176L220.59 176.39L220.23 176.64C215.23 180.01 212.31 183.64 211.48 187.49L211.33 187.99ZM208.87 186.12L210.59 186.69C211.59 182.9 214.51 179.31 219.27 176.01C213.016 163.543 204.756 152.189 194.82 142.4C192.75 140.4 190.61 138.4 188.45 136.57C184.982 138.869 181.884 141.681 179.26 144.91C176.57 148.126 175.02 152.141 174.85 156.33C188.345 163.497 199.997 173.694 208.89 186.12H208.87Z" fill="#101010"/>
<path d="M174.88 157.43L174.14 157.07C168.362 153.997 162.304 151.479 156.05 149.55C153.91 148.89 151.78 148.3 149.72 147.8C141.139 145.734 132.336 144.726 123.51 144.8H123.01V144.3C123.01 133.3 130.32 122.57 144.27 113.13L144.45 113.01H144.66C147.81 113.717 150.921 114.588 153.98 115.62C166.754 119.995 178.581 126.759 188.83 135.55L189.34 135.98L188.79 136.35C185.199 138.69 181.994 141.574 179.29 144.9C176.35 148.7 174.86 152.63 174.88 156.59V157.43ZM124.25 143.8C132.908 143.781 141.539 144.788 149.96 146.8C152.04 147.31 154.19 147.9 156.35 148.57C162.405 150.448 168.279 152.868 173.9 155.8C174.188 151.576 175.797 147.549 178.5 144.29C181.121 141.044 184.219 138.215 187.69 135.9C177.662 127.389 166.13 120.83 153.69 116.56C150.735 115.566 147.731 114.725 144.69 114.04C131.33 123.12 124.2 133.38 124.01 143.8H124.25Z" fill="#101010"/>
<path d="M193.13 179.39L188.64 177.63C177.22 173.15 164.73 171.92 151.5 173.96C149 174.35 146.9 174.75 144.88 175.22L144.67 175.27L144.49 175.16C135.93 169.5 129.83 163.36 126.36 156.89C124.214 153.026 123.062 148.689 123.01 144.27V143.8H123.51C132.416 143.722 141.298 144.729 149.96 146.8C152.04 147.31 154.19 147.9 156.35 148.57C162.661 150.518 168.774 153.056 174.61 156.15L174.88 156.29V156.59C174.88 163.68 179.88 170.64 189.1 176.72L193.13 179.39ZM163.66 172C171.08 171.972 178.457 173.133 185.51 175.44C178.03 169.77 174.04 163.44 173.88 156.93C168.178 153.923 162.209 151.452 156.05 149.55C153.91 148.89 151.78 148.3 149.72 147.8C141.297 145.797 132.668 144.79 124.01 144.8C124.156 148.883 125.263 152.874 127.24 156.45C130.6 162.72 136.53 168.7 144.87 174.23C146.87 173.77 148.87 173.38 151.35 173C155.422 172.355 159.537 172.021 163.66 172Z" fill="#101010"/>
<path d="M209.88 187.52L208.41 187.01C205.92 186.14 203.48 185.2 201.16 184.21C196.772 182.375 192.552 180.16 188.55 177.59C178.99 171.31 173.92 164.07 173.88 156.59V155.8L174.62 156.19C188.265 163.399 200.038 173.696 209 186.26L209.88 187.52ZM174.88 157.52C175.29 164.31 180.18 170.96 189.07 176.79C193.016 179.338 197.183 181.526 201.52 183.33C203.35 184.11 205.26 184.86 207.21 185.57C198.641 173.945 187.612 164.353 174.91 157.48L174.88 157.52Z" fill="#101010"/>
<path d="M157.38 272.37L156.9 272.26C146.1 269.86 135.7 267.1 126 264.07C104.49 257.34 86.28 249.28 71.88 240.12L70.22 239.04L69.54 238.59L69.98 237.59C70.1 237.33 70.22 237.07 70.35 236.82L70.68 236.16L70.91 235.71C78.4148 220.914 88.7501 207.735 101.33 196.92L101.61 196.67L101.93 196.88C109.908 201.981 118.325 206.361 127.08 209.97C139.099 214.939 151.466 219.023 164.08 222.19C167.74 223.13 171.6 224.05 175.54 224.92L176.2 225.07L175.87 225.66C173.87 229.08 172.01 232.66 170.25 236.42C168.12 240.91 166.1 245.68 164.25 250.59C161.637 257.567 159.404 264.681 157.56 271.9L157.38 272.37ZM70.81 238.23L72.42 239.28C86.74 248.39 104.87 256.41 126.3 263.11C135.83 266.11 146.04 268.81 156.65 271.18C158.485 264.09 160.688 257.101 163.25 250.24C165.11 245.3 167.13 240.5 169.25 235.99C170.93 232.46 172.71 228.99 174.57 225.75C170.85 224.92 167.21 224.05 163.74 223.16C151.088 219.978 138.685 215.877 126.63 210.89C117.933 207.294 109.568 202.944 101.63 197.89C89.2881 208.595 79.1523 221.605 71.79 236.19L71.55 236.64L71.22 237.28L70.87 238.03L70.81 238.23Z" fill="#101010"/>
<path d="M200.51 196.65H200.3C198.3 196.2 196.3 195.74 194.47 195.28C177.81 191.18 163.53 185.94 152 179.69C149.38 178.27 146.86 176.75 144.49 175.2L143.49 174.56L144.61 174.29C146.61 173.81 148.78 173.4 151.31 173.01C164.71 170.94 177.38 172.2 188.97 176.74L189.06 176.79C193.006 179.338 197.173 181.526 201.51 183.33C203.81 184.33 206.23 185.24 208.7 186.11L210.57 186.73L211.09 186.9C214.09 187.9 217.24 188.81 220.32 189.6L220.14 190.6C217.249 190.346 214.335 190.617 211.54 191.4L211.25 191.47L210.91 191.56L210.59 191.66C208.838 192.206 207.136 192.899 205.5 193.73C203.818 194.571 202.195 195.523 200.64 196.58L200.51 196.65ZM146.03 174.96C148.08 176.28 150.25 177.56 152.48 178.77C163.93 184.98 178.14 190.19 194.71 194.27C196.49 194.71 198.37 195.15 200.3 195.58C201.84 194.552 203.439 193.618 205.09 192.78C206.752 191.938 208.481 191.236 210.26 190.68L210.67 190.55L211.06 190.45L211.32 190.39C212.954 189.935 214.629 189.64 216.32 189.51C214.46 188.983 212.613 188.417 210.78 187.81L210.26 187.64C209.62 187.43 208.99 187.23 208.37 187.01C205.88 186.14 203.44 185.2 201.12 184.21C196.746 182.386 192.543 180.178 188.56 177.61C177.15 173.15 164.66 171.92 151.46 173.96C149.47 174.28 147.7 174.6 146.03 174.96Z" fill="#101010"/>
<path d="M175.61 225.98L175.25 225.9C171.3 225.02 167.43 224.1 163.76 223.16C151.108 219.978 138.705 215.877 126.65 210.89C117.836 207.259 109.363 202.852 101.33 197.72L100.77 197.35L101.28 196.92C114.39 185.7 129.37 177.86 144.6 174.26H144.88L145.03 174.36C147.37 175.9 149.87 177.36 152.47 178.81C163.92 185.02 178.13 190.23 194.7 194.31C196.55 194.77 198.5 195.22 200.5 195.67L201.88 195.98L200.62 196.61C191.92 202.51 183.32 212.61 175.79 225.7L175.61 225.98ZM102.45 197.24C110.263 202.186 118.491 206.445 127.04 209.97C139.059 214.939 151.426 219.023 164.04 222.19C167.59 223.1 171.32 223.99 175.14 224.84C182.44 212.21 190.74 202.39 199.21 196.36C197.59 195.99 196.01 195.62 194.5 195.24C177.84 191.14 163.56 185.9 152.03 179.65C149.48 178.26 147.03 176.79 144.7 175.27C129.85 178.8 115.27 186.4 102.45 197.24Z" fill="#101010"/>
<path d="M182.95 388.42C180.597 388.302 178.278 387.809 176.08 386.96L176.37 386.01C178.58 386.5 180.81 387.01 183.07 387.43L182.95 388.42Z" fill="#101010"/>
<path d="M275.67 378.1C253.987 378.123 232.318 376.971 210.76 374.65C192.895 372.73 175.149 369.836 157.6 365.98L157.35 365.92L157.25 365.69C156.206 363.174 155.298 360.603 154.53 357.99C151.677 347.809 150.154 337.302 150 326.73V326.43C150 325.43 150 324.38 149.94 323.33V322.71L150.56 322.83C152.8 323.33 155.06 323.82 157.34 324.3C169.83 326.88 183 329.06 196.47 330.78C209.16 332.4 222.31 333.63 235.55 334.43C249.72 335.3 264.95 335.71 279.63 335.61H280.49V378.08H279.99L275.67 378.1ZM158.07 365.1C175.5 368.923 193.127 371.79 210.87 373.69C233.652 376.143 256.556 377.292 279.47 377.13V336.61C264.81 336.7 249.61 336.29 235.47 335.43C222.21 334.62 209.04 333.43 196.32 331.77C182.82 330.04 169.64 327.86 157.12 325.27C155.04 324.843 152.98 324.403 150.94 323.95C150.94 324.77 150.94 325.59 150.94 326.4V326.71C151.091 337.194 152.6 347.614 155.43 357.71C156.179 360.205 157.061 362.658 158.07 365.06V365.1Z" fill="#101010"/>
<path d="M227.04 192.17L225.17 191.75L224.17 191.53C222.79 191.21 221.43 190.88 220.09 190.53C216.99 189.73 213.86 188.81 210.8 187.81L210.37 187.67L210.47 187.23C211.35 183.15 214.47 179.29 219.64 175.76L220.11 175.44L220.37 175.95C222.738 180.736 224.795 185.67 226.53 190.72L227.04 192.17ZM211.57 187C214.47 187.95 217.43 188.8 220.36 189.56C221.69 189.91 223.04 190.24 224.42 190.56L225.42 190.78H225.56C223.924 186.033 221.997 181.39 219.79 176.88C215.24 180.07 212.49 183.46 211.57 187Z" fill="#101010"/>
<path d="M275.52 336.63C262.09 336.63 248.34 336.22 235.47 335.43C222.21 334.62 209.04 333.43 196.32 331.77C182.82 330.04 169.64 327.86 157.12 325.27C154.83 324.8 152.57 324.27 150.32 323.81L149.93 323.72V323.33C149.889 315.598 150.32 307.87 151.22 300.19C151.42 298.5 151.63 296.81 151.87 295.12C152.987 287.216 154.543 279.381 156.53 271.65L156.65 271.18L157.12 271.29C169.29 273.99 182.12 276.29 195.28 278.1C199.08 278.62 202.93 279.1 206.75 279.55C208.63 279.77 210.523 279.98 212.43 280.18L213.04 280.25C217.04 280.67 221.28 281.06 225.58 281.41L226.68 281.49C234.28 282.1 242.04 282.56 249.74 282.88C259.11 283.26 269.64 283.44 279.45 283.37H280.45V336.6H279.95L275.52 336.63ZM150.93 322.92C153.043 323.387 155.173 323.847 157.32 324.3C169.81 326.88 182.98 329.06 196.45 330.78C209.14 332.4 222.29 333.63 235.53 334.43C249.65 335.29 264.83 335.7 279.47 335.61V284.37C269.64 284.44 259.09 284.26 249.7 283.88C241.99 283.56 234.21 283.1 226.6 282.49L225.5 282.4C221.19 282.05 216.96 281.66 212.94 281.24L212.32 281.18C210.41 280.98 208.52 280.77 206.63 280.55C202.81 280.11 198.95 279.61 195.14 279.09C182.14 277.3 169.43 275.03 157.38 272.37C155.454 279.911 153.945 287.553 152.86 295.26C152.63 296.94 152.41 298.62 152.22 300.31C151.335 307.814 150.904 315.364 150.93 322.92Z" fill="#101010"/>
<path d="M275.74 284.39C267.02 284.39 257.91 284.21 249.74 283.88C242.03 283.56 234.25 283.1 226.64 282.49L225.54 282.4C221.23 282.05 217 281.66 212.98 281.24L212.36 281.18C210.45 280.98 208.56 280.77 206.67 280.55C202.85 280.11 198.99 279.61 195.18 279.09C182 277.27 169.18 274.98 156.94 272.26L156.44 272.15L156.57 271.65C158.424 264.398 160.667 257.251 163.29 250.24C165.15 245.3 167.17 240.5 169.29 235.99C171.07 232.25 172.97 228.6 174.95 225.16L175.13 224.84L175.49 224.92C191.744 228.464 208.192 231.049 224.75 232.66C226.91 232.867 229.087 233.067 231.28 233.26L231.93 233.32C237.93 233.82 244.13 234.23 250.39 234.53H250.84C259.64 234.94 270.04 235.14 279.46 235.08H280.46V284.36H279.94L275.74 284.39ZM157.63 271.39C169.63 274.05 182.31 276.3 195.28 278.09C199.08 278.61 202.93 279.09 206.75 279.54C208.63 279.76 210.523 279.97 212.43 280.17L213.04 280.24C217.04 280.66 221.28 281.05 225.58 281.4L226.68 281.48C234.28 282.09 242.04 282.55 249.74 282.87C259.11 283.25 269.64 283.43 279.45 283.36V236.09C270.01 236.15 259.58 235.95 250.75 235.54H250.3C244.03 235.24 237.81 234.83 231.81 234.33L231.15 234.27C228.963 234.077 226.783 233.873 224.61 233.66C208.142 232.054 191.781 229.493 175.61 225.99C173.71 229.31 171.89 232.83 170.18 236.43C168.05 240.92 166.03 245.69 164.18 250.6C161.631 257.413 159.444 264.356 157.63 271.4V271.39Z" fill="#101010"/>
<path d="M277.18 204.38C268.27 204.38 258.83 204.1 250.86 203.59C246.86 203.33 242.86 203.01 238.79 202.59C235.44 202.26 232.14 201.9 228.99 201.5C225.15 201.02 221.27 200.5 217.45 199.85L214.99 199.45C209.99 198.61 205.08 197.64 200.3 196.58L199.16 196.32L200.16 195.67C201.762 194.59 203.432 193.615 205.16 192.75C206.822 191.908 208.551 191.206 210.33 190.65L210.74 190.52L211.13 190.42L211.39 190.36C214.314 189.534 217.364 189.249 220.39 189.52C221.8 189.88 223.15 190.21 224.53 190.52L225.53 190.74L226.53 190.96C234.353 192.663 242.266 193.928 250.23 194.75C259.986 195.715 269.786 196.172 279.59 196.12H280.59V204.33H277.28L277.18 204.38ZM201.67 195.88C206.07 196.88 210.6 197.72 215.16 198.49L217.61 198.89C221.42 199.51 225.29 200.06 229.12 200.54C232.26 200.94 235.55 201.3 238.89 201.62C242.89 202.01 246.94 202.34 250.89 202.62C259.52 203.17 269.89 203.45 279.41 203.4V197.19C269.586 197.244 259.765 196.78 249.99 195.8C241.988 194.982 234.038 193.71 226.18 191.99L225.18 191.77L224.18 191.55C222.8 191.23 221.44 190.9 220.1 190.55C217.231 190.316 214.342 190.594 211.57 191.37L211.28 191.44L210.94 191.53L210.62 191.63C208.868 192.176 207.166 192.869 205.53 193.7C204.204 194.355 202.916 195.083 201.67 195.88Z" fill="#101010"/>
<path d="M276.33 236.11C267.76 236.11 258.62 235.91 250.75 235.55H250.3C244.03 235.25 237.81 234.84 231.81 234.34L231.15 234.28C228.963 234.087 226.783 233.883 224.61 233.67C208.013 232.055 191.524 229.468 175.23 225.92L174.57 225.77L174.91 225.18C182.52 211.93 191.23 201.75 200.1 195.73L200.3 195.61H200.49C205.26 196.67 210.18 197.61 215.14 198.47L217.59 198.87C221.4 199.49 225.27 200.04 229.1 200.52C232.24 200.92 235.53 201.28 238.87 201.6C242.87 201.99 246.92 202.32 250.87 202.6C259.5 203.15 269.87 203.43 279.39 203.38H280.39V236.12H276.33V236.11ZM176.12 225.11C192.158 228.571 208.381 231.105 224.71 232.7C226.87 232.907 229.047 233.107 231.24 233.3L231.89 233.36C237.89 233.86 244.09 234.27 250.35 234.57H250.8C259.6 234.98 270 235.17 279.42 235.12V204.39C269.86 204.45 259.42 204.16 250.81 203.61C246.81 203.35 242.81 203.03 238.74 202.61C235.39 202.28 232.09 201.92 228.94 201.52C225.1 201.04 221.22 200.52 217.4 199.87L214.94 199.47C210.04 198.64 205.17 197.69 200.46 196.64C191.95 202.51 183.54 212.32 176.14 225.07L176.12 225.11Z" fill="#101010"/>
<path d="M97.66 118.38L97.15 117.53C98.77 116.34 100.51 115.15 102.3 113.98C103.52 113.26 104.72 112.56 105.84 111.92C109.15 110.04 113.47 107.98 117.28 106.17L120.15 104.8C128.612 100.947 137.263 97.5225 146.07 94.54C147.26 94.16 148.56 93.73 149.91 93.28C153.15 92.22 156.83 91.01 159.79 90.2L163.73 89.12C166.99 88.22 170.36 87.29 173.18 86.59C174.48 86.26 175.92 85.92 177.41 85.59L177.67 85.53C184.74 83.89 192.34 85.72 200.27 90.97L201.27 91.61L200.15 91.88C183.77 95.75 169.44 100.71 157.56 106.6C155.27 107.74 153.05 108.92 150.96 110.13C148.87 111.34 146.74 112.65 144.83 113.95L144.67 114.06H144.47C142.91 113.71 141.35 113.41 139.66 113.14C124.71 110.63 110.18 112.47 97.66 118.38ZM102.84 114.83L101.72 115.56C113.891 111.043 127.045 109.848 139.83 112.1C141.46 112.37 142.97 112.65 144.45 112.98C146.33 111.71 148.35 110.46 150.45 109.24C152.55 108.02 154.8 106.83 157.11 105.69C168.78 99.89 182.79 95.01 198.77 91.16C191.19 86.4 183.95 84.87 177.26 86.65L173.44 87.58C170.63 88.28 167.27 89.21 164.02 90.11L160.07 91.19C157.13 91.99 153.47 93.19 150.24 94.25L146.39 95.51C137.627 98.4776 129.02 101.885 120.6 105.72L117.73 107.09C113.93 108.9 109.63 110.95 106.36 112.81C105.24 113.42 104.05 114.11 102.84 114.8V114.83Z" fill="#101010"/>
<path d="M199.92 91.91L199.73 91.77C191.96 86.63 184.53 84.86 177.68 86.53L177.42 86.59L176.5 85.78L177.43 85.55C181.16 84.67 184.7 83.88 187.43 83.33C196.15 81.56 207.9 79.66 216.23 78.33C220.83 77.62 227.04 76.96 231.31 76.52C243.93 75.22 256.23 74.44 268.89 74.12L272.15 74.05H273.38L279.38 74H280.55V83H280.05C251.76 83.2 223.41 86.32 200.22 91.81L199.92 91.91ZM184.43 84.98C189.43 85.33 194.72 87.29 200.13 90.84C223.22 85.4 251.37 82.28 279.47 82.06V75.06H279.33L273.33 75.11H272.12L268.85 75.18C256.22 75.5 243.95 76.28 231.35 77.57C227.09 78.01 220.9 78.67 216.35 79.38C208.03 80.66 196.35 82.56 187.59 84.33L184.43 84.98Z" fill="#101010"/>
<path d="M91.52 353.27L90.85 352.87C87.0023 350.469 83.2869 347.862 79.72 345.06C75.72 341.81 68.15 335.58 62.94 330.39C60.0577 327.56 57.324 324.583 54.75 321.47C52.47 318.6 49.35 314.68 46.61 310.85L46.39 310.53L47.05 309.75L47.45 310.23C53.01 317.77 60.98 325 71.16 331.72L71.31 331.87C76.4346 339.983 83.2921 346.861 91.39 352.01L91.66 352.18L91.52 353.27ZM63.65 329.68C68.23 334.25 74.65 339.68 78.84 343.06C75.7218 339.822 72.9346 336.281 70.52 332.49C65.0794 328.949 59.9628 324.933 55.23 320.49C55.34 320.61 55.43 320.74 55.53 320.86C58.0826 323.941 60.7929 326.889 63.65 329.69V329.68Z" fill="#101010"/>
<path d="M177.34 387.96L176.26 387.24L176.53 386.83L176.05 386.95L176.53 386.83V386.32H176.93L177.34 387.96Z" fill="#101010"/>
<path d="M276.21 398.11C270.91 398.11 260.65 398 248.37 397.3C243.81 397.05 237.61 396.59 232.92 396.17C229.83 395.89 226.12 395.48 222.52 395.08L217.97 394.58C213.38 394.09 207.2 393.13 202.97 392.46C199.97 391.99 196.45 391.34 192.97 390.71L188.71 389.94C185.64 389.39 181.51 388.51 176.45 387.33H176.32C175.85 387.15 175.38 386.95 174.92 386.74C168.33 383.59 162.33 376.8 158.09 367.62C157.81 366.99 157.52 366.34 157.25 365.69L156.88 364.8L157.82 365C175.315 368.852 193.008 371.74 210.82 373.65C233.599 376.102 256.5 377.251 279.41 377.09H280.41V398.09H279.92C279.57 398.09 278.26 398.11 276.21 398.11ZM176.68 386.35C181.74 387.53 185.85 388.41 188.92 388.95L193.18 389.72C196.61 390.35 200.18 391 203.11 391.47C207.35 392.14 213.51 393.09 218.11 393.58L222.67 394.08C226.26 394.48 229.97 394.9 233.05 395.17C237.73 395.59 243.92 396.05 248.47 396.31C264.23 397.2 276.64 397.12 279.47 397.09V378.09C256.52 378.256 233.579 377.108 210.76 374.65C193.219 372.76 175.791 369.936 158.55 366.19L159 367.19C163.11 376.19 168.92 382.77 175.37 385.77C175.8 385.99 176.24 386.18 176.68 386.35Z" fill="#101010"/>
<path d="M279.94 398.08L279.47 398.06V396.76H279.97H280.47V397.59L279.97 397.6L279.94 398.08Z" fill="#101010"/>
<path d="M560.24 450.09C548.76 450.09 537.09 438.46 537.09 427C537.09 438.46 525.46 450.09 514 450.09C525.5 450.09 537.09 461.68 537.09 473.18C537.09 461.68 548.76 450.09 560.22 450.09H560.24Z" fill="#101010"/>
<path d="M69.6296 56C69.6296 65.7406 61.7318 73.6296 52 73.6296C54.3155 73.6285 56.6085 74.0837 58.7479 74.9693C60.8874 75.8548 62.8313 77.1534 64.4686 78.7907C66.1059 80.428 67.4044 82.3719 68.29 84.5113C69.1756 86.6508 69.6308 88.9438 69.6296 91.2593C69.6285 88.9438 70.0837 86.6508 70.9693 84.5113C71.8548 82.3719 73.1534 80.428 74.7907 78.7907C76.4279 77.1534 78.3719 75.8548 80.5113 74.9693C82.6508 74.0837 84.9438 73.6285 87.2593 73.6296C77.5186 73.6296 69.6296 65.7406 69.6296 56Z" fill="#101010"/>
<path d="M31.1667 0C31.1667 17.3939 17.2045 31.4815 0 31.4815C4.09344 31.4794 8.14714 32.2923 11.9294 33.8737C15.7116 35.455 19.1482 37.7739 22.0427 40.6976C24.9372 43.6213 27.2328 47.0927 28.7984 50.9131C30.3639 54.7335 31.1687 58.8282 31.1667 62.963C31.1646 58.8282 31.9694 54.7335 33.5349 50.9131C35.1005 47.0927 37.3961 43.6213 40.2906 40.6976C43.1851 37.7739 46.6217 35.455 50.404 33.8737C54.1862 32.2923 58.2399 31.4794 62.3333 31.4815C45.1133 31.4815 31.1667 17.3939 31.1667 0Z" fill="#101010"/>
</svg>
