<svg width="64" height="64" viewBox="0 0 64 64" fill="none" xmlns="http://www.w3.org/2000/svg">
<path d="M32.35 42.0499C32.3462 43.3384 31.8696 44.5806 31.0106 45.541C30.1516 46.5013 28.97 47.113 27.69 47.2599V47.6499C27.69 48.1804 27.4793 48.6891 27.1042 49.0642C26.7291 49.4392 26.2204 49.6499 25.69 49.6499C25.1596 49.6499 24.6509 49.4392 24.2758 49.0642C23.9007 48.6891 23.69 48.1804 23.69 47.6499V47.2499C22.9152 47.1212 22.1777 46.8255 21.5285 46.3835C20.8792 45.9415 20.3338 45.3636 19.93 44.6899C19.7025 44.2779 19.6276 43.7987 19.7185 43.3369C19.8094 42.875 20.0604 42.46 20.4271 42.1649C20.7939 41.8699 21.253 41.7136 21.7236 41.7237C22.1942 41.7337 22.6462 41.9095 23 42.2199H28.29C28.2948 42.1634 28.2948 42.1065 28.29 42.0499C28.2898 41.7602 28.1905 41.4792 28.0086 41.2537C27.8267 41.0281 27.5731 40.8716 27.29 40.8099L23 39.7099C21.8076 39.4061 20.7591 38.6945 20.0363 37.6986C19.3136 36.7027 18.9621 35.4852 19.0428 34.2573C19.1236 33.0295 19.6315 31.8685 20.4784 30.9759C21.3254 30.0832 22.4581 29.5151 23.68 29.3699V28.9999C23.68 28.4695 23.8907 27.9608 24.2658 27.5857C24.6409 27.2107 25.1496 26.9999 25.68 26.9999C26.2104 26.9999 26.7191 27.2107 27.0942 27.5857C27.4693 27.9608 27.68 28.4695 27.68 28.9999V29.4099C28.4517 29.5365 29.1867 29.8292 29.8342 30.2678C30.4816 30.7063 31.0261 31.2803 31.43 31.9499C31.6739 32.4033 31.7336 32.9333 31.5966 33.4295C31.4597 33.9258 31.1366 34.3501 30.6947 34.6142C30.2528 34.8783 29.7261 34.9619 29.2242 34.8474C28.7223 34.733 28.2838 34.4295 28 33.9999C27.8797 33.7912 27.7083 33.6165 27.5018 33.4923C27.2954 33.3681 27.0608 33.2985 26.82 33.2899H24.29C23.9797 33.2941 23.6815 33.4108 23.4508 33.6184C23.2201 33.826 23.0727 34.1104 23.036 34.4185C22.9993 34.7267 23.0759 35.0377 23.2514 35.2936C23.4268 35.5496 23.6893 35.7331 23.99 35.8099L28.36 36.9099C29.5044 37.1965 30.5196 37.8587 31.243 38.7906C31.9664 39.7225 32.3562 40.8702 32.35 42.0499ZM45.35 38.3099C45.352 42.206 44.1981 46.015 42.0344 49.255C39.8707 52.4949 36.7945 55.0202 33.195 56.5111C29.5956 58.0021 25.6347 58.3917 21.8138 57.6306C17.9928 56.8696 14.4835 54.9921 11.73 52.2358C8.9765 49.4795 7.10259 45.9683 6.34543 42.1465C5.58826 38.3248 5.98189 34.3643 7.47649 30.7664C8.97108 27.1685 11.4995 24.0948 14.7416 21.9344C17.9838 19.774 21.794 18.624 25.69 18.6299C30.907 18.6379 35.9081 20.7139 39.5971 24.4029C43.2861 28.0918 45.3621 33.0929 45.37 38.3099H45.35ZM41.35 38.3099C41.35 35.2055 40.429 32.1708 38.7037 29.5899C36.9783 27.0091 34.5261 24.9981 31.6574 23.8114C28.7886 22.6248 25.6324 22.3158 22.588 22.9237C19.5436 23.5315 16.748 25.0288 14.5549 27.2261C12.3618 29.4234 10.8698 32.2219 10.2678 35.2674C9.66583 38.3129 9.98083 41.4686 11.173 44.3351C12.3651 47.2015 14.3808 49.6499 16.965 51.3703C19.5491 53.0907 22.5855 54.0059 25.69 53.9999C29.8479 53.992 33.8331 52.3361 36.7722 49.3951C39.7113 46.4541 41.3647 42.4678 41.37 38.3099H41.35ZM52.24 11.7699C50.4162 9.93605 48.2469 8.48187 45.8576 7.49148C43.4683 6.50109 40.9064 5.99415 38.32 5.99995C35.7334 5.99304 33.1712 6.49949 30.7818 7.48994C28.3923 8.48039 26.2232 9.93515 24.4 11.7699C24.2142 11.9558 24.0668 12.1764 23.9662 12.4192C23.8657 12.6619 23.8139 12.9222 23.8139 13.1849C23.8139 13.4477 23.8657 13.708 23.9662 13.9507C24.0668 14.1935 24.2142 14.4141 24.4 14.5999C24.5858 14.7858 24.8064 14.9332 25.0492 15.0337C25.292 15.1343 25.5522 15.1861 25.815 15.1861C26.0778 15.1861 26.338 15.1343 26.5808 15.0337C26.8236 14.9332 27.0442 14.7858 27.23 14.5999C28.6814 13.1365 30.4093 11.9762 32.3131 11.1865C34.217 10.3968 36.2589 9.99344 38.32 9.99995C41.4219 10.0017 44.4536 10.9229 47.0322 12.6471C49.6107 14.3712 51.6204 16.821 52.8072 19.6869C53.994 22.5527 54.3047 25.7061 53.7 28.7484C53.0954 31.7908 51.6025 34.5857 49.41 36.7799C49.132 37.0596 48.9429 37.4152 48.8664 37.8021C48.7899 38.1889 48.8295 38.5898 48.9802 38.9542C49.1309 39.3186 49.3859 39.6303 49.7133 39.8502C50.0406 40.0701 50.4257 40.1883 50.82 40.1899C51.0839 40.1902 51.3453 40.1381 51.589 40.0369C51.8327 39.9356 52.054 39.7871 52.24 39.5999C55.9277 35.908 57.9991 30.9032 57.9991 25.6849C57.9991 20.4667 55.9277 15.4619 52.24 11.7699Z" fill="#101010"/>
<path d="M52.24 11.7699C50.4162 9.93605 48.2469 8.48187 45.8576 7.49148C43.4683 6.50109 40.9064 5.99415 38.32 5.99995C35.7334 5.99304 33.1712 6.49949 30.7818 7.48994C28.3923 8.48039 26.2232 9.93515 24.4 11.7699C24.2142 11.9558 24.0668 12.1764 23.9662 12.4192C23.8657 12.6619 23.8139 12.9222 23.8139 13.1849C23.8139 13.4477 23.8657 13.708 23.9662 13.9507C24.0668 14.1935 24.2142 14.4141 24.4 14.5999C24.5858 14.7858 24.8064 14.9332 25.0492 15.0337C25.292 15.1343 25.5522 15.1861 25.815 15.1861C26.0778 15.1861 26.338 15.1343 26.5808 15.0337C26.8236 14.9332 27.0442 14.7858 27.23 14.5999C28.6814 13.1365 30.4093 11.9762 32.3132 11.1865C34.217 10.3968 36.2589 9.99344 38.32 9.99995C41.4219 10.0017 44.4537 10.9229 47.0322 12.6471C49.6108 14.3712 51.6204 16.821 52.8072 19.6869C53.994 22.5527 54.3047 25.7061 53.7 28.7484C53.0954 31.7908 51.6025 34.5857 49.41 36.7799C49.132 37.0596 48.9429 37.4152 48.8664 37.8021C48.7899 38.1889 48.8295 38.5898 48.9802 38.9542C49.1309 39.3186 49.3859 39.6303 49.7133 39.8502C50.0406 40.0701 50.4257 40.1883 50.82 40.1899C51.0839 40.1902 51.3453 40.1381 51.589 40.0369C51.8327 39.9356 52.054 39.7871 52.24 39.5999C55.9278 35.908 57.9992 30.9032 57.9992 25.6849C57.9992 20.4667 55.9278 15.4619 52.24 11.7699Z" fill="#6F4CCE"/>
</svg>
