<svg width="64" height="64" viewBox="0 0 64 64" fill="none" xmlns="http://www.w3.org/2000/svg">
<path d="M43.4 28.49L36.69 25.81L38.06 17.55C38.1268 17.1337 38.0603 16.7069 37.8701 16.3307C37.6798 15.9544 37.3755 15.6479 37.0007 15.4549C36.6258 15.2619 36.1995 15.1923 35.7828 15.2561C35.366 15.3199 34.98 15.5138 34.68 15.81L19.91 30.58C19.6761 30.8129 19.5034 31.1 19.4075 31.4159C19.3115 31.7317 19.2952 32.0663 19.36 32.39C19.4261 32.7155 19.5723 33.0195 19.7853 33.2744C19.9983 33.5293 20.2714 33.7271 20.58 33.85L27.33 36.55L25.91 46.48C25.8502 46.9034 25.9276 47.3348 26.131 47.711C26.3344 48.0871 26.653 48.3882 27.04 48.57C27.3059 48.695 27.5961 48.7599 27.89 48.76C28.1708 48.7607 28.4486 48.7024 28.7053 48.5886C28.962 48.4749 29.1919 48.3084 29.38 48.1L44.14 31.69C44.3566 31.4509 44.5122 31.1629 44.5934 30.8506C44.6747 30.5383 44.6791 30.211 44.6064 29.8966C44.5337 29.5822 44.386 29.2901 44.1759 29.0451C43.9659 28.8002 43.6996 28.6097 43.4 28.49ZM30.8 40.49L31.51 35.49C31.5732 35.0459 31.4853 34.5935 31.2605 34.2053C31.0356 33.8172 30.6867 33.516 30.27 33.35L24.88 31.2L33.09 22.99L32.48 26.68C32.4064 27.1291 32.4882 27.5899 32.7118 27.9862C32.9354 28.3826 33.2875 28.6908 33.71 28.86L39.25 31.08L30.8 40.49ZM50.37 13.61C46.7344 9.97249 42.1016 7.49488 37.0578 6.49057C32.0139 5.48626 26.7855 6.00036 22.0338 7.96784C17.2821 9.93532 13.2207 13.2678 10.3632 17.5438C7.50566 21.8197 5.98045 26.8471 5.98045 31.99C5.98045 37.1329 7.50566 42.1603 10.3632 46.4362C13.2207 50.7122 17.2821 54.0447 22.0338 56.0122C26.7855 57.9796 32.0139 58.4937 37.0578 57.4894C42.1016 56.4851 46.7344 54.0075 50.37 50.37C55.243 45.4944 57.9804 38.8833 57.9804 31.99C57.9804 25.0967 55.243 18.4856 50.37 13.61ZM47.55 47.55C44.4728 50.6257 40.5528 52.72 36.2855 53.568C32.0182 54.4161 27.5953 53.9798 23.5759 52.3144C19.5565 50.6489 16.1212 47.8291 13.7043 44.2115C11.2873 40.5938 9.9973 36.3408 9.9973 31.99C9.9973 27.6393 11.2873 23.3862 13.7043 19.7685C16.1212 16.1509 19.5565 13.3311 23.5759 11.6656C27.5953 10.0002 32.0182 9.56393 36.2855 10.412C40.5528 11.26 44.4728 13.3543 47.55 16.43C49.594 18.473 51.2154 20.8987 52.3217 23.5686C53.4279 26.2384 53.9973 29.1001 53.9973 31.99C53.9973 34.88 53.4279 37.7416 52.3217 40.4114C51.2154 43.0813 49.594 45.507 47.55 47.55Z" fill="#101010"/>
<path d="M50.37 13.61C46.7344 9.97249 42.1016 7.49488 37.0578 6.49057C32.0139 5.48626 26.7855 6.00036 22.0338 7.96784C17.2821 9.93532 13.2207 13.2678 10.3632 17.5438C7.50566 21.8197 5.98045 26.8471 5.98045 31.99C5.98045 37.1329 7.50566 42.1603 10.3632 46.4362C13.2207 50.7122 17.2821 54.0447 22.0338 56.0122C26.7855 57.9796 32.0139 58.4937 37.0578 57.4894C42.1016 56.4851 46.7344 54.0075 50.37 50.37C55.243 45.4944 57.9804 38.8833 57.9804 31.99C57.9804 25.0967 55.243 18.4856 50.37 13.61ZM47.55 47.55C44.4728 50.6257 40.5528 52.72 36.2855 53.568C32.0182 54.4161 27.5953 53.9798 23.5759 52.3144C19.5565 50.6489 16.1212 47.8291 13.7043 44.2115C11.2873 40.5938 9.9973 36.3408 9.9973 31.99C9.9973 27.6393 11.2873 23.3862 13.7043 19.7685C16.1212 16.1509 19.5565 13.3311 23.5759 11.6656C27.5953 10.0002 32.0182 9.56393 36.2855 10.412C40.5528 11.26 44.4728 13.3543 47.55 16.43C49.594 18.473 51.2154 20.8987 52.3217 23.5686C53.4279 26.2384 53.9973 29.1001 53.9973 31.99C53.9973 34.88 53.4279 37.7416 52.3217 40.4114C51.2154 43.0813 49.594 45.507 47.55 47.55Z" fill="#6F4CCE"/>
</svg>
