<svg width="64" height="64" viewBox="0 0 64 64" fill="none" xmlns="http://www.w3.org/2000/svg">
<path d="M50.67 6H13.33C11.3868 6.00265 9.5239 6.77576 8.14983 8.14983C6.77576 9.5239 6.00265 11.3868 6 13.33V45.33C6.00265 47.2732 6.77576 49.1361 8.14983 50.5102C9.5239 51.8842 11.3868 52.6574 13.33 52.66H25.84L30.59 57.41C30.9647 57.7825 31.4716 57.9916 32 57.9916C32.5284 57.9916 33.0353 57.7825 33.41 57.41L38.16 52.66H50.67C52.6132 52.6574 54.4761 51.8842 55.8502 50.5102C57.2242 49.1361 57.9974 47.2732 58 45.33V13.33C57.9974 11.3868 57.2242 9.5239 55.8502 8.14983C54.4761 6.77576 52.6132 6.00265 50.67 6ZM54 45.33C53.9974 46.2124 53.6457 47.0578 53.0218 47.6818C52.3978 48.3057 51.5524 48.6574 50.67 48.66H37.33C36.8004 48.6622 36.2933 48.8744 35.92 49.25L32 53.17L28.08 49.25C27.7066 48.8744 27.1996 48.6622 26.67 48.66H13.33C12.4476 48.6574 11.6022 48.3057 10.9782 47.6818C10.3543 47.0578 10.0026 46.2124 10 45.33V13.33C10.0026 12.4476 10.3543 11.6022 10.9782 10.9782C11.6022 10.3543 12.4476 10.0026 13.33 10H50.67C51.5524 10.0026 52.3978 10.3543 53.0218 10.9782C53.6457 11.6022 53.9974 12.4476 54 13.33V45.33ZM41.33 24.54H39.33V22.33C39.3559 21.0956 38.9732 19.8873 38.2414 18.8929C37.5095 17.8986 36.4696 17.174 35.2833 16.8318C34.0971 16.4896 32.831 16.549 31.682 17.0008C30.533 17.4526 29.5655 18.2715 28.93 19.33L26.16 23.86C25.5798 23.4957 24.9048 23.3113 24.22 23.33H20.54C20.0817 23.33 19.6279 23.4203 19.2044 23.5957C18.781 23.7711 18.3963 24.0281 18.0722 24.3522C17.7481 24.6763 17.491 25.061 17.3157 25.4844C17.1403 25.9079 17.05 26.3617 17.05 26.82V38.48C17.05 39.4065 17.4174 40.2953 18.0716 40.9513C18.7258 41.6074 19.6135 41.9774 20.54 41.98H24.22C24.7734 41.975 25.318 41.8414 25.8109 41.5897C26.3038 41.3381 26.7314 40.9753 27.06 40.53L27.32 40.75C28.2785 41.5451 29.4847 41.9802 30.73 41.98H40.28C41.2969 41.9764 42.2853 41.6431 43.0967 41.03C43.9081 40.417 44.4987 39.5573 44.78 38.58L46.78 31.75C47.0039 30.9602 47.0547 30.1314 46.9287 29.3202C46.8027 28.509 46.5029 27.7346 46.05 27.05C45.5329 26.2732 44.8308 25.6372 44.0069 25.199C43.183 24.7609 42.2631 24.5344 41.33 24.54ZM23.71 37.98H21.05V27.33H23.71V37.98ZM42.89 30.65L40.89 37.48C40.8461 37.6219 40.7588 37.7465 40.6404 37.8362C40.522 37.9259 40.3785 37.9762 40.23 37.98H30.73C30.416 37.9798 30.1119 37.8702 29.87 37.67L27.71 35.88V29.03L32.34 21.46C32.5138 21.1449 32.7887 20.8977 33.1203 20.7581C33.4519 20.6185 33.8209 20.5947 34.1677 20.6907C34.5144 20.7866 34.8188 20.9966 35.0315 21.2868C35.2442 21.577 35.3529 21.9304 35.34 22.29V26.54C35.34 27.0704 35.5507 27.5791 35.9258 27.9542C36.3009 28.3293 36.8096 28.54 37.34 28.54H41.34C41.5946 28.5417 41.8453 28.6027 42.0723 28.7182C42.2992 28.8336 42.4962 29.0003 42.6475 29.205C42.7989 29.4097 42.9005 29.6469 42.9443 29.8977C42.9882 30.1485 42.973 30.4061 42.9 30.65H42.89Z" fill="#6F4CCE"/>
<path d="M41.33 24.54H39.33V22.33C39.3559 21.0957 38.9732 19.8873 38.2414 18.893C37.5095 17.8986 36.4696 17.174 35.2833 16.8318C34.0971 16.4896 32.831 16.5491 31.682 17.0009C30.533 17.4527 29.5655 18.2715 28.93 19.33L26.16 23.86C25.5798 23.4957 24.9048 23.3113 24.22 23.33H20.54C20.0817 23.33 19.6279 23.4203 19.2044 23.5957C18.781 23.7711 18.3963 24.0282 18.0722 24.3522C17.7481 24.6763 17.4911 25.0611 17.3157 25.4845C17.1403 25.9079 17.05 26.3617 17.05 26.82V38.48C17.05 39.4066 17.4174 40.2953 18.0716 40.9514C18.7258 41.6075 19.6135 41.9774 20.54 41.98H24.22C24.7734 41.975 25.318 41.8414 25.8109 41.5898C26.3038 41.3381 26.7314 40.9753 27.06 40.53L27.32 40.75C28.2785 41.5451 29.4847 41.9802 30.73 41.98H40.28C41.2969 41.9764 42.2853 41.6431 43.0967 41.0301C43.9081 40.417 44.4987 39.5573 44.78 38.58L46.78 31.75C47.0039 30.9603 47.0547 30.1314 46.9287 29.3203C46.8027 28.5091 46.503 27.7347 46.05 27.05C45.5329 26.2733 44.8308 25.6372 44.0069 25.1991C43.183 24.761 42.2631 24.5345 41.33 24.54ZM23.71 37.98H21.05V27.33H23.71V37.98ZM42.89 30.65L40.89 37.48C40.8461 37.622 40.7588 37.7465 40.6404 37.8362C40.522 37.9259 40.3785 37.9762 40.23 37.98H30.73C30.416 37.9799 30.1119 37.8702 29.87 37.67L27.71 35.88V29.03L32.34 21.46C32.5138 21.145 32.7887 20.8977 33.1203 20.7581C33.4519 20.6185 33.8209 20.5948 34.1677 20.6907C34.5144 20.7867 34.8188 20.9967 35.0315 21.2869C35.2442 21.5771 35.3529 21.9305 35.34 22.29V26.54C35.34 27.0705 35.5507 27.5792 35.9258 27.9543C36.3009 28.3293 36.8096 28.54 37.34 28.54H41.34C41.5946 28.5418 41.8453 28.6028 42.0723 28.7182C42.2992 28.8336 42.4962 29.0003 42.6475 29.205C42.7989 29.4098 42.9005 29.6469 42.9443 29.8977C42.9882 30.1485 42.973 30.4061 42.9 30.65H42.89Z" fill="#101010"/>
</svg>
