<svg width="64" height="64" viewBox="0 0 64 64" fill="none" xmlns="http://www.w3.org/2000/svg">
<path d="M13.68 29.01V31.68C13.68 32.2104 13.8907 32.7191 14.2658 33.0942C14.6409 33.4693 15.1496 33.68 15.68 33.68C16.2104 33.68 16.7191 33.4693 17.0942 33.0942C17.4693 32.7191 17.68 32.2104 17.68 31.68V29.01C17.6826 26.7114 18.5969 24.5077 20.2223 22.8823C21.8477 21.2569 24.0514 20.3426 26.35 20.34C26.8804 20.34 27.3891 20.1293 27.7642 19.7542C28.1393 19.3791 28.35 18.8704 28.35 18.34C28.35 17.8096 28.1393 17.3009 27.7642 16.9258C27.3891 16.5507 26.8804 16.34 26.35 16.34C24.0531 16.3374 21.8509 15.4244 20.2258 13.8012C18.6007 12.178 17.6853 9.97688 17.68 7.68V5C17.68 4.46957 17.4693 3.96086 17.0942 3.58579C16.7191 3.21071 16.2104 3 15.68 3C15.1496 3 14.6409 3.21071 14.2658 3.58579C13.8907 3.96086 13.68 4.46957 13.68 5V7.68C13.6773 9.97861 12.7631 12.1823 11.1377 13.8077C9.51232 15.4331 7.30861 16.3474 5.00999 16.35C4.47956 16.35 3.97085 16.5607 3.59578 16.9358C3.22071 17.3109 3.00999 17.8196 3.00999 18.35C3.00999 18.8804 3.22071 19.3891 3.59578 19.7642C3.97085 20.1393 4.47956 20.35 5.00999 20.35C7.30688 20.3526 9.50908 21.2656 11.1342 22.8888C12.7592 24.512 13.6747 26.7131 13.68 29.01ZM15.68 14.5C16.674 16.0406 17.9868 17.35 19.53 18.34C17.9842 19.3309 16.6709 20.6442 15.68 22.19C14.693 20.6445 13.3829 19.331 11.84 18.34C13.3803 17.3499 14.6899 16.0403 15.68 14.5ZM58.37 24.34C55.3633 24.34 52.4794 23.1469 50.3514 21.0227C48.2234 18.8985 47.0253 16.0167 47.02 13.01V10.34C47.02 9.80957 46.8093 9.30086 46.4342 8.92579C46.0591 8.55071 45.5504 8.34 45.02 8.34C44.4896 8.34 43.9809 8.55071 43.6058 8.92579C43.2307 9.30086 43.02 9.80957 43.02 10.34V13.01C43.0147 16.015 41.8179 18.8953 39.6921 21.0192C37.5663 23.1431 34.685 24.3374 31.68 24.34C31.1496 24.34 30.6409 24.5507 30.2658 24.9258C29.8907 25.3009 29.68 25.8096 29.68 26.34C29.68 26.8704 29.8907 27.3791 30.2658 27.7542C30.6409 28.1293 31.1496 28.34 31.68 28.34C34.6859 28.3453 37.5672 29.5417 39.6927 31.6672C41.8183 33.7928 43.0147 36.6741 43.02 39.68V42.35C43.02 42.8804 43.2307 43.3891 43.6058 43.7642C43.9809 44.1393 44.4896 44.35 45.02 44.35C45.5504 44.35 46.0591 44.1393 46.4342 43.7642C46.8093 43.3891 47.02 42.8804 47.02 42.35V39.68C47.0253 36.6741 48.2217 33.7928 50.3472 31.6672C52.4728 29.5417 55.3541 28.3453 58.36 28.34C58.8904 28.34 59.3991 28.1293 59.7742 27.7542C60.1493 27.3791 60.36 26.8704 60.36 26.34C60.36 25.8096 60.1493 25.3009 59.7742 24.9258C59.3991 24.5507 58.8904 24.34 58.36 24.34H58.37ZM45.02 32.12C43.6495 29.711 41.6567 27.7146 39.25 26.34C41.6581 24.9717 43.6517 22.9781 45.02 20.57C46.3883 22.9781 48.3819 24.9717 50.79 26.34C48.3833 27.7146 46.3905 29.711 45.02 32.12ZM37.02 44.35C34.7196 44.35 32.5134 43.4369 30.8858 41.8112C29.2583 40.1856 28.3426 37.9803 28.34 35.68V34.35C28.34 33.8196 28.1293 33.3109 27.7542 32.9358C27.3791 32.5607 26.8704 32.35 26.34 32.35C25.8096 32.35 25.3009 32.5607 24.9258 32.9358C24.5507 33.3109 24.34 33.8196 24.34 34.35V35.68C24.3374 37.9769 23.4244 40.1791 21.8012 41.8042C20.178 43.4292 17.9769 44.3447 15.68 44.35C15.1496 44.35 14.6409 44.5607 14.2658 44.9358C13.8907 45.3109 13.68 45.8196 13.68 46.35C13.68 46.8804 13.8907 47.3891 14.2658 47.7642C14.6409 48.1393 15.1496 48.35 15.68 48.35C17.9786 48.3526 20.1823 49.2669 21.8077 50.8923C23.4331 52.5177 24.3473 54.7214 24.35 57.02V58.36C24.35 58.8904 24.5607 59.3991 24.9358 59.7742C25.3109 60.1493 25.8196 60.36 26.35 60.36C26.8804 60.36 27.3891 60.1493 27.7642 59.7742C28.1393 59.3991 28.35 58.8904 28.35 58.36V57.02C28.3526 54.7197 29.2683 52.5144 30.8958 50.8888C32.5234 49.2631 34.7296 48.35 37.03 48.35C37.5604 48.35 38.0691 48.1393 38.4442 47.7642C38.8193 47.3891 39.03 46.8804 39.03 46.35C39.03 45.8196 38.8193 45.3109 38.4442 44.9358C38.0691 44.5607 37.5604 44.35 37.03 44.35H37.02ZM26.34 50.2C25.353 48.6545 24.0429 47.341 22.5 46.35C24.0425 45.3626 25.3526 44.0525 26.34 42.51C27.334 44.0506 28.6468 45.36 30.19 46.35C28.6464 47.3436 27.3336 48.6564 26.34 50.2Z" fill="#101010"/>
<path d="M58.37 24.34C55.3633 24.34 52.4794 23.1469 50.3514 21.0227C48.2234 18.8985 47.0253 16.0167 47.02 13.01V10.34C47.02 9.80953 46.8093 9.30083 46.4342 8.92575C46.0591 8.55068 45.5504 8.33997 45.02 8.33997C44.4896 8.33997 43.9809 8.55068 43.6058 8.92575C43.2307 9.30083 43.02 9.80953 43.02 10.34V13.01C43.0147 16.015 41.8179 18.8952 39.6921 21.0192C37.5663 23.1431 34.685 24.3373 31.68 24.34C31.1496 24.34 30.6409 24.5507 30.2658 24.9258C29.8907 25.3008 29.68 25.8095 29.68 26.34C29.68 26.8704 29.8907 27.3791 30.2658 27.7542C30.6409 28.1293 31.1496 28.34 31.68 28.34C34.6859 28.3453 37.5672 29.5417 39.6927 31.6672C41.8183 33.7927 43.0147 36.674 43.02 39.68V42.35C43.02 42.8804 43.2307 43.3891 43.6058 43.7642C43.9809 44.1393 44.4896 44.35 45.02 44.35C45.5504 44.35 46.0591 44.1393 46.4342 43.7642C46.8093 43.3891 47.02 42.8804 47.02 42.35V39.68C47.0253 36.674 48.2217 33.7927 50.3472 31.6672C52.4728 29.5417 55.3541 28.3453 58.36 28.34C58.8904 28.34 59.3991 28.1293 59.7742 27.7542C60.1493 27.3791 60.36 26.8704 60.36 26.34C60.36 25.8095 60.1493 25.3008 59.7742 24.9258C59.3991 24.5507 58.8904 24.34 58.36 24.34H58.37ZM45.02 32.12C43.6495 29.7109 41.6567 27.7146 39.25 26.34C41.6581 24.9716 43.6517 22.978 45.02 20.57C46.3883 22.978 48.3819 24.9716 50.79 26.34C48.3833 27.7146 46.3905 29.7109 45.02 32.12Z" fill="#6F4CCE"/>
</svg>
