<svg width="64" height="64" viewBox="0 0 64 64" fill="none" xmlns="http://www.w3.org/2000/svg">
<path d="M43.87 15.34H37.93C37.0088 15.3427 36.1262 15.7105 35.4757 16.3628C34.8253 17.0151 34.46 17.8988 34.46 18.82V21.26H29.01C28.0852 21.2626 27.1991 21.6312 26.5451 22.2851C25.8912 22.9391 25.5226 23.8252 25.52 24.75V27.19H20.15C19.2261 27.1927 18.341 27.5615 17.6887 28.2157C17.0363 28.87 16.67 29.7561 16.67 30.68V36.6C16.6687 37.0578 16.7577 37.5114 16.932 37.9348C17.1063 38.3582 17.3625 38.743 17.6857 39.0672C18.009 39.3914 18.3931 39.6486 18.816 39.8242C19.2388 39.9997 19.6922 40.09 20.15 40.09H43.87C44.3279 40.09 44.7812 39.9997 45.2041 39.8242C45.6269 39.6486 46.011 39.3914 46.3343 39.0672C46.6576 38.743 46.9137 38.3582 47.088 37.9348C47.2623 37.5114 47.3513 37.0578 47.35 36.6V18.82C47.35 17.8971 46.9834 17.0119 46.3307 16.3593C45.6781 15.7067 44.793 15.34 43.87 15.34ZM29.56 25.26H34.46V36.09H29.56V25.26ZM20.67 31.19H25.56V36.09H20.67V31.19ZM43.35 36.09H38.46V19.34H43.35V36.09ZM47.35 45.35C47.35 45.8804 47.1393 46.3892 46.7642 46.7642C46.3892 47.1393 45.8804 47.35 45.35 47.35H18.67C18.1396 47.35 17.6309 47.1393 17.2558 46.7642C16.8807 46.3892 16.67 45.8804 16.67 45.35C16.67 44.8196 16.8807 44.3109 17.2558 43.9358C17.6309 43.5607 18.1396 43.35 18.67 43.35H45.35C45.8804 43.35 46.3892 43.5607 46.7642 43.9358C47.1393 44.3109 47.35 44.8196 47.35 45.35ZM42.69 6.01001H21.33C17.2693 6.01794 13.3772 7.63455 10.5059 10.5059C7.63455 13.3772 6.01794 17.2693 6.01001 21.33V42.69C6.01794 46.7507 7.63455 50.6428 10.5059 53.5141C13.3772 56.3855 17.2693 58.0021 21.33 58.01H42.69C46.7507 58.0021 50.6428 56.3855 53.5141 53.5141C56.3855 50.6428 58.0021 46.7507 58.01 42.69V21.33C58.0021 17.2693 56.3855 13.3772 53.5141 10.5059C50.6428 7.63455 46.7507 6.01794 42.69 6.01001ZM54.01 42.69C54.0047 45.6906 52.8104 48.5669 50.6886 50.6886C48.5669 52.8104 45.6906 54.0047 42.69 54.01H21.33C18.3294 54.0047 15.4532 52.8104 13.3314 50.6886C11.2096 48.5669 10.0153 45.6906 10.01 42.69V21.33C10.0153 18.3294 11.2096 15.4532 13.3314 13.3314C15.4532 11.2096 18.3294 10.0153 21.33 10.01H42.69C45.6906 10.0153 48.5669 11.2096 50.6886 13.3314C52.8104 15.4532 54.0047 18.3294 54.01 21.33V42.69Z" fill="#101010"/>
<path d="M42.69 6.01001H21.33C17.2693 6.01794 13.3772 7.63455 10.5059 10.5059C7.63455 13.3772 6.01794 17.2693 6.01001 21.33V42.69C6.01794 46.7507 7.63455 50.6428 10.5059 53.5141C13.3772 56.3855 17.2693 58.0021 21.33 58.01H42.69C46.7507 58.0021 50.6428 56.3855 53.5141 53.5141C56.3855 50.6428 58.0021 46.7507 58.01 42.69V21.33C58.0021 17.2693 56.3855 13.3772 53.5141 10.5059C50.6428 7.63455 46.7507 6.01794 42.69 6.01001ZM54.01 42.69C54.0047 45.6906 52.8104 48.5669 50.6886 50.6886C48.5669 52.8104 45.6906 54.0047 42.69 54.01H21.33C18.3294 54.0047 15.4532 52.8104 13.3314 50.6886C11.2096 48.5669 10.0153 45.6906 10.01 42.69V21.33C10.0153 18.3294 11.2096 15.4532 13.3314 13.3314C15.4532 11.2096 18.3294 10.0153 21.33 10.01H42.69C45.6906 10.0153 48.5669 11.2096 50.6886 13.3314C52.8104 15.4532 54.0047 18.3294 54.01 21.33V42.69Z" fill="#6F4CCE"/>
</svg>
