<svg width="64" height="64" viewBox="0 0 64 64" fill="none" xmlns="http://www.w3.org/2000/svg">
<path d="M30.74 58C27.4499 58.0661 24.1797 57.4752 21.1208 56.2619C18.0618 55.0486 15.2757 53.2372 12.9255 50.9338C10.5753 48.6304 8.7083 45.8812 7.43372 42.8473C6.15914 39.8134 5.50262 36.5557 5.50262 33.265C5.50262 29.9742 6.15914 26.7165 7.43372 23.6826C8.7083 20.6487 10.5753 17.8996 12.9255 15.5962C15.2757 13.2928 18.0618 11.4814 21.1208 10.268C24.1797 9.0547 27.4499 8.46381 30.74 8.52997C31.2704 8.52997 31.7791 8.74069 32.1542 9.11576C32.5293 9.49083 32.74 9.99954 32.74 10.53C32.74 11.0604 32.5293 11.5691 32.1542 11.9442C31.7791 12.3193 31.2704 12.53 30.74 12.53C26.6372 12.528 22.6259 13.7429 19.2137 16.0211C15.8015 18.2993 13.1416 21.5383 11.5706 25.3285C9.99965 29.1186 9.58808 33.2896 10.388 37.3137C11.188 41.3378 13.1635 45.0342 16.0646 47.9354C18.9657 50.8365 22.6622 52.812 26.6863 53.6119C30.7104 54.4119 34.8813 54.0003 38.6715 52.4293C42.4616 50.8583 45.7007 48.1985 47.9788 44.7863C50.257 41.3741 51.472 37.3628 51.47 33.26C51.47 32.7295 51.6807 32.2208 52.0558 31.8458C52.4309 31.4707 52.9396 31.26 53.47 31.26C54.0004 31.26 54.5091 31.4707 54.8842 31.8458C55.2593 32.2208 55.47 32.7295 55.47 33.26C55.4647 39.8181 52.8578 46.1062 48.2215 50.7444C43.5852 55.3826 37.2981 57.992 30.74 58ZM45.37 33.26C45.37 32.7295 45.1593 32.2208 44.7842 31.8458C44.4091 31.4707 43.9004 31.26 43.37 31.26C42.8396 31.26 42.3309 31.4707 41.9558 31.8458C41.5807 32.2208 41.37 32.7295 41.37 33.26C41.372 35.3652 40.7494 37.4237 39.581 39.175C38.4126 40.9263 36.751 42.2916 34.8064 43.0981C32.8618 43.9047 30.7216 44.1162 28.6567 43.706C26.5918 43.2958 24.695 42.2822 23.2064 40.7936C21.7177 39.305 20.7042 37.4082 20.294 35.3433C19.8837 33.2784 20.0953 31.1382 20.9018 29.1936C21.7084 27.249 23.0737 25.5873 24.825 24.419C26.5762 23.2506 28.6347 22.628 30.74 22.63C31.2704 22.63 31.7791 22.4193 32.1542 22.0442C32.5293 21.6691 32.74 21.1604 32.74 20.63C32.74 20.0995 32.5293 19.5908 32.1542 19.2158C31.7791 18.8407 31.2704 18.63 30.74 18.63C27.8436 18.628 25.0117 19.4852 22.6027 21.0931C20.1936 22.701 18.3156 24.9873 17.2063 27.6629C16.097 30.3384 15.8062 33.2828 16.3708 36.1236C16.9354 38.9645 18.3299 41.574 20.378 43.622C22.426 45.6701 25.0355 47.0646 27.8763 47.6292C30.7171 48.1937 33.6616 47.903 36.3371 46.7937C39.0126 45.6843 41.299 43.8064 42.9069 41.3973C44.5148 38.9882 45.372 36.1563 45.37 33.26ZM49.83 24.57L57.41 17C57.6402 16.7782 57.814 16.5045 57.9166 16.2017C58.0193 15.899 58.0479 15.576 58 15.26C57.9494 14.9469 57.8251 14.6503 57.6373 14.3947C57.4496 14.1391 57.2037 13.9318 56.92 13.79L52.47 11.56L50.21 7.10997C50.0719 6.82069 49.8662 6.56884 49.6104 6.37567C49.3546 6.18249 49.056 6.05364 48.74 5.99997C48.4239 5.9521 48.101 5.98069 47.7982 6.08334C47.4955 6.186 47.2218 6.35973 47 6.58997L39.42 14.16C39.2328 14.346 39.0843 14.5673 38.9831 14.811C38.8818 15.0547 38.8298 15.3161 38.83 15.58V23.16C38.83 23.6904 39.0407 24.1991 39.4158 24.5742C39.7909 24.9493 40.2996 25.16 40.83 25.16H48.41C48.6739 25.1602 48.9352 25.1082 49.179 25.0069C49.4227 24.9056 49.6439 24.7571 49.83 24.57ZM42.83 16.41L47.83 11.41L49.16 14C49.3531 14.3847 49.6653 14.6968 50.05 14.89L52.62 16.18L47.62 21.18H42.84L42.83 16.41ZM32.16 34.67L42.27 24.56C42.4558 24.3742 42.6032 24.1536 42.7038 23.9108C42.8043 23.668 42.8561 23.4078 42.8561 23.145C42.8561 22.8822 42.8043 22.622 42.7038 22.3792C42.6032 22.1364 42.4558 21.9158 42.27 21.73C42.0842 21.5442 41.8636 21.3968 41.6208 21.2962C41.378 21.1956 41.1178 21.1439 40.855 21.1439C40.5922 21.1439 40.332 21.1956 40.0892 21.2962C39.8464 21.3968 39.6258 21.5442 39.44 21.73L29.33 31.84C29.0514 32.1202 28.8621 32.4768 28.7859 32.8646C28.7097 33.2523 28.7502 33.654 28.9021 34.0188C29.054 34.3836 29.3106 34.6953 29.6395 34.9144C29.9684 35.1335 30.3548 35.2503 30.75 35.25C31.2781 35.2504 31.785 35.0419 32.16 34.67Z" fill="#101010"/>
<path d="M30.74 58C27.4499 58.0662 24.1797 57.4753 21.1208 56.262C18.0618 55.0486 15.2757 53.2372 12.9255 50.9338C10.5753 48.6304 8.7083 45.8813 7.43372 42.8474C6.15914 39.8135 5.50262 36.5558 5.50262 33.265C5.50262 29.9743 6.15914 26.7166 7.43372 23.6827C8.7083 20.6488 10.5753 17.8996 12.9255 15.5962C15.2757 13.2928 18.0618 11.4814 21.1208 10.2681C24.1797 9.05475 27.4499 8.46387 30.74 8.53002C31.2704 8.53002 31.7791 8.74074 32.1542 9.11581C32.5293 9.49088 32.74 9.99959 32.74 10.53C32.74 11.0605 32.5293 11.5692 32.1542 11.9442C31.7791 12.3193 31.2704 12.53 30.74 12.53C26.6372 12.528 22.6259 13.743 19.2137 16.0212C15.8015 18.2994 13.1416 21.5384 11.5706 25.3286C9.99965 29.1187 9.58808 33.2896 10.388 37.3137C11.188 41.3378 13.1635 45.0343 16.0646 47.9354C18.9657 50.8366 22.6622 52.8121 26.6863 53.612C30.7104 54.4119 34.8813 54.0004 38.6715 52.4294C42.4616 50.8584 45.7007 48.1985 47.9788 44.7863C50.257 41.3741 51.472 37.3629 51.47 33.26C51.47 32.7296 51.6807 32.2209 52.0558 31.8458C52.4309 31.4707 52.9396 31.26 53.47 31.26C54.0004 31.26 54.5091 31.4707 54.8842 31.8458C55.2593 32.2209 55.47 32.7296 55.47 33.26C55.4647 39.8181 52.8578 46.1063 48.2215 50.7445C43.5852 55.3827 37.2981 57.9921 30.74 58Z" fill="#6F4CCE"/>
</svg>
