<svg width="64" height="64" viewBox="0 0 64 64" fill="none" xmlns="http://www.w3.org/2000/svg">
<path d="M35 6.00004C28.1044 6.00004 21.4912 8.73932 16.6152 13.6153C11.7393 18.4912 9.00001 25.1044 9.00001 32C9.00001 32.4 9.00001 32.8 9.00001 33.21L6.41001 30.59C6.02741 30.2624 5.53526 30.0912 5.03191 30.1106C4.52856 30.1301 4.05108 30.3387 3.69489 30.6949C3.3387 31.0511 3.13003 31.5286 3.11059 32.0319C3.09115 32.5353 3.26236 33.0274 3.59001 33.41L9.59001 39.41C9.96474 39.7825 10.4716 39.9916 11 39.9916C11.5284 39.9916 12.0353 39.7825 12.41 39.41L18.41 33.41C18.7377 33.0274 18.9089 32.5353 18.8894 32.0319C18.87 31.5286 18.6613 31.0511 18.3051 30.6949C17.949 30.3387 17.4715 30.1301 16.9681 30.1106C16.4648 30.0912 15.9726 30.2624 15.59 30.59L13 33.14C13 32.76 13 32.38 13 32C12.9883 26.7448 14.8581 21.6589 18.2712 17.6628C21.6843 13.6667 26.4151 11.0243 31.6076 10.214C36.8 9.40361 42.111 10.4788 46.5795 13.2448C51.0479 16.0109 54.3786 20.2852 55.9687 25.2941C57.5588 30.3031 57.3034 35.7158 55.2486 40.5527C53.1938 45.3896 49.4755 49.3312 44.7664 51.6642C40.0573 53.9972 34.6687 54.5674 29.5756 53.2717C24.4826 51.9759 20.0216 48.8998 17 44.6C16.6826 44.2025 16.2257 43.9408 15.7222 43.8683C15.2187 43.7957 14.7064 43.9178 14.2897 44.2096C13.8731 44.5014 13.5832 44.941 13.4792 45.439C13.3752 45.937 13.4649 46.4559 13.73 46.89C16.2904 50.5551 19.7527 53.498 23.7824 55.4345C27.8121 57.371 32.2731 58.2357 36.7345 57.945C41.1959 57.6543 45.507 56.2181 49.2513 53.775C52.9957 51.332 56.0468 47.9647 58.11 43.9984C60.1732 40.032 61.1787 35.6007 61.0295 31.1323C60.8803 26.6639 59.5814 22.3095 57.2582 18.4897C54.935 14.6698 51.6661 11.5135 47.7671 9.32572C43.8681 7.13791 39.4709 5.99247 35 6.00004Z" fill="#6F4CCE"/>
<path d="M34.25 19.29C33.7196 19.29 33.2109 19.5008 32.8358 19.8758C32.4607 20.2509 32.25 20.7596 32.25 21.29V33.86C32.2521 34.2091 32.3455 34.5515 32.521 34.8532C32.6964 35.1549 32.9477 35.4055 33.25 35.58L43 41.38C43.3029 41.5598 43.6478 41.6564 44 41.66C44.4365 41.6556 44.8595 41.5085 45.2046 41.2411C45.5496 40.9738 45.7977 40.6009 45.911 40.1793C46.0243 39.7578 45.9967 39.3108 45.8322 38.9065C45.6677 38.5021 45.3754 38.1627 45 37.94L36.24 32.72V21.29C36.24 20.7613 36.0307 20.2541 35.6578 19.8793C35.2849 19.5046 34.7787 19.2927 34.25 19.29Z" fill="#6F4CCE"/>
<path d="M34.25 19.29C33.7196 19.29 33.2109 19.5008 32.8358 19.8758C32.4607 20.2509 32.25 20.7596 32.25 21.29V33.86C32.2521 34.2091 32.3455 34.5515 32.521 34.8532C32.6964 35.1549 32.9477 35.4055 33.25 35.58L43 41.38C43.3029 41.5598 43.6478 41.6564 44 41.66C44.4365 41.6556 44.8595 41.5085 45.2046 41.2411C45.5496 40.9738 45.7977 40.6009 45.911 40.1793C46.0243 39.7578 45.9966 39.3108 45.8321 38.9065C45.6677 38.5021 45.3754 38.1627 45 37.94L36.24 32.72V21.29C36.24 20.7613 36.0307 20.2541 35.6578 19.8793C35.2848 19.5046 34.7787 19.2927 34.25 19.29Z" fill="#101010"/>
</svg>
