<svg width="64" height="64" viewBox="0 0 64 64" fill="none" xmlns="http://www.w3.org/2000/svg">
<path d="M55 19.62V13.33C54.9974 11.3868 54.2242 9.5239 52.8502 8.14983C51.4761 6.77576 49.6132 6.00265 47.67 6L13 6C11.0568 6.00265 9.1939 6.77576 7.81983 8.14983C6.44576 9.5239 5.67265 11.3868 5.67 13.33V41.13C4.87498 41.5081 4.20272 42.1027 3.73043 42.8457C3.25814 43.5886 3.00497 44.4497 3 45.33V48C3.00264 49.2378 3.49551 50.424 4.37073 51.2993C5.24595 52.1745 6.43225 52.6674 7.67 52.67H34.95C35.3857 54.1946 36.3028 55.5375 37.5644 56.4981C38.826 57.4587 40.3644 57.9855 41.95 58H52.95C54.895 58 56.7604 57.2281 58.1366 55.8537C59.5129 54.4793 60.2873 52.615 60.29 50.67V26.67C60.2904 25.0806 59.775 23.5339 58.821 22.2626C57.867 20.9912 56.5262 20.0639 55 19.62ZM13 10H47.67C48.5524 10.0026 49.3978 10.3543 50.0218 10.9782C50.6457 11.6022 50.9974 12.4476 51 13.33V19.33H42C40.055 19.3327 38.1907 20.1071 36.8163 21.4834C35.4419 22.8596 34.67 24.725 34.67 26.67V40.67H9.67V13.33C9.67264 12.4476 10.0243 11.6022 10.6482 10.9782C11.2722 10.3543 12.1176 10.0026 13 10ZM7 48V45.33C7.00263 45.154 7.07437 44.9862 7.19974 44.8627C7.32511 44.7392 7.49402 44.67 7.67 44.67H34.67V48.67H7.67C7.4923 48.67 7.32189 48.5994 7.19624 48.4738C7.07059 48.3481 7 48.1777 7 48ZM56.34 50.67C56.3373 51.5541 55.9843 52.4011 55.3582 53.0253C54.7321 53.6495 53.8841 54 53 54H42C41.1176 53.9974 40.2722 53.6457 39.6482 53.0218C39.0243 52.3978 38.6726 51.5524 38.67 50.67V26.67C38.67 25.7859 39.0205 24.9379 39.6447 24.3118C40.2689 23.6857 41.1159 23.3326 42 23.33H53C53.885 23.3326 54.733 23.6854 55.3588 24.3112C55.9846 24.937 56.3374 25.785 56.34 26.67V50.67ZM51.83 50C51.83 50.5304 51.6193 51.0391 51.2442 51.4142C50.8691 51.7893 50.3604 52 49.83 52H45.16C44.6296 52 44.1209 51.7893 43.7458 51.4142C43.3707 51.0391 43.16 50.5304 43.16 50C43.16 49.4696 43.3707 48.9609 43.7458 48.5858C44.1209 48.2107 44.6296 48 45.16 48H49.83C50.3604 48 50.8691 48.2107 51.2442 48.5858C51.6193 48.9609 51.83 49.4696 51.83 50Z" fill="#6F4CCE"/>
<path d="M51.83 50C51.83 50.5304 51.6193 51.0391 51.2442 51.4142C50.8691 51.7893 50.3604 52 49.83 52H45.16C44.6296 52 44.1209 51.7893 43.7458 51.4142C43.3707 51.0391 43.16 50.5304 43.16 50C43.16 49.4696 43.3707 48.9609 43.7458 48.5858C44.1209 48.2107 44.6296 48 45.16 48H49.83C50.3604 48 50.8691 48.2107 51.2442 48.5858C51.6193 48.9609 51.83 49.4696 51.83 50Z" fill="#101010"/>
</svg>
