<svg width="64" height="64" viewBox="0 0 64 64" fill="none" xmlns="http://www.w3.org/2000/svg">
<path d="M57.41 54.5901L54 51.2101C55.0249 49.5511 55.4591 47.5944 55.2322 45.6575C55.0053 43.7207 54.1306 41.9174 52.75 40.5401C51.535 39.3448 49.9946 38.5342 48.3214 38.2095C46.6482 37.8849 44.9164 38.0606 43.3426 38.7147C41.7687 39.3688 40.4225 40.4722 39.4723 41.8872C38.522 43.3021 38.01 44.9657 38 46.6701C38.0068 48.2087 38.4234 49.7178 39.207 51.0419C39.9905 52.3661 41.1127 53.4576 42.4581 54.2041C43.8035 54.9507 45.3235 55.3253 46.8617 55.2894C48.4 55.2536 49.9009 54.8085 51.21 54.0001L54.59 57.3701C54.9726 57.6978 55.4647 57.869 55.9681 57.8495C56.4715 57.8301 56.9489 57.6214 57.3051 57.2652C57.6613 56.909 57.87 56.4316 57.8894 55.9282C57.9089 55.4249 57.7376 54.9327 57.41 54.5501V54.5901ZM43.37 50.0001C42.7205 49.3456 42.2793 48.5134 42.1021 47.6085C41.9248 46.7036 42.0194 45.7665 42.374 44.9153C42.7285 44.0641 43.3271 43.3368 44.0943 42.8253C44.8614 42.3138 45.7629 42.0408 46.685 42.0408C47.6071 42.0408 48.5085 42.3138 49.2757 42.8253C50.0429 43.3368 50.6415 44.0641 50.996 44.9153C51.3506 45.7665 51.4452 46.7036 51.2679 47.6085C51.0906 48.5134 50.6495 49.3456 50 50.0001C49.5659 50.4376 49.0495 50.7849 48.4805 51.0218C47.9116 51.2588 47.3013 51.3808 46.685 51.3808C46.0687 51.3808 45.4584 51.2588 44.8895 51.0218C44.3205 50.7849 43.8041 50.4376 43.37 50.0001ZM45.15 32.7001H53.33C53.8604 32.7001 54.3691 32.4894 54.7442 32.1143C55.1193 31.7393 55.33 31.2305 55.33 30.7001C55.337 26.5185 54.2805 22.4037 52.2599 18.7427C50.2393 15.0817 47.3209 11.9946 43.779 9.7717C40.2371 7.54879 36.1882 6.26305 32.0128 6.03537C27.8373 5.80768 23.6726 6.64551 19.91 8.47011C19.7438 8.52983 19.5858 8.61048 19.44 8.71011C13.6793 11.6502 9.30559 16.7373 7.26262 22.8737C5.21965 29.0101 5.67126 35.7037 8.52 41.5101C8.52 41.5601 8.57 41.6101 8.6 41.6701C10.6479 45.7714 13.7972 49.2216 17.6952 51.6342C21.5932 54.0468 26.0858 55.3265 30.67 55.3301C31.2004 55.3301 31.7091 55.1194 32.0842 54.7443C32.4593 54.3693 32.67 53.8605 32.67 53.3301C32.67 52.7997 32.4593 52.291 32.0842 51.9159C31.7091 51.5408 31.2004 51.3301 30.67 51.3301C27.3897 51.33 24.1567 50.5469 21.2399 49.0459C18.3231 47.5449 15.8068 45.3694 13.9 42.7001C19.52 42.4701 25.11 41.1401 25.11 33.1901C25.11 29.9801 26.79 28.6201 28.72 27.0301C30.65 25.4401 32.72 23.8201 32.72 20.6001C32.72 16.4401 29.02 14.7001 26.32 13.4301C25.1073 12.9849 23.9832 12.3281 23 11.4901C26.2418 10.1832 29.7641 9.72782 33.2316 10.1672C36.6992 10.6065 39.9966 11.926 42.81 14.0001L38.81 18.5301C37.7213 19.7564 37.01 21.271 36.7618 22.892C36.5136 24.5129 36.739 26.171 37.4109 27.6668C38.0827 29.1627 39.1725 30.4326 40.549 31.3237C41.9255 32.2149 43.5302 32.6894 45.17 32.6901L45.15 32.7001ZM24.57 17.0501C27.35 18.3601 28.67 19.1401 28.67 20.6001C28.67 21.8601 27.82 22.6001 26.19 23.9401C24.05 25.6901 21.11 28.0901 21.11 33.1901C21.11 37.5601 19.38 38.6501 11.64 38.7401C9.74481 34.2722 9.48384 29.2796 10.9029 24.6384C12.3219 19.9973 15.3303 16.0042 19.4 13.3601C20.55 15.1601 22.71 16.1801 24.57 17.0501ZM41.78 21.1701L45.78 16.6401C48.8607 19.9339 50.7693 24.1517 51.21 28.6401H45.15C44.2818 28.6389 43.4324 28.3871 42.7038 27.915C41.9753 27.4429 41.3984 26.7705 41.0426 25.9786C40.6868 25.1867 40.5671 24.3089 40.6979 23.4506C40.8287 22.5923 41.2044 21.7901 41.78 21.1401V21.1701Z" fill="#6F4CCE"/>
<path d="M57.41 54.5901L54 51.2101C55.0249 49.5511 55.4591 47.5944 55.2322 45.6575C55.0053 43.7207 54.1306 41.9174 52.75 40.5401C51.535 39.3448 49.9946 38.5342 48.3214 38.2095C46.6482 37.8849 44.9164 38.0606 43.3426 38.7147C41.7687 39.3688 40.4225 40.4722 39.4723 41.8872C38.5221 43.3021 38.01 44.9657 38 46.6701C38.0068 48.2087 38.4234 49.7178 39.207 51.0419C39.9905 52.3661 41.1127 53.4576 42.4581 54.2041C43.8035 54.9507 45.3235 55.3253 46.8618 55.2894C48.4 55.2536 49.9009 54.8085 51.21 54.0001L54.59 57.3701C54.9726 57.6978 55.4648 57.869 55.9681 57.8495C56.4715 57.8301 56.9489 57.6214 57.3051 57.2652C57.6613 56.909 57.87 56.4316 57.8894 55.9282C57.9089 55.4249 57.7377 54.9327 57.41 54.5501V54.5901ZM43.37 50.0001C42.7205 49.3456 42.2794 48.5134 42.1021 47.6085C41.9248 46.7036 42.0194 45.7665 42.374 44.9153C42.7285 44.0641 43.3271 43.3368 44.0943 42.8253C44.8615 42.3138 45.7629 42.0408 46.685 42.0408C47.6071 42.0408 48.5085 42.3138 49.2757 42.8253C50.0429 43.3368 50.6415 44.0641 50.996 44.9153C51.3506 45.7665 51.4452 46.7036 51.2679 47.6085C51.0906 48.5134 50.6495 49.3456 50 50.0001C49.5659 50.4376 49.0495 50.7849 48.4805 51.0218C47.9116 51.2588 47.3013 51.3808 46.685 51.3808C46.0687 51.3808 45.4584 51.2588 44.8895 51.0218C44.3205 50.7849 43.8041 50.4376 43.37 50.0001Z" fill="#101010"/>
</svg>
