<svg width="64" height="64" viewBox="0 0 64 64" fill="none" xmlns="http://www.w3.org/2000/svg">
<path d="M12.83 15.33C12.9251 11.8566 14.3718 8.55732 16.8622 6.13417C19.3526 3.71102 22.6903 2.35522 26.165 2.35522C29.6398 2.35522 32.9774 3.71102 35.4678 6.13417C37.9582 8.55732 39.4049 11.8566 39.5 15.33C39.5 15.8605 39.2893 16.3692 38.9142 16.7442C38.5392 17.1193 38.0304 17.33 37.5 17.33C36.9696 17.33 36.4609 17.1193 36.0858 16.7442C35.7107 16.3692 35.5 15.8605 35.5 15.33C35.4207 12.9071 34.4024 10.61 32.6605 8.92405C30.9185 7.23815 28.5892 6.29559 26.165 6.29559C23.7408 6.29559 21.4116 7.23815 19.6696 8.92405C17.9276 10.61 16.9093 12.9071 16.83 15.33C16.83 15.8605 16.6193 16.3692 16.2442 16.7442C15.8692 17.1193 15.3604 17.33 14.83 17.33C14.2996 17.33 13.7909 17.1193 13.4158 16.7442C13.0407 16.3692 12.83 15.8605 12.83 15.33ZM56.16 34V44C56.16 48.7739 54.2636 53.3523 50.8879 56.7279C47.5123 60.1036 42.9339 62 38.16 62H33.39C30.4242 62.0055 27.503 61.2781 24.8861 59.8824C22.2692 58.4867 20.0377 56.466 18.39 54L9.01001 39.88C8.23974 38.7113 7.89487 37.3131 8.03325 35.9202C8.17163 34.5273 8.78484 33.2244 9.77001 32.23C10.346 31.6525 11.0302 31.1943 11.7835 30.8817C12.5368 30.5691 13.3444 30.4081 14.16 30.4081C14.9756 30.4081 15.7832 30.5691 16.5365 30.8817C17.2898 31.1943 17.9741 31.6525 18.55 32.23L20.16 33.83V15.33C20.16 13.7387 20.7922 12.2126 21.9174 11.0874C23.0426 9.96216 24.5687 9.33002 26.16 9.33002C27.7513 9.33002 29.2774 9.96216 30.4027 11.0874C31.5279 12.2126 32.16 13.7387 32.16 15.33V23.01C33.5344 22.5252 35.0383 22.5572 36.3909 23.1C37.7434 23.6429 38.8522 24.6595 39.51 25.96C40.3322 25.5465 41.2397 25.3308 42.16 25.33C43.2687 25.3306 44.3555 25.6383 45.2999 26.2191C46.2443 26.7998 47.0093 27.6309 47.51 28.62C48.4245 28.1698 49.4387 27.96 50.4568 28.0104C51.4749 28.0609 52.4633 28.3698 53.3289 28.9082C54.1945 29.4465 54.9086 30.1965 55.4039 31.0874C55.8993 31.9783 56.1595 32.9807 56.16 34ZM52.16 34C52.16 33.4696 51.9493 32.9609 51.5742 32.5858C51.1992 32.2107 50.6904 32 50.16 32C49.6296 32 49.1209 32.2107 48.7458 32.5858C48.3707 32.9609 48.16 33.4696 48.16 34V36C48.16 36.5305 47.9493 37.0392 47.5742 37.4142C47.1992 37.7893 46.6904 38 46.16 38C45.6296 38 45.1209 37.7893 44.7458 37.4142C44.3707 37.0392 44.16 36.5305 44.16 36V31.33C44.16 30.7996 43.9493 30.2909 43.5742 29.9158C43.1992 29.5407 42.6904 29.33 42.16 29.33C41.6296 29.33 41.1209 29.5407 40.7458 29.9158C40.3707 30.2909 40.16 30.7996 40.16 31.33V33.33C40.16 33.8605 39.9493 34.3692 39.5742 34.7442C39.1992 35.1193 38.6904 35.33 38.16 35.33C37.6296 35.33 37.1209 35.1193 36.7458 34.7442C36.3707 34.3692 36.16 33.8605 36.16 33.33V28.66C36.16 28.1296 35.9493 27.6209 35.5742 27.2458C35.1992 26.8707 34.6904 26.66 34.16 26.66C33.6296 26.66 33.1209 26.8707 32.7458 27.2458C32.3707 27.6209 32.16 28.1296 32.16 28.66V33.33C32.16 33.8605 31.9493 34.3692 31.5742 34.7442C31.1992 35.1193 30.6904 35.33 30.16 35.33C29.6296 35.33 29.1209 35.1193 28.7458 34.7442C28.3707 34.3692 28.16 33.8605 28.16 33.33V15.33C28.16 14.7996 27.9493 14.2909 27.5742 13.9158C27.1992 13.5407 26.6904 13.33 26.16 13.33C25.6296 13.33 25.1209 13.5407 24.7458 13.9158C24.3707 14.2909 24.16 14.7996 24.16 15.33V38.66C24.1603 39.0552 24.0436 39.4416 23.8244 39.7705C23.6053 40.0994 23.2937 40.356 22.9289 40.5079C22.564 40.6598 22.1624 40.7003 21.7746 40.6241C21.3868 40.548 21.0303 40.3586 20.75 40.08L15.75 35.08C15.3341 34.6666 14.7715 34.4346 14.185 34.4346C13.5986 34.4346 13.0359 34.6666 12.62 35.08C12.2852 35.42 12.0769 35.8644 12.0296 36.3392C11.9823 36.814 12.0989 37.2906 12.36 37.69L21.76 51.79C23.0379 53.709 24.77 55.2826 26.8024 56.3712C28.8347 57.4598 31.1045 58.0296 33.41 58.03H38.18C41.893 58.03 45.454 56.555 48.0795 53.9295C50.705 51.304 52.18 47.7431 52.18 44.03L52.16 34Z" fill="#6F4CCE"/>
<path d="M12.83 15.33C12.9251 11.8566 14.3718 8.55732 16.8622 6.13417C19.3526 3.71102 22.6902 2.35522 26.165 2.35522C29.6397 2.35522 32.9774 3.71102 35.4678 6.13417C37.9582 8.55732 39.4049 11.8566 39.5 15.33C39.5 15.8605 39.2893 16.3692 38.9142 16.7442C38.5391 17.1193 38.0304 17.33 37.5 17.33C36.9696 17.33 36.4608 17.1193 36.0858 16.7442C35.7107 16.3692 35.5 15.8605 35.5 15.33C35.4207 12.9071 34.4024 10.61 32.6604 8.92405C30.9184 7.23815 28.5892 6.29559 26.165 6.29559C23.7408 6.29559 21.4115 7.23815 19.6695 8.92405C17.9276 10.61 16.9093 12.9071 16.83 15.33C16.83 15.8605 16.6193 16.3692 16.2442 16.7442C15.8691 17.1193 15.3604 17.33 14.83 17.33C14.2996 17.33 13.7908 17.1193 13.4158 16.7442C13.0407 16.3692 12.83 15.8605 12.83 15.33Z" fill="#101010"/>
</svg>
