<svg width="64" height="64" viewBox="0 0 64 64" fill="none" xmlns="http://www.w3.org/2000/svg">
<path d="M30.12 45.5199L25.01 48.0799V14.4599L25.32 14.3799L37.01 10.4799V24.0099C37.01 24.5403 37.2207 25.0491 37.5958 25.4241C37.9709 25.7992 38.4796 26.0099 39.01 26.0099C39.5404 26.0099 40.0491 25.7992 40.4242 25.4241C40.7993 25.0491 41.01 24.5403 41.01 24.0099V10.4899L52.56 14.3399C52.6995 14.3845 52.8199 14.475 52.9016 14.5966C52.9833 14.7182 53.0215 14.8639 53.01 15.0099V26.7099C53.01 27.2404 53.2207 27.7491 53.5958 28.1241C53.9709 28.4992 54.4796 28.7099 55.01 28.7099C55.5404 28.7099 56.0491 28.4992 56.4242 28.1241C56.7993 27.7491 57.01 27.2404 57.01 26.7099V15.0099C57.0102 14.0302 56.7022 13.0753 56.1297 12.2803C55.5572 11.4852 54.7492 10.8904 53.82 10.5799L41.33 6.37992C39.8219 5.87011 38.1881 5.87011 36.68 6.37992L24.06 10.5899C23.7362 10.6916 23.3993 10.7455 23.06 10.7499H23.01C22.6698 10.7468 22.3322 10.6894 22.01 10.5799L11.14 7.00992C10.4414 6.77996 9.6984 6.71826 8.97146 6.82982C8.24451 6.94139 7.55419 7.22307 6.95671 7.65193C6.35924 8.08079 5.87149 8.6447 5.53321 9.29774C5.19492 9.95078 5.01566 10.6745 5.01001 11.4099V41.6599C5.00699 42.528 5.24706 43.3797 5.70302 44.1184C6.15899 44.8571 6.81265 45.4535 7.59001 45.8399L19.73 51.9099C20.7225 52.4015 21.8125 52.6645 22.92 52.6799H23.1C24.2074 52.6635 25.2971 52.4005 26.29 51.9099L31.9 49.0999C32.3581 48.8543 32.7025 48.44 32.8603 47.9448C33.0182 47.4496 32.9771 46.9123 32.7457 46.4469C32.5143 45.9815 32.1108 45.6245 31.6207 45.4515C31.1305 45.2784 30.5923 45.303 30.12 45.5199ZM9.37001 42.2599C9.25867 42.2042 9.16508 42.1185 9.09972 42.0125C9.03437 41.9065 8.99984 41.7844 9.00001 41.6599V11.4099C9.00099 11.3044 9.02685 11.2007 9.0755 11.1071C9.12415 11.0135 9.1942 10.9328 9.27996 10.8714C9.36572 10.81 9.46477 10.7697 9.56904 10.7538C9.6733 10.7379 9.77985 10.7469 9.88001 10.7799L20.69 14.3799L21.01 14.4599V48.0799L9.37001 42.2599ZM48.37 30.9399C46.8795 30.9386 45.4033 31.2309 44.0258 31.8001C42.6482 32.3692 41.3963 33.2042 40.3414 34.2572C39.2865 35.3102 38.4494 36.5607 37.8778 37.9372C37.3062 39.3138 37.0113 40.7894 37.01 42.2799C37.01 48.0099 42.09 53.7699 45.11 56.7099C45.9766 57.5553 47.1393 58.0285 48.35 58.0285C49.5607 58.0285 50.7234 57.5553 51.59 56.7099C54.59 53.7699 59.69 47.9799 59.69 42.2799C59.6874 39.2732 58.4918 36.3903 56.3657 34.2642C54.2396 32.1382 51.3568 30.9426 48.35 30.9399H48.37ZM48.82 53.8399C48.699 53.956 48.5377 54.0209 48.37 54.0209C48.2023 54.0209 48.041 53.956 47.92 53.8399C45.85 51.8399 41.03 46.6799 41.03 42.2799C41.03 40.3332 41.8033 38.4663 43.1798 37.0898C44.5564 35.7132 46.4233 34.9399 48.37 34.9399C50.3167 34.9399 52.1837 35.7132 53.5602 37.0898C54.9367 38.4663 55.71 40.3332 55.71 42.2799C55.69 45.3699 53.18 49.5899 48.8 53.8399H48.82ZM48.35 39.3099C47.9953 39.3092 47.6439 39.3786 47.3161 39.5141C46.9883 39.6497 46.6906 39.8488 46.44 40.0999C46.1892 40.3481 45.9909 40.6442 45.8569 40.9706C45.7229 41.297 45.6559 41.6471 45.66 41.9999C45.66 42.5319 45.8178 43.052 46.1134 43.4944C46.4089 43.9368 46.8291 44.2816 47.3206 44.4851C47.8121 44.6887 48.353 44.742 48.8748 44.6382C49.3966 44.5344 49.8759 44.2782 50.2521 43.902C50.6283 43.5258 50.8845 43.0465 50.9883 42.5247C51.0921 42.0029 51.0388 41.462 50.8352 40.9705C50.6316 40.479 50.2869 40.0588 49.8445 39.7633C49.4021 39.4677 48.882 39.3099 48.35 39.3099Z" fill="#6F4CCE"/>
<path d="M30.12 45.5199L25.01 48.0799V14.4599L25.32 14.3799L37.01 10.4799V24.0099C37.01 24.5403 37.2207 25.0491 37.5958 25.4241C37.9709 25.7992 38.4796 26.0099 39.01 26.0099C39.5404 26.0099 40.0491 25.7992 40.4242 25.4241C40.7993 25.0491 41.01 24.5403 41.01 24.0099V10.4899L52.56 14.3399C52.6995 14.3845 52.8199 14.475 52.9016 14.5966C52.9833 14.7182 53.0215 14.8639 53.01 15.0099V26.7099C53.01 27.2404 53.2207 27.7491 53.5958 28.1241C53.9709 28.4992 54.4796 28.7099 55.01 28.7099C55.5404 28.7099 56.0491 28.4992 56.4242 28.1241C56.7993 27.7491 57.01 27.2404 57.01 26.7099V15.0099C57.0102 14.0302 56.7022 13.0753 56.1297 12.2803C55.5572 11.4852 54.7492 10.8904 53.82 10.5799L41.33 6.37992C39.8219 5.87011 38.1881 5.87011 36.68 6.37992L24.06 10.5899C23.7362 10.6916 23.3993 10.7455 23.06 10.7499H23.01C22.6698 10.7468 22.3322 10.6894 22.01 10.5799L11.14 7.00992C10.4414 6.77996 9.6984 6.71826 8.97146 6.82982C8.24451 6.94139 7.55419 7.22307 6.95671 7.65193C6.35924 8.08079 5.87149 8.6447 5.53321 9.29774C5.19492 9.95078 5.01566 10.6745 5.01001 11.4099V41.6599C5.00699 42.528 5.24706 43.3797 5.70302 44.1184C6.15899 44.8571 6.81265 45.4535 7.59001 45.8399L19.73 51.9099C20.7225 52.4015 21.8125 52.6645 22.92 52.6799H23.1C24.2074 52.6635 25.2971 52.4005 26.29 51.9099L31.9 49.0999C32.3581 48.8543 32.7025 48.44 32.8603 47.9448C33.0182 47.4496 32.9771 46.9123 32.7457 46.4469C32.5143 45.9815 32.1108 45.6245 31.6207 45.4515C31.1305 45.2784 30.5923 45.303 30.12 45.5199ZM9.37001 42.2599C9.25867 42.2042 9.16508 42.1185 9.09972 42.0125C9.03437 41.9065 8.99984 41.7844 9.00001 41.6599V11.4099C9.00099 11.3044 9.02685 11.2007 9.0755 11.1071C9.12415 11.0135 9.1942 10.9328 9.27996 10.8714C9.36572 10.81 9.46477 10.7697 9.56904 10.7538C9.6733 10.7379 9.77985 10.7469 9.88001 10.7799L20.69 14.3799L21.01 14.4599V48.0799L9.37001 42.2599Z" fill="#101010"/>
</svg>
