<svg width="64" height="64" viewBox="0 0 64 64" fill="none" xmlns="http://www.w3.org/2000/svg">
<path d="M50.67 6H13.33C11.3868 6.00265 9.5239 6.77576 8.14983 8.14983C6.77576 9.5239 6.00265 11.3868 6 13.33V50.67C6.00265 52.6132 6.77576 54.4761 8.14983 55.8502C9.5239 57.2242 11.3868 57.9974 13.33 58H50.67C52.6132 57.9974 54.4761 57.2242 55.8502 55.8502C57.2242 54.4761 57.9974 52.6132 58 50.67V13.33C57.9974 11.3868 57.2242 9.5239 55.8502 8.14983C54.4761 6.77576 52.6132 6.00265 50.67 6ZM54 50.67C53.9974 51.5524 53.6457 52.3978 53.0218 53.0218C52.3978 53.6457 51.5524 53.9974 50.67 54H13.33C12.4476 53.9974 11.6022 53.6457 10.9782 53.0218C10.3543 52.3978 10.0026 51.5524 10 50.67V13.33C10.0026 12.4476 10.3543 11.6022 10.9782 10.9782C11.6022 10.3543 12.4476 10.0026 13.33 10H50.67C51.5524 10.0026 52.3978 10.3543 53.0218 10.9782C53.6457 11.6022 53.9974 12.4476 54 13.33V50.67ZM45.33 30H42.7C42.4243 28.5146 41.8456 27.1019 41 25.85L42.85 24C43.2279 23.6221 43.4403 23.1095 43.4403 22.575C43.4403 22.0405 43.2279 21.5279 42.85 21.15C42.4721 20.7721 41.9595 20.5597 41.425 20.5597C40.8905 20.5597 40.3779 20.7721 40 21.15L38.15 23C36.9004 22.15 35.4868 21.5709 34 21.3V18.67C34 18.1396 33.7893 17.6309 33.4142 17.2558C33.0391 16.8807 32.5304 16.67 32 16.67C31.4696 16.67 30.9609 16.8807 30.5858 17.2558C30.2107 17.6309 30 18.1396 30 18.67V21.3C28.5132 21.5709 27.0996 22.15 25.85 23L24 21.15C23.6221 20.7721 23.1095 20.5597 22.575 20.5597C22.0405 20.5597 21.5279 20.7721 21.15 21.15C20.7721 21.5279 20.5597 22.0405 20.5597 22.575C20.5597 23.1095 20.7721 23.6221 21.15 24L23 25.85C22.1544 27.1019 21.5757 28.5146 21.3 30H18.67C18.1396 30 17.6309 30.2107 17.2558 30.5858C16.8807 30.9609 16.67 31.4696 16.67 32C16.67 32.5304 16.8807 33.0391 17.2558 33.4142C17.6309 33.7893 18.1396 34 18.67 34H21.3C21.5757 35.4854 22.1544 36.8981 23 38.15L21.15 40C20.7775 40.3747 20.5684 40.8816 20.5684 41.41C20.5684 41.9384 20.7775 42.4453 21.15 42.82C21.5247 43.1925 22.0316 43.4016 22.56 43.4016C23.0884 43.4016 23.5953 43.1925 23.97 42.82L25.85 41C27.1019 41.8456 28.5146 42.4243 30 42.7V45.33C30 45.8604 30.2107 46.3691 30.5858 46.7442C30.9609 47.1193 31.4696 47.33 32 47.33C32.5304 47.33 33.0391 47.1193 33.4142 46.7442C33.7893 46.3691 34 45.8604 34 45.33V42.7C35.4854 42.4243 36.8981 41.8456 38.15 41L40 42.85C40.3747 43.2225 40.8816 43.4316 41.41 43.4316C41.9384 43.4316 42.4453 43.2225 42.82 42.85C43.1925 42.4753 43.4016 41.9684 43.4016 41.44C43.4016 40.9116 43.1925 40.4047 42.82 40.03L41 38.15C41.8456 36.8981 42.4243 35.4854 42.7 34H45.33C45.8604 34 46.3691 33.7893 46.7442 33.4142C47.1193 33.0391 47.33 32.5304 47.33 32C47.33 31.4696 47.1193 30.9609 46.7442 30.5858C46.3691 30.2107 45.8604 30 45.33 30ZM32 38.88C30.1893 38.8759 28.4535 38.1571 27.17 36.88C26.5328 36.2458 26.0279 35.4914 25.6846 34.6606C25.3413 33.8297 25.1664 32.939 25.17 32.04V32C25.1752 30.1891 25.8941 28.4533 27.1709 27.1691C28.4476 25.8849 30.1792 25.1558 31.99 25.14H32.11C33.9121 25.1688 35.6309 25.9036 36.8969 27.1865C38.1629 28.4693 38.875 30.1977 38.88 32C38.8826 32.9042 38.7065 33.8001 38.3617 34.636C38.0168 35.4719 37.5102 36.2314 36.8708 36.8708C36.2314 37.5102 35.4719 38.0168 34.636 38.3617C33.8001 38.7065 32.9042 38.8826 32 38.88Z" fill="#6F4CCE"/>
<path d="M50.67 6H13.33C11.3868 6.00265 9.5239 6.77576 8.14983 8.14983C6.77576 9.5239 6.00265 11.3868 6 13.33V50.67C6.00265 52.6132 6.77576 54.4761 8.14983 55.8502C9.5239 57.2242 11.3868 57.9974 13.33 58H50.67C52.6132 57.9974 54.4761 57.2242 55.8502 55.8502C57.2242 54.4761 57.9974 52.6132 58 50.67V13.33C57.9974 11.3868 57.2242 9.5239 55.8502 8.14983C54.4761 6.77576 52.6132 6.00265 50.67 6ZM54 50.67C53.9974 51.5524 53.6457 52.3978 53.0218 53.0218C52.3978 53.6457 51.5524 53.9974 50.67 54H13.33C12.4476 53.9974 11.6022 53.6457 10.9782 53.0218C10.3543 52.3978 10.0026 51.5524 10 50.67V13.33C10.0026 12.4476 10.3543 11.6022 10.9782 10.9782C11.6022 10.3543 12.4476 10.0026 13.33 10H50.67C51.5524 10.0026 52.3978 10.3543 53.0218 10.9782C53.6457 11.6022 53.9974 12.4476 54 13.33V50.67Z" fill="#101010"/>
</svg>
