<svg width="64" height="64" viewBox="0 0 64 64" fill="none" xmlns="http://www.w3.org/2000/svg">
<path d="M32.01 6.01001C26.8677 6.01001 21.8408 7.53488 17.5652 10.3918C13.2895 13.2487 9.957 17.3094 7.98912 22.0602C6.02124 26.8111 5.50636 32.0389 6.50957 37.0824C7.51279 42.1259 9.98905 46.7586 13.6252 50.3948C17.2614 54.031 21.8941 56.5072 26.9376 57.5104C31.9811 58.5136 37.2089 57.9988 41.9598 56.0309C46.7106 54.063 50.7713 50.7305 53.6282 46.4548C56.4851 42.1792 58.01 37.1523 58.01 32.01C58.01 25.1144 55.2707 18.5012 50.3948 13.6252C45.5188 8.74929 38.9056 6.01001 32.01 6.01001ZM32.01 54.01C27.6588 54.01 23.4053 52.7197 19.7874 50.3023C16.1696 47.8849 13.3498 44.449 11.6846 40.429C10.0195 36.4091 9.58384 31.9856 10.4327 27.718C11.2816 23.4504 13.3769 19.5304 16.4536 16.4537C19.5304 13.3769 23.4504 11.2816 27.718 10.4327C31.9856 9.58386 36.4091 10.0195 40.429 11.6847C44.449 13.3498 47.8849 16.1696 50.3023 19.7875C52.7197 23.4053 54.01 27.6588 54.01 32.01C54.01 37.8448 51.6921 43.4406 47.5663 47.5664C43.4405 51.6922 37.8448 54.01 32.01 54.01ZM39.52 18.49C37.9287 18.49 36.4026 19.1222 35.2774 20.2474C34.1521 21.3726 33.52 22.8987 33.52 24.49C33.5173 25.3837 33.7192 26.2663 34.11 27.07L32.74 28.45L26.34 22.01C25.8555 21.5112 25.2651 21.1276 24.6125 20.8876C23.9598 20.6476 23.2615 20.5575 22.5693 20.6237C21.8771 20.69 21.2086 20.9109 20.6133 21.2703C20.018 21.6297 19.511 22.1183 19.13 22.7C17.5967 25.1304 16.7427 27.9272 16.6568 30.7995C16.5709 33.6719 17.2563 36.5148 18.6417 39.0324C20.0271 41.55 22.0619 43.6503 24.5343 45.1149C27.0067 46.5795 29.8264 47.3547 32.7 47.36C35.7623 47.3556 38.761 46.4855 41.35 44.85C41.9193 44.4655 42.3961 43.9594 42.7461 43.3682C43.096 42.777 43.3102 42.1154 43.3734 41.4313C43.4365 40.7472 43.347 40.0577 43.1112 39.4124C42.8754 38.7671 42.4993 38.1822 42.01 37.7L35.6 31.28L36.97 29.91C37.7737 30.3008 38.6563 30.5027 39.55 30.5C41.1413 30.5 42.6674 29.8679 43.7926 28.7427C44.9179 27.6174 45.55 26.0913 45.55 24.5C45.55 22.9087 44.9179 21.3826 43.7926 20.2574C42.6674 19.1322 41.1413 18.5 39.55 18.5L39.52 18.49ZM39.18 40.54C39.2486 40.6069 39.3012 40.6884 39.3341 40.7784C39.367 40.8684 39.3793 40.9646 39.37 41.06C39.3593 41.2254 39.2838 41.3799 39.16 41.49C36.8525 42.945 34.1199 43.5748 31.4083 43.2764C28.6968 42.978 26.1665 41.7691 24.2306 39.8472C22.2947 37.9252 21.0676 35.4037 20.7496 32.6944C20.4317 29.985 21.0417 27.2479 22.48 24.93C22.5333 24.852 22.6029 24.7865 22.6841 24.7382C22.7653 24.6898 22.856 24.6597 22.95 24.65H23.01C23.0999 24.6515 23.1886 24.6709 23.271 24.7069C23.3534 24.743 23.4278 24.795 23.49 24.86L31.31 32.68L39.13 40.5L39.18 40.54ZM39.52 26.54C39.1244 26.54 38.7378 26.4227 38.4089 26.2029C38.08 25.9832 37.8236 25.6708 37.6722 25.3054C37.5209 24.9399 37.4812 24.5378 37.5584 24.1498C37.6356 23.7619 37.8261 23.4055 38.1058 23.1258C38.3855 22.8461 38.7418 22.6556 39.1298 22.5784C39.5178 22.5013 39.9199 22.5409 40.2854 22.6923C40.6508 22.8436 40.9632 23.1 41.1829 23.4289C41.4027 23.7578 41.52 24.1444 41.52 24.54C41.5095 25.0635 41.2942 25.562 40.9202 25.9284C40.5463 26.2949 40.0436 26.5001 39.52 26.5V26.54Z" fill="#6F4CCE"/>
<path d="M32.01 6.01001C26.8677 6.01001 21.8408 7.53488 17.5652 10.3918C13.2895 13.2487 9.957 17.3094 7.98912 22.0602C6.02124 26.8111 5.50636 32.0389 6.50957 37.0824C7.51279 42.1259 9.98905 46.7586 13.6252 50.3948C17.2614 54.031 21.8941 56.5072 26.9376 57.5104C31.9811 58.5136 37.2089 57.9988 41.9598 56.0309C46.7106 54.063 50.7713 50.7305 53.6282 46.4548C56.4851 42.1792 58.01 37.1523 58.01 32.01C58.01 25.1144 55.2707 18.5012 50.3948 13.6252C45.5188 8.74929 38.9056 6.01001 32.01 6.01001ZM32.01 54.01C27.6588 54.01 23.4053 52.7197 19.7874 50.3023C16.1696 47.8849 13.3498 44.449 11.6846 40.429C10.0195 36.4091 9.58384 31.9856 10.4327 27.718C11.2816 23.4504 13.3769 19.5304 16.4536 16.4537C19.5304 13.3769 23.4504 11.2816 27.718 10.4327C31.9856 9.58386 36.4091 10.0195 40.429 11.6847C44.449 13.3498 47.8849 16.1696 50.3023 19.7875C52.7197 23.4053 54.01 27.6588 54.01 32.01C54.01 37.8448 51.6921 43.4406 47.5663 47.5664C43.4405 51.6922 37.8448 54.01 32.01 54.01Z" fill="#101010"/>
</svg>
