<svg width="64" height="64" viewBox="0 0 64 64" fill="none" xmlns="http://www.w3.org/2000/svg">
<path d="M57.68 39.68V50.35C57.6773 52.2932 56.9042 54.1561 55.5302 55.5302C54.1561 56.9042 52.2932 57.6774 50.35 57.68H37.02C36.4896 57.68 35.9809 57.4693 35.6058 57.0942C35.2307 56.7192 35.02 56.2104 35.02 55.68C35.02 55.1496 35.2307 54.6409 35.6058 54.2658C35.9809 53.8907 36.4896 53.68 37.02 53.68H50.35C51.2315 53.6748 52.0755 53.3222 52.6989 52.6989C53.3222 52.0755 53.6747 51.2316 53.68 50.35V39.68C53.68 39.1496 53.8907 38.6409 54.2658 38.2658C54.6409 37.8907 55.1496 37.68 55.68 37.68C56.2104 37.68 56.7191 37.8907 57.0942 38.2658C57.4693 38.6409 57.68 39.1496 57.68 39.68ZM7.68 28.34C8.21043 28.34 8.71914 28.1293 9.09421 27.7542C9.46928 27.3791 9.68 26.8704 9.68 26.34V13.01C9.68524 12.1285 10.0378 11.2845 10.6611 10.6611C11.2845 10.0378 12.1284 9.68525 13.01 9.68001H26.34C26.8704 9.68001 27.3791 9.46929 27.7542 9.09422C28.1293 8.71915 28.34 8.21044 28.34 7.68001C28.34 7.14957 28.1293 6.64087 27.7542 6.26579C27.3791 5.89072 26.8704 5.68001 26.34 5.68001H13.01C11.0668 5.68265 9.2039 6.45577 7.82983 7.82984C6.45576 9.20391 5.68264 11.0668 5.68 13.01V26.34C5.68 26.8704 5.89071 27.3791 6.26578 27.7542C6.64086 28.1293 7.14956 28.34 7.68 28.34ZM45.02 33.68C41.986 33.68 39.0202 32.7803 36.4976 31.0947C33.9749 29.4092 32.0087 27.0134 30.8477 24.2104C29.6866 21.4074 29.3829 18.323 29.9748 15.3473C30.5666 12.3717 32.0276 9.63833 34.173 7.49299C36.3183 5.34765 39.0516 3.88666 42.0273 3.29476C45.003 2.70286 48.0873 3.00665 50.8904 4.1677C53.6934 5.32874 56.0892 7.29491 57.7747 9.81756C59.4603 12.3402 60.36 15.306 60.36 18.34C60.3547 22.4068 58.7368 26.3055 55.8612 29.1812C52.9855 32.0568 49.0868 33.6747 45.02 33.68ZM45.02 29.68C47.2628 29.68 49.4553 29.0149 51.3202 27.7689C53.185 26.5228 54.6385 24.7518 55.4968 22.6796C56.3551 20.6075 56.5797 18.3274 56.1421 16.1277C55.7045 13.9279 54.6245 11.9073 53.0386 10.3214C51.4527 8.73549 49.4321 7.65546 47.2323 7.2179C45.0326 6.78035 42.7525 7.00492 40.6804 7.86321C38.6083 8.72151 36.8372 10.175 35.5911 12.0398C34.3451 13.9047 33.68 16.0972 33.68 18.34C33.6853 21.3459 34.8817 24.2272 37.0072 26.3528C39.1328 28.4783 42.0141 29.6747 45.02 29.68ZM29.19 34.17C31.7001 36.6788 33.2628 39.9803 33.6117 43.512C33.9605 47.0437 33.0741 50.5872 31.1033 53.5386C29.1325 56.49 26.1994 58.6668 22.8036 59.6981C19.4078 60.7293 15.7595 60.5513 12.4803 59.1943C9.20108 57.8372 6.49382 55.3852 4.81979 52.2559C3.14576 49.1266 2.60853 45.5137 3.29964 42.0327C3.99074 38.5518 5.86742 35.4181 8.60993 33.1657C11.3524 30.9132 14.7911 29.6814 18.34 29.68C20.3553 29.6754 22.3517 30.0698 24.2138 30.8404C26.076 31.611 27.7673 32.7426 29.19 34.17ZM29.68 45.02C29.684 42.3956 28.7776 39.8511 27.1153 37.8202C25.4531 35.7894 23.1379 34.3979 20.5645 33.8831C17.9911 33.3683 15.3188 33.762 13.0032 34.9971C10.6876 36.2322 8.87207 38.2322 7.86613 40.6562C6.86019 43.0801 6.72613 45.7779 7.48679 48.2896C8.24746 50.8014 9.85576 52.9715 12.0375 54.4301C14.2192 55.8887 16.8393 56.5454 19.4511 56.2882C22.0629 56.0311 24.5046 54.8761 26.36 53.02C27.4136 51.9714 28.2494 50.7247 28.8192 49.3517C29.389 47.9787 29.6816 46.5065 29.68 45.02ZM25.02 48.48C25.1242 48.7302 25.1765 48.999 25.1736 49.2701C25.1708 49.5411 25.1129 49.8087 25.0034 50.0567C24.8939 50.3047 24.7352 50.5278 24.5369 50.7125C24.3385 50.8973 24.1047 51.0398 23.8496 51.1314C23.5945 51.2229 23.3234 51.2617 23.0529 51.2453C22.7823 51.229 22.5179 51.1578 22.2757 51.036C22.0335 50.9143 21.8186 50.7447 21.644 50.5373C21.4694 50.33 21.3387 50.0894 21.26 49.83L21.05 49.23H15.68L15.46 49.83C15.3219 50.2184 15.0672 50.5547 14.7306 50.7927C14.3941 51.0308 13.9922 51.1591 13.58 51.16C13.3481 51.1597 13.118 51.1191 12.9 51.04C12.6514 50.9526 12.4225 50.8169 12.2265 50.6408C12.0305 50.4647 11.8712 50.2515 11.7578 50.0136C11.6445 49.7757 11.5792 49.5178 11.5659 49.2546C11.5525 48.9914 11.5913 48.7282 11.68 48.48L15.13 38.87C15.2703 38.4819 15.5273 38.1466 15.8657 37.9103C16.2041 37.674 16.6073 37.5481 17.02 37.55H19.68C20.091 37.5502 20.492 37.677 20.8284 37.9132C21.1648 38.1494 21.4202 38.4835 21.56 38.87L24.26 46.39C24.307 46.4859 24.3438 46.5865 24.37 46.69L25.02 48.48ZM19.61 45.23L18.34 41.68L17.08 45.23H19.61ZM47.54 24.35C47.8779 24.5728 48.2754 24.6879 48.68 24.68C49.0137 24.6805 49.3423 24.5975 49.6357 24.4386C49.9291 24.2796 50.1781 24.0498 50.36 23.77C50.5039 23.5501 50.6031 23.304 50.6519 23.0457C50.7007 22.7874 50.698 22.522 50.6442 22.2648C50.5903 22.0075 50.4862 21.7634 50.338 21.5464C50.1897 21.3294 50.0001 21.1437 49.78 21C48.6877 20.2836 47.8591 19.2302 47.42 18H49.07C49.6004 18 50.1091 17.7893 50.4842 17.4142C50.8593 17.0391 51.07 16.5304 51.07 16C51.07 15.4696 50.8593 14.9609 50.4842 14.5858C50.1091 14.2107 49.6004 14 49.07 14H47.07V12.89C47.07 12.3596 46.8593 11.8509 46.4842 11.4758C46.1091 11.1007 45.6004 10.89 45.07 10.89C44.5396 10.89 44.0309 11.1007 43.6558 11.4758C43.2807 11.8509 43.07 12.3596 43.07 12.89V14.01H41.07C40.5396 14.01 40.0309 14.2207 39.6558 14.5958C39.2807 14.9709 39.07 15.4796 39.07 16.01C39.07 16.5404 39.2807 17.0491 39.6558 17.4242C40.0309 17.7993 40.5396 18.01 41.07 18.01H42.68C42.2494 19.2421 41.4231 20.2969 40.33 21.01C39.9729 21.2452 39.7006 21.5887 39.553 21.9901C39.4054 22.3914 39.3904 22.8295 39.5101 23.24C39.6298 23.6506 39.8779 24.0119 40.218 24.2711C40.5582 24.5302 40.9724 24.6736 41.4 24.68C41.7876 24.678 42.1663 24.5633 42.49 24.35C43.4649 23.7133 44.3211 22.9113 45.02 21.98C45.7185 22.9081 46.5708 23.7097 47.54 24.35Z" fill="#101010"/>
<path d="M57.68 39.6799V50.3499C57.6773 52.2932 56.9042 54.156 55.5302 55.5301C54.1561 56.9042 52.2932 57.6773 50.35 57.6799H37.02C36.4896 57.6799 35.9809 57.4692 35.6058 57.0941C35.2307 56.7191 35.02 56.2104 35.02 55.6799C35.02 55.1495 35.2307 54.6408 35.6058 54.2657C35.9809 53.8906 36.4896 53.6799 37.02 53.6799H50.35C51.2315 53.6747 52.0755 53.3222 52.6989 52.6988C53.3222 52.0754 53.6747 51.2315 53.68 50.3499V39.6799C53.68 39.1495 53.8907 38.6408 54.2658 38.2657C54.6409 37.8906 55.1496 37.6799 55.68 37.6799C56.2104 37.6799 56.7191 37.8906 57.0942 38.2657C57.4693 38.6408 57.68 39.1495 57.68 39.6799ZM7.67999 28.3399C8.21043 28.3399 8.71913 28.1292 9.09421 27.7541C9.46928 27.3791 9.67999 26.8704 9.67999 26.3399V13.0099C9.68524 12.1284 10.0378 11.2844 10.6611 10.6611C11.2845 10.0377 12.1284 9.68518 13.01 9.67993H26.34C26.8704 9.67993 27.3791 9.46922 27.7542 9.09414C28.1293 8.71907 28.34 8.21036 28.34 7.67993C28.34 7.1495 28.1293 6.64079 27.7542 6.26572C27.3791 5.89065 26.8704 5.67993 26.34 5.67993H13.01C11.0668 5.68258 9.20389 6.45569 7.82982 7.82976C6.45575 9.20383 5.68264 11.0667 5.67999 13.0099V26.3399C5.67999 26.8704 5.89071 27.3791 6.26578 27.7541C6.64085 28.1292 7.14956 28.3399 7.67999 28.3399ZM25.02 48.4799C25.1242 48.7301 25.1765 48.9989 25.1736 49.27C25.1708 49.541 25.1129 49.8086 25.0034 50.0566C24.8939 50.3046 24.7352 50.5277 24.5369 50.7125C24.3385 50.8972 24.1047 51.0397 23.8496 51.1313C23.5945 51.2229 23.3234 51.2617 23.0529 51.2453C22.7823 51.2289 22.5179 51.1577 22.2757 51.036C22.0335 50.9143 21.8186 50.7446 21.644 50.5373C21.4694 50.3299 21.3387 50.0893 21.26 49.8299L21.05 49.2299H15.68L15.46 49.8299C15.3219 50.2183 15.0672 50.5546 14.7306 50.7927C14.3941 51.0307 13.9922 51.159 13.58 51.1599C13.3481 51.1597 13.118 51.1191 12.9 51.0399C12.6514 50.9525 12.4225 50.8169 12.2265 50.6407C12.0305 50.4646 11.8712 50.2514 11.7578 50.0135C11.6445 49.7757 11.5792 49.5177 11.5659 49.2545C11.5525 48.9913 11.5913 48.7281 11.68 48.4799L15.13 38.8699C15.2703 38.4818 15.5273 38.1466 15.8657 37.9102C16.2041 37.6739 16.6073 37.548 17.02 37.5499H19.68C20.091 37.5501 20.492 37.6769 20.8284 37.9131C21.1648 38.1493 21.4202 38.4834 21.56 38.8699L24.26 46.3899C24.307 46.4858 24.3438 46.5864 24.37 46.6899L25.02 48.4799ZM19.61 45.2299L18.34 41.6799L17.08 45.2299H19.61ZM47.54 24.3499C47.8779 24.5727 48.2754 24.6878 48.68 24.6799C49.0137 24.6805 49.3423 24.5975 49.6357 24.4385C49.9291 24.2796 50.1781 24.0497 50.36 23.7699C50.5039 23.55 50.6031 23.3039 50.6519 23.0456C50.7006 22.7873 50.698 22.522 50.6441 22.2647C50.5903 22.0074 50.4862 21.7633 50.338 21.5463C50.1897 21.3293 50.0001 21.1436 49.78 20.9999C48.6877 20.2835 47.8591 19.2302 47.42 17.9999H49.07C49.6004 17.9999 50.1091 17.7892 50.4842 17.4141C50.8593 17.0391 51.07 16.5304 51.07 15.9999C51.07 15.4695 50.8593 14.9608 50.4842 14.5857C50.1091 14.2106 49.6004 13.9999 49.07 13.9999H47.07V12.8899C47.07 12.3595 46.8593 11.8508 46.4842 11.4757C46.1091 11.1006 45.6004 10.8899 45.07 10.8899C44.5396 10.8899 44.0309 11.1006 43.6558 11.4757C43.2807 11.8508 43.07 12.3595 43.07 12.8899V14.0099H41.07C40.5396 14.0099 40.0309 14.2206 39.6558 14.5957C39.2807 14.9708 39.07 15.4795 39.07 16.0099C39.07 16.5404 39.2807 17.0491 39.6558 17.4241C40.0309 17.7992 40.5396 18.0099 41.07 18.0099H42.68C42.2494 19.242 41.4231 20.2968 40.33 21.0099C39.9729 21.2452 39.7006 21.5886 39.553 21.99C39.4054 22.3913 39.3904 22.8294 39.5101 23.24C39.6298 23.6505 39.8779 24.0118 40.218 24.271C40.5582 24.5302 40.9724 24.6735 41.4 24.6799C41.7876 24.6779 42.1663 24.5632 42.49 24.3499C43.4649 23.7132 44.3211 22.9112 45.02 21.9799C45.7185 22.908 46.5708 23.7096 47.54 24.3499Z" fill="#6F4CCE"/>
</svg>
